<svg width="738" height="701" viewBox="0 0 738 701" fill="none" xmlns="http://www.w3.org/2000/svg">
<g filter="url(#filter0_b_0_1)">
<path fill-rule="evenodd" clip-rule="evenodd" d="M687.385 117.193C699.885 123.804 710.51 135.222 719.26 151.448C741.76 195.319 744.26 265.632 724.26 310.103C736.76 373.806 715.51 436.907 673.01 465.153C671.76 483.182 664.26 498.807 651.135 511.427C638.01 524.047 620.51 530.658 602.385 530.658C590.51 536.667 578.01 540.874 564.26 543.879C568.01 557.1 574.26 576.932 584.26 588.351L585.28 589.495C614.416 622.174 621.099 629.67 618.01 668.88C616.76 687.51 599.26 700.13 575.51 700.13H572.385C548.635 699.529 524.885 688.111 524.885 668.279C524.885 668.058 524.889 667.817 524.894 667.558L524.894 667.552C525.014 660.777 525.363 641.209 456.76 609.384C386.76 576.932 374.885 509.023 373.635 496.403C369.885 484.383 368.635 470.561 369.885 455.537C361.25 457.198 353.146 457.839 346.06 458.399L346.006 458.403C345.417 458.45 344.835 458.496 344.26 458.542C323.635 472.364 296.135 476.571 271.135 469.96C249.26 463.951 232.385 449.527 223.635 430.297C201.76 413.469 194.26 389.431 191.76 370.801C180.51 373.205 164.26 374.407 142.385 372.003C103.01 382.219 58.6349 367.796 29.2599 334.743C0.509909 302.892 -7.61509 262.627 7.38491 225.367C-5.74009 185.703 8.63491 153.852 23.6349 132.818C43.0099 105.775 75.5099 83.5392 101.135 77.5296C111.135 55.2938 138.635 36.6639 178.01 24.6446C209.885 15.6301 249.26 11.4233 274.26 21.0388C299.223 -0.0368347 344.351 -0.0112448 371.512 0.00415658C372.232 0.0045652 372.94 0.00496665 373.635 0.00496665H376.76H385.51C386.513 0.00496665 387.538 0.00377185 388.581 0.00255429C410.949 -0.0235348 442.277 -0.0600758 466.76 11.4233C518.635 3.61076 581.135 21.0388 606.76 49.8851C629.26 49.8851 649.885 57.6977 665.51 72.7218C678.635 85.3421 686.76 99.7653 687.385 117.193ZM643.635 456.138C642.385 451.33 645.51 445.922 651.135 442.917C682.385 426.09 699.885 382.82 699.26 334.142C679.885 344.358 657.385 344.358 636.76 344.358C635.226 344.358 633.673 344.358 632.107 344.362C631.361 344.49 630.593 344.556 629.81 344.556C629.071 344.556 628.345 344.497 627.637 344.382C621.687 344.428 615.65 344.563 609.885 344.959C580.51 347.964 564.26 379.815 564.26 379.815C562.426 385.693 557.005 388.696 550.921 388.826C550.89 388.899 550.859 388.974 550.827 389.048C550.8 389.11 550.773 389.172 550.745 389.235C550.674 389.394 550.6 389.554 550.522 389.714C549.117 392.626 546.798 395.441 543.292 397.424C542.187 398.049 540.949 398.701 539.674 399.23C538.655 399.652 536.321 400.563 533.398 400.593C531.756 400.61 529.56 400.356 527.237 399.284C526.029 398.727 524.956 398.026 524.02 397.229C523.817 397.385 523.609 397.548 523.396 397.718C521.296 399.4 519.243 401.388 517.594 403.218C516.129 404.843 515.418 405.862 515.227 406.135C515.177 406.206 515.163 406.226 515.18 406.194C514.846 406.836 514.467 407.441 514.049 408.006C515.716 410.251 516.702 413.033 516.702 416.044C516.702 416.846 516.686 417.643 516.654 418.434L516.753 418.581C516.823 418.686 516.895 418.791 516.967 418.897C520.115 423.495 524.065 427.84 527.423 431.069C528.984 432.57 530.569 433.375 534.126 435.182C534.768 435.509 535.475 435.868 536.258 436.27C537.079 436.691 537.957 437.152 538.873 437.664C542.046 435.07 546.278 433.589 550.51 433.902C558.635 434.503 564.885 441.715 564.26 450.128C563.635 453.734 561.76 485.585 603.01 500.609C613.01 500.609 623.635 496.403 631.135 489.191C639.885 480.778 644.26 468.758 643.635 456.138ZM643.31 314.897C669.816 314.745 686.44 313.01 699.26 295.079C699.26 295.079 699.885 295.079 699.885 294.478C714.26 259.021 712.385 198.324 694.26 163.468C688.01 150.847 679.26 142.434 671.76 141.232C663.635 140.03 658.635 132.217 659.26 125.006C659.885 112.987 656.135 100.967 646.76 91.9527C637.385 83.5392 624.885 78.1305 611.135 77.5296C604.885 90.1498 592.385 119.597 598.635 145.439C601.76 158.059 604.26 170.679 604.885 182.699C615.51 186.304 624.885 192.314 631.76 201.329C653.01 227.17 647.385 266.233 646.76 270.44C645.453 275.467 642.02 279.618 637.519 281.671C637.797 282.401 638.086 283.162 638.387 283.962C640.567 289.752 643.31 297.503 643.31 306.3V314.897ZM615.868 258.566C609.768 260.653 605.871 266.885 606.925 273.468C607.993 280.146 610.454 286.539 612.307 291.351C612.477 291.795 612.643 292.224 612.802 292.64C612.911 292.925 613.017 293.204 613.119 293.475C615.236 299.099 616.31 302.828 616.31 306.3V315.128C613.409 315.215 610.449 315.339 607.385 315.512C572.755 318.579 551.413 343.686 542.148 357.998C542.054 358.137 541.963 358.279 541.875 358.422C541.197 359.481 540.587 360.477 540.044 361.396C539.797 361.645 539.513 361.918 539.194 362.215C538.248 363.093 537.212 363.959 536.285 364.672C535.406 365.348 534.895 365.679 534.794 365.744L534.779 365.754L534.777 365.756C533.594 366.425 532.545 367.189 531.621 368.02C526.366 366.953 521.508 368.253 518.389 369.472C513.893 371.23 509.782 374.029 506.516 376.646C503.709 378.894 501.09 381.361 498.851 383.722C497.651 381.325 496.27 379.176 494.918 377.326C491.137 372.151 486.436 367.739 482.237 364.509C480.578 363.233 477.272 360.503 474.421 357.559C472.99 356.081 471.929 354.811 471.274 353.851C471.223 353.777 471.178 353.709 471.137 353.646C471.123 353.624 471.109 353.603 471.096 353.583C471.081 353.56 471.067 353.537 471.053 353.516L471.029 353.476L471.003 353.434C470.403 350.684 468.986 348.287 467.044 346.47C465.609 342.223 462.139 338.553 457.385 337.147C456.76 337.147 419.26 323.926 409.885 292.675C449.254 291.752 469.445 269.551 477.541 250.045C483.273 248.742 487.619 243.791 488.008 237.763L488.031 237.734C488.785 236.774 490.019 235.651 492.575 233.474C492.693 233.373 492.815 233.27 492.94 233.163C495.06 231.362 498.224 228.673 500.82 225.49C501.1 225.147 501.379 224.791 501.657 224.421C502.942 226.824 504.281 229.312 505.709 231.907C509.913 239.542 515.445 245.234 524.018 247.32C527.524 248.173 530.908 248.246 533.492 248.227C534.627 248.22 535.826 248.188 536.933 248.159L536.935 248.159L537.482 248.145C538.792 248.112 540.074 248.084 541.424 248.084C545.224 248.084 548.658 246.513 551.111 243.986C552.42 243.955 554.133 243.837 555.51 243.396C578.01 234.983 591.135 224.766 598.01 212.747C601.76 213.949 604.26 216.353 606.76 219.357C615.185 229.842 616.144 247.506 615.868 258.566ZM534.923 469.224C533.146 468.25 531.562 466.86 530.329 465.081C529.088 463.29 527.533 462.141 523.926 460.289C523.517 460.079 523.048 459.847 522.531 459.591C519.078 457.881 513.457 455.097 508.709 450.531C508.386 450.22 508.056 449.9 507.722 449.571C505.214 454.55 502.504 459.12 500.046 463.264L500.045 463.265L500.044 463.267L500.043 463.269L500.043 463.27C499.385 464.378 498.746 465.456 498.133 466.503C494.504 472.706 486.692 474.942 480.369 471.724C479.99 471.751 479.619 471.763 479.26 471.763C473.635 471.763 469.26 468.758 466.135 464.552C465.51 463.35 450.51 442.917 404.885 451.33C400.51 471.162 403.01 487.388 412.385 498.807C424.885 514.432 449.885 521.643 487.385 521.643C520.51 521.643 545.51 519.84 564.885 514.432C547.162 500.799 538.374 483.825 534.923 469.224ZM485.003 410.607C485.498 415.288 486.937 419.774 488.809 423.882C487.723 428.671 485.698 433.382 483.013 438.501C469.394 426.96 440.629 412.04 389.26 423.686C375.253 426.38 362.753 427.624 351.76 428.719L351.744 428.721C350.48 428.847 349.235 428.971 348.01 429.095C314.885 391.234 338.635 364.19 341.76 361.185C343.382 359.626 344.54 357.824 345.258 355.916C347.667 353.886 350.399 351.409 352.543 348.786C355.15 345.595 358.17 342.516 361.75 338.873L361.831 338.791L361.832 338.79C365.238 335.324 369.157 331.337 372.732 326.945C374.277 325.046 376.167 323.45 379.122 320.956L379.123 320.956L379.125 320.954C379.775 320.405 380.477 319.813 381.237 319.164C382.555 318.041 384.099 316.706 385.691 315.144C402.314 346.313 436.654 360.766 444.541 364.086C445.427 364.459 445.979 364.691 446.135 364.791C446.271 364.857 446.415 364.915 446.566 364.967C447.358 366.598 448.233 367.989 448.979 369.081C450.814 371.767 453.006 374.257 455.025 376.342C459.073 380.522 463.459 384.129 465.774 385.91C468.456 387.972 471.186 390.612 473.117 393.254C474.065 394.552 474.676 395.654 475.027 396.508C475.342 397.274 475.367 397.644 475.369 397.672L475.369 397.674V397.668C475.369 403.781 479.431 408.944 485.003 410.607ZM319.26 340.152C321.275 338.214 323.853 336.893 326.618 336.272C329.083 334.253 330.514 333.074 331.635 331.702C335.067 327.503 338.871 323.632 342.204 320.242L342.494 319.947C346.051 316.328 349.114 313.19 351.791 309.901C355.104 305.83 359.33 302.297 362.294 299.817L362.298 299.814C362.815 299.382 363.293 298.982 363.722 298.617C367.272 295.591 368.723 293.961 369.395 292.67C370.179 291.162 371.208 289.864 372.409 288.799C367.223 287.888 362.124 286.976 357.385 286.065C355.948 285.828 354.53 285.591 353.129 285.357L353.11 285.354C333.182 282.025 316.567 279.25 296.135 284.863C248.01 298.084 231.135 331.738 225.51 346.762L225.476 347.087C224.749 353.984 220.977 389.76 248.635 409.263C251.135 410.465 253.635 412.868 254.26 415.873C260.51 432.099 273.01 438.109 283.01 441.114C294.26 444.119 307.385 443.518 318.01 439.912C284.885 396.041 303.01 355.777 319.26 340.152ZM544.26 215.151C541.186 216.382 538.532 218.522 536.686 221.157L536.189 221.17C535.065 221.199 534.16 221.222 533.303 221.228C531.979 221.237 531.229 221.193 530.818 221.149L530.79 221.114L530.763 221.08L530.729 221.038L530.693 220.992C530.673 220.966 530.653 220.939 530.631 220.91C530.322 220.499 529.897 219.857 529.361 218.885C527.909 216.246 526.46 213.528 524.982 210.757C519.998 201.407 514.691 191.451 507.828 181.906C507.717 181.034 507.584 180.165 507.426 179.305C507.345 178.867 507.253 178.406 507.147 177.927C511.248 173.215 512.278 166.149 509.26 159.862C498.635 144.237 468.635 117.193 425.51 117.193C426.31 107.191 425.574 98.1742 424.94 92.5067C425.594 90.1986 426.233 87.8739 426.847 85.5401C429.017 77.281 430.927 68.6669 432.046 59.8242C434.183 57.436 435.482 54.2828 435.482 50.8261L435.482 50.6201C435.483 48.8316 435.485 45.9889 434.823 43.0329C434.035 39.5106 432.538 36.6146 430.688 33.9463C429.928 32.8501 429.034 31.9013 428.045 31.1066C439.406 32.4267 450.313 34.8002 458.635 39.0677C461.76 40.2697 465.51 41.4716 469.26 40.2697C513.635 31.8562 563.635 48.6832 582.385 65.5102C573.635 81.7363 559.26 118.395 567.385 152.65C576.76 192.915 578.01 203.131 544.26 215.151ZM412.92 29.902C403.708 29.4523 394.816 29.4523 387.385 29.4523H378.635H375.51C358.635 28.8513 318.01 28.8513 299.885 40.8706C328.635 87.145 301.76 120.198 283.635 142.434C282.073 144.537 280.355 146.79 278.636 149.043L278.635 149.044C276.916 151.298 275.197 153.552 273.635 155.655C261.24 173.022 261.888 185.758 265.461 194.082C267.745 195.866 269.46 198.381 270.222 201.334C270.52 201.681 271.008 202.186 271.736 202.823C273.733 204.566 276.298 206.227 278.132 207.265C283.531 210.318 286.788 215.578 288.342 218.234C289.301 219.872 290.14 221.494 290.798 222.787C290.913 223.013 291.02 223.224 291.12 223.422L291.284 223.745L291.285 223.747C291.736 224.637 292.043 225.243 292.336 225.775C293.477 227.847 294.401 229.632 295.244 231.258L295.246 231.262L295.247 231.266L295.248 231.266L295.248 231.267C296.297 233.292 297.219 235.072 298.274 236.858C299.037 235.234 300.136 233.42 301.709 231.739C303.285 230.055 304.92 228.86 306.236 228.022C307.451 227.247 308.638 226.629 309.309 226.28L309.386 226.24L309.621 226.117C309.708 226.072 309.784 226.032 309.854 225.996C311.574 224.139 313.47 222.557 314.895 221.404C315.69 220.761 316.521 220.109 317.272 219.519L317.273 219.518L317.278 219.514L317.282 219.511L317.608 219.255C318.481 218.569 319.264 217.95 320.004 217.341C321.544 216.074 322.489 215.177 323.043 214.53C323.065 214.504 323.085 214.48 323.105 214.457C323.591 212.903 324.34 211.491 325.289 210.261C319.44 174.162 346.991 158.033 371.888 143.457L372.362 143.18C372.787 142.931 373.211 142.682 373.635 142.434C374.677 141.833 375.718 141.165 376.76 140.497C378.843 139.162 380.927 137.826 383.01 137.025C386.948 134.591 389.651 131.031 391.477 126.975C389.506 123.871 388.803 119.977 389.856 116.152C391.349 110.726 392.985 105.271 394.588 99.9457C394.195 95.8467 393.635 93.1546 393.635 93.1546C392.604 86.2128 395.401 79.271 401.326 76.3797C404.2 65.0409 406.093 54.3128 406.093 43.9352C406.093 43.5514 406.109 43.1714 406.141 42.7957C405.744 38.1362 407.783 33.3996 411.901 30.544C412.234 30.313 412.574 30.0991 412.92 29.902ZM469.809 217.678C471.622 215.851 473.438 214.305 474.805 213.143L474.805 213.143L475.07 212.917C477.65 210.72 478.996 209.529 479.897 208.425C480.038 208.251 480.136 208.118 480.202 208.023C480.314 206.313 480.466 204.599 480.622 202.844L480.623 202.843L480.623 202.842L480.623 202.841L480.623 202.84L480.623 202.839L480.623 202.838L480.623 202.837L480.623 202.836L480.624 202.829C480.942 199.253 481.275 195.507 481.316 191.282C481.345 188.277 481.186 185.894 480.875 184.213C480.789 183.744 480.706 183.417 480.645 183.207C477.812 179.611 477.078 174.944 478.382 170.799C469.559 161.005 448.216 143.027 414.885 148.443C411.135 153.852 406.135 159.261 399.26 162.867C398.218 163.468 397.176 164.135 396.135 164.803C394.051 166.139 391.968 167.474 389.885 168.275C363.01 183.9 353.635 190.511 356.76 206.737C357.774 213.561 354.676 219.989 348.801 222.816C347.608 226.824 345.398 229.933 343.556 232.086C341.469 234.524 339.097 236.596 337.161 238.19C336.244 238.944 334.71 240.154 333.495 241.113C332.785 241.672 332.184 242.146 331.877 242.395C331.161 242.974 330.62 243.433 330.206 243.812C329.814 244.171 329.657 244.347 329.641 244.365L329.64 244.366C327.979 246.363 326.164 247.671 324.894 248.479C323.994 249.052 323.072 249.551 322.424 249.892C322.179 250.658 321.83 251.588 321.333 252.584C335.761 252.623 349.313 255.094 362.443 257.488L362.444 257.488L362.445 257.489C363.051 257.599 363.656 257.709 364.26 257.819C365.913 258.122 367.575 258.434 369.25 258.749C380.877 260.932 393.102 263.228 406.76 263.228C444.97 263.228 450.972 234.011 451.731 230.316L451.76 230.175C452.385 221.761 459.885 216.954 468.635 217.555C469.034 217.582 469.425 217.623 469.809 217.678ZM264.885 232.579C265.067 232.579 265.251 232.575 265.435 232.566C265.847 233.307 266.271 234.122 266.735 235.034C266.837 235.234 266.946 235.45 267.062 235.678C267.551 236.645 268.144 237.816 268.684 238.798C269.18 239.699 269.779 240.847 270.455 242.146C272.261 245.613 274.622 250.146 277.071 253.869C278.267 255.687 279.632 257.57 281.206 259.42C249.843 269.573 229.529 287.352 216.76 304.094C206.76 290.872 191.76 282.459 179.26 275.848C170.51 271.642 162.385 266.834 156.76 260.824C147.598 252.014 151.756 236.801 155.55 227.629C161.531 224.108 165.043 219.034 167.26 215.145C168.368 213.202 169.324 211.234 170.061 209.717L170.061 209.716L170.141 209.552C170.964 207.859 171.528 206.714 172.094 205.734C172.595 204.868 173.189 203.914 173.967 202.665L173.968 202.664L173.968 202.664L174.341 202.064C175.24 200.62 176.313 198.882 177.327 197.068C179.084 193.924 181.877 188.529 182.241 182.578C182.332 181.081 182.665 180.119 183.585 178.376C183.724 178.111 183.927 177.751 184.175 177.309L184.179 177.302L184.179 177.302C184.397 176.914 184.65 176.465 184.925 175.964C186.063 176.485 187.478 177.191 189.251 178.138C189.674 178.364 190.133 178.614 190.624 178.88C194.872 181.188 201.499 184.789 208.378 185.991C211.383 186.517 214.046 187.662 218.359 189.517L218.368 189.521L218.404 189.536L218.41 189.539L218.437 189.551L218.46 189.561C219.036 189.808 219.641 190.069 220.281 190.342C223.471 191.704 227.555 193.387 232.328 194.388C235.786 211.024 246.335 223.272 255.51 229.574C258.635 231.978 261.76 232.579 264.885 232.579ZM194.377 150.614C195.124 147.228 194.707 143.622 193.01 140.631C191.76 138.227 169.885 100.967 131.135 90.1498C136.76 75.7267 158.01 61.9044 189.26 52.89C229.26 40.8706 261.135 43.8755 268.01 49.2842C291.76 82.3373 277.385 100.967 258.635 124.405C255.901 128.348 253.167 131.653 250.19 135.25L250.19 135.251L250.19 135.251C249.084 136.587 247.945 137.964 246.76 139.429C240.025 149.013 235.787 158.095 233.457 166.567C232.674 166.262 231.822 165.911 230.884 165.511C230.386 165.298 229.849 165.064 229.277 164.814C225.233 163.049 219.422 160.512 213.028 159.395C210.709 158.989 207.989 157.536 202.17 154.428L201.971 154.322L201.742 154.2C199.805 153.164 197.289 151.82 194.377 150.614ZM165.405 154.6L165.523 154.775C164.525 155.984 163.721 157.388 163.177 158.956C162.691 160.359 162.249 161.148 161.414 162.642L161.414 162.642C160.974 163.428 160.425 164.41 159.703 165.78C157.79 169.406 155.765 174.103 155.312 180.61C155.285 180.701 155.234 180.853 155.149 181.072C154.885 181.749 154.441 182.674 153.759 183.895C153.082 185.105 152.305 186.372 151.417 187.799C151.318 187.959 151.216 188.123 151.111 188.291L151.081 188.339L151.079 188.342C150.327 189.548 149.461 190.937 148.716 192.227C147.824 193.771 147.025 195.36 146.362 196.713C139.694 195.104 133.74 197.808 130.51 203.131C127.224 208.707 123.759 215.95 121.297 224.024C120.44 226.058 119.805 228.295 119.523 230.737L119.514 230.819L119.508 230.866L119.501 230.941C115.96 247.505 117.516 266.358 133.01 281.257C141.76 289.671 152.385 295.68 162.385 300.488C183.01 311.906 194.885 319.118 194.885 338.349C191.135 340.753 179.26 346.762 145.51 342.556H145.51C143.01 342.556 141.76 342.556 139.26 343.156C110.51 351.57 78.0099 340.152 54.8849 315.512C32.3849 290.872 26.7599 259.622 39.8849 231.978C41.1349 228.372 41.1349 224.766 39.8849 220.559C28.0099 190.511 39.2599 165.872 50.5099 149.645C60.5099 135.222 74.2599 124.405 86.1349 116.592C89.8849 118.996 93.6349 119.597 98.6349 118.996C135.299 110.043 160.583 147.464 165.405 154.6L165.405 154.6ZM269.935 200.97C269.905 200.926 269.892 200.905 269.894 200.905C269.895 200.905 269.91 200.927 269.935 200.97ZM323.296 214.212C323.316 214.182 323.325 214.168 323.324 214.168C323.324 214.168 323.321 214.171 323.317 214.178L323.309 214.189L323.296 214.212ZM480.314 207.845C480.319 207.836 480.321 207.832 480.321 207.832C480.32 207.832 480.32 207.834 480.318 207.837L480.314 207.845ZM470.852 353.171C470.833 353.134 470.825 353.116 470.826 353.116C470.827 353.116 470.836 353.134 470.852 353.171ZM528.572 394.501C528.57 394.504 528.522 394.521 528.433 394.54C528.481 394.524 528.517 394.513 528.539 394.507C528.562 394.501 528.573 394.5 528.572 394.501ZM480.546 182.908C480.544 182.903 480.543 182.9 480.543 182.9C480.543 182.9 480.544 182.904 480.548 182.912L480.546 182.908Z" fill="#C6BBBB"/>
</g>
<g filter="url(#filter1_b_0_1)">
<path d="M124.834 238.376C99.0072 313.427 322.002 333.295 124.834 349.509C40.9963 356.403 21 289.853 21 207.586C21 154.446 71.5634 108 124.834 108C208.813 171.381 150.661 163.326 124.834 238.376Z" fill="#8B0000"/>
</g>
<g filter="url(#filter2_b_0_1)">
<path d="M287.855 253.06C283.328 272.042 249.626 259.793 217.434 305C185.241 271.335 147 286 147 226C153.036 196.182 170.655 228.081 183.792 176.584C189.19 155.423 292.382 234.077 287.855 253.06Z" fill="#FFA500"/>
</g>
<g filter="url(#filter3_b_0_1)">
<path d="M267.795 50.5047C310.625 90.2768 235.95 167 231.434 167C162.308 148.525 203.11 140.341 132.453 95.0907C122.366 88.6305 166.786 46.9521 204.105 46.9522C211.071 39.5485 267.795 43.5923 267.795 50.5047Z" fill="#0000FF"/>
</g>
<g filter="url(#filter4_b_0_1)">
<path d="M389.215 136.81C285.698 178.253 367.116 200.698 290.729 239C290.729 214.372 220.935 190.926 275 136.81C354.402 57.332 258.568 36.3926 323.894 29.2949C438.466 16.8465 423.391 -9.96503 389.215 136.81Z" fill="#0000FF"/>
</g>
<g filter="url(#filter5_b_0_1)">
<path d="M582.742 64.453C609.205 206.164 528.256 277.487 506.77 180.141C524.759 108.819 393.342 162.792 426.341 76.3751C454.99 1.35297 370.357 39.4237 489.768 33.5471C514.286 38.9119 551.762 36.5022 582.742 64.453Z" fill="#8B0000"/>
</g>
<g filter="url(#filter6_b_0_1)">
<path d="M699.003 176.175C737.703 279.969 731.032 293.446 668.476 314.569C605.92 335.691 651.84 255.257 607.422 183.863C584.401 146.862 601.416 74.3008 612.926 77.1841C664.973 54.1181 694.28 163.507 699.003 176.175Z" fill="#0000FF"/>
</g>
<g filter="url(#filter7_b_0_1)">
<path d="M484.295 169.586C504.832 210.983 434.206 262.969 414.17 264.894C387.06 264.894 319 267.051 319 251.898C319 236.744 345.547 172.474 419.179 146C446.289 146 484.295 154.433 484.295 169.586Z" fill="#0000FF"/>
</g>
<g filter="url(#filter8_b_0_1)">
<path d="M318.939 346.878C271.106 381.448 362.287 460.19 285.555 442.425C215.301 410.256 223.273 362.523 223.273 346.878C223.273 331.233 274.594 280.14 312.96 280.14C339.377 280.14 432.542 264.775 318.939 346.878Z" fill="#0000FF"/>
</g>
<g filter="url(#filter9_b_0_1)">
<path d="M624 320.71C521.156 333.747 580.74 355.476 500.127 383C454.563 341.473 410 316.364 410 293.669C494.619 272.422 469.584 179.228 541.685 248.762C651.84 132.873 604.973 320.71 624 320.71Z" fill="#FFA500"/>
</g>
<g filter="url(#filter10_b_0_1)">
<path d="M485.773 411.9C514.244 474.312 418.34 407.099 392.366 423.422C321.937 449.347 331.428 401.818 331.428 373.012C331.428 348.527 371.388 322.602 387.871 313C402.356 352.368 457.301 349.487 485.773 411.9Z" fill="#FFA500"/>
</g>
<g filter="url(#filter11_b_0_1)">
<path d="M696.828 372.802C679.391 421.508 628.16 539.953 584.5 504C540.84 468.047 524.451 427.295 511 409.453C526.444 394.503 588.719 335.67 626.582 342.421C649.001 356.406 733.695 296.126 696.828 372.802Z" fill="#0000FF"/>
</g>
<g filter="url(#filter12_b_0_1)">
<path d="M567.75 520.094C571.884 529.964 523.88 536 489.627 536C455.373 536 423.201 521.102 423.201 510.459C401.29 510.459 353.677 391.949 489.627 473.846C507.229 410.737 556.246 492.635 567.75 520.094Z" fill="#8B0000"/>
</g>
<g filter="url(#filter13_b_0_1)">
<mask id="path-14-inside-1_0_1" fill="white">
<path d="M618.595 424.834C620.542 423.853 623.244 423.003 623.244 423.003C623.244 423.003 615.555 424.029 607.906 424.497C598.548 425.069 588.495 425.186 583.448 424.688C571.507 423.516 590.005 420.279 590.005 420.279C590.005 420.279 582.832 419.927 573.991 423.062C563.56 426.783 599.82 428.482 618.595 424.834ZM601.628 420.132C597.853 413.877 585.117 408.384 601.628 398.775C622.223 386.793 611.661 379 611.661 379C615.933 391.378 596.641 395.128 589.667 402.818C584.918 408.077 591.991 413.716 601.628 420.132ZM624.397 394.322C624.417 394.322 589.587 400.738 606.217 414.859C611.125 419.019 604.926 422.769 604.926 422.769C604.926 422.769 617.383 418.023 611.661 412.09C606.317 406.553 602.224 403.799 624.397 394.322ZM623.185 433.946C623.076 434.085 622.943 434.213 622.787 434.326C648.279 429.39 638.901 416.91 626.721 420.074C626.064 420.252 625.495 420.574 625.092 420.997C625.803 420.807 626.534 420.66 627.278 420.557C633.437 419.605 642.278 426.636 623.185 433.946ZM632.555 443.071C632.555 443.071 635.436 444.815 629.396 446.177C617.892 448.74 581.553 449.517 571.459 446.279C567.824 445.122 574.638 443.496 576.784 443.159C579.009 442.808 580.301 442.866 580.301 442.866C576.268 440.772 554.214 446.983 569.095 448.755C609.674 453.618 643.085 446.572 632.555 443.071ZM588.137 437.007C572.501 440.23 597.654 446.88 617.562 440.596C615.62 440.04 613.746 439.364 611.959 438.574C603.078 439.82 598.965 439.907 590.899 439.234C584.243 438.677 588.137 437.007 588.137 437.007ZM623.86 451.245C608.224 453.413 588.932 453.164 577.507 451.772C577.507 451.758 579.852 453.193 591.892 453.765C610.211 454.629 638.344 453.281 639 446.895C639 446.895 637.728 449.312 623.86 451.245ZM615.198 430.708C603.436 432.378 596.621 432.334 588.018 431.675C581.362 431.162 585.713 428.789 585.713 428.789C568.467 433.008 595.29 437.783 619.39 432.583C617.832 432.178 616.405 431.539 615.198 430.708Z"/>
</mask>
<path d="M618.595 424.834C620.542 423.853 623.244 423.003 623.244 423.003C623.244 423.003 615.555 424.029 607.906 424.497C598.548 425.069 588.495 425.186 583.448 424.688C571.507 423.516 590.005 420.279 590.005 420.279C590.005 420.279 582.832 419.927 573.991 423.062C563.56 426.783 599.82 428.482 618.595 424.834ZM601.628 420.132C597.853 413.877 585.117 408.384 601.628 398.775C622.223 386.793 611.661 379 611.661 379C615.933 391.378 596.641 395.128 589.667 402.818C584.918 408.077 591.991 413.716 601.628 420.132ZM624.397 394.322C624.417 394.322 589.587 400.738 606.217 414.859C611.125 419.019 604.926 422.769 604.926 422.769C604.926 422.769 617.383 418.023 611.661 412.09C606.317 406.553 602.224 403.799 624.397 394.322ZM623.185 433.946C623.076 434.085 622.943 434.213 622.787 434.326C648.279 429.39 638.901 416.91 626.721 420.074C626.064 420.252 625.495 420.574 625.092 420.997C625.803 420.807 626.534 420.66 627.278 420.557C633.437 419.605 642.278 426.636 623.185 433.946ZM632.555 443.071C632.555 443.071 635.436 444.815 629.396 446.177C617.892 448.74 581.553 449.517 571.459 446.279C567.824 445.122 574.638 443.496 576.784 443.159C579.009 442.808 580.301 442.866 580.301 442.866C576.268 440.772 554.214 446.983 569.095 448.755C609.674 453.618 643.085 446.572 632.555 443.071ZM588.137 437.007C572.501 440.23 597.654 446.88 617.562 440.596C615.62 440.04 613.746 439.364 611.959 438.574C603.078 439.82 598.965 439.907 590.899 439.234C584.243 438.677 588.137 437.007 588.137 437.007ZM623.86 451.245C608.224 453.413 588.932 453.164 577.507 451.772C577.507 451.758 579.852 453.193 591.892 453.765C610.211 454.629 638.344 453.281 639 446.895C639 446.895 637.728 449.312 623.86 451.245ZM615.198 430.708C603.436 432.378 596.621 432.334 588.018 431.675C581.362 431.162 585.713 428.789 585.713 428.789C568.467 433.008 595.29 437.783 619.39 432.583C617.832 432.178 616.405 431.539 615.198 430.708Z" fill="white"/>
<path d="M618.595 424.834L630.418 485.697L638.84 484.061L646.502 480.199L618.595 424.834ZM623.244 423.003L641.841 482.149L615.049 361.547L623.244 423.003ZM607.906 424.497L611.684 486.382L611.691 486.382L611.698 486.381L607.906 424.497ZM583.448 424.688L589.537 362.988L589.52 362.986L589.504 362.984L583.448 424.688ZM590.005 420.279L600.693 481.351L593.04 358.353L590.005 420.279ZM573.991 423.062L553.272 364.626L553.217 364.646L553.161 364.666L573.991 423.062ZM601.628 420.132L567.267 471.74L654.709 388.096L601.628 420.132ZM601.628 398.775L570.449 345.185L570.441 345.19L601.628 398.775ZM611.661 379L648.471 329.11L487.993 210.706L553.053 399.226L611.661 379ZM589.667 402.818L543.739 361.169L543.695 361.218L543.651 361.266L589.667 402.818ZM624.397 394.322V332.322H611.702L600.029 337.312L624.397 394.322ZM606.217 414.859L566.087 462.119L566.106 462.136L566.126 462.153L606.217 414.859ZM604.926 422.769L572.835 369.72L626.999 480.707L604.926 422.769ZM611.661 412.09L656.286 369.048L656.278 369.04L656.27 369.032L611.661 412.09ZM623.185 433.946L601.018 376.043L584.867 382.226L574.249 395.876L623.185 433.946ZM622.787 434.326L586.246 384.239L634.575 495.196L622.787 434.326ZM626.721 420.074L611.132 360.066L610.82 360.147L610.509 360.231L626.721 420.074ZM625.092 420.997L580.221 378.211L428.123 537.724L641.077 480.901L625.092 420.997ZM627.278 420.557L635.763 481.974L636.257 481.905L636.75 481.829L627.278 420.557ZM632.555 443.071L652.115 384.238L600.459 496.117L632.555 443.071ZM629.396 446.177L642.881 506.693L642.959 506.675L643.037 506.658L629.396 446.177ZM571.459 446.279L590.395 387.242L590.329 387.221L590.263 387.2L571.459 446.279ZM576.784 443.159L586.401 504.409L586.43 504.404L586.459 504.4L576.784 443.159ZM580.301 442.866L577.491 504.803L608.877 387.844L580.301 442.866ZM569.095 448.755L576.473 387.195L576.45 387.193L576.428 387.19L569.095 448.755ZM588.137 437.007L612.572 493.989L575.622 376.283L588.137 437.007ZM617.562 440.596L636.225 499.72L832.663 437.714L634.634 380.993L617.562 440.596ZM611.959 438.574L637.004 381.858L620.845 374.722L603.351 377.175L611.959 438.574ZM590.899 439.234L585.732 501.018L585.738 501.018L590.899 439.234ZM623.86 451.245L632.375 512.658L632.398 512.654L632.422 512.651L623.86 451.245ZM577.507 451.772H515.507V506.679L570.011 513.318L577.507 451.772ZM591.892 453.765L588.954 515.695L588.962 515.695L588.97 515.696L591.892 453.765ZM639 446.895L700.676 453.226L584.13 418.027L639 446.895ZM615.198 430.708L650.353 379.639L630.43 365.924L606.483 369.324L615.198 430.708ZM588.018 431.675L583.256 493.492L583.269 493.493L583.281 493.494L588.018 431.675ZM585.713 428.789L615.398 483.221L570.981 368.565L585.713 428.789ZM619.39 432.583L632.467 493.189L635.01 372.583L619.39 432.583ZM646.502 480.199C645.178 480.866 644.203 481.277 643.806 481.441C643.344 481.632 643.028 481.749 642.89 481.799C642.733 481.856 642.601 481.902 642.473 481.945C642.403 481.968 642.319 481.996 642.219 482.028C642.168 482.045 642.111 482.063 642.049 482.083C642.018 482.093 641.985 482.103 641.95 482.114C641.933 482.12 641.915 482.125 641.897 482.131C641.888 482.134 641.879 482.137 641.869 482.14C641.865 482.141 641.86 482.143 641.855 482.144C641.853 482.145 641.849 482.146 641.848 482.146C641.844 482.148 641.841 482.149 623.244 423.003C604.648 363.858 604.644 363.859 604.641 363.86C604.639 363.861 604.636 363.862 604.633 363.863C604.628 363.864 604.623 363.866 604.618 363.867C604.608 363.87 604.598 363.874 604.588 363.877C604.567 363.883 604.545 363.89 604.523 363.897C604.478 363.912 604.43 363.927 604.378 363.943C604.275 363.976 604.159 364.014 604.03 364.055C603.774 364.138 603.465 364.24 603.111 364.358C602.415 364.591 601.485 364.91 600.41 365.303C598.696 365.927 594.884 367.355 590.689 369.47L646.502 480.199ZM623.244 423.003C615.049 361.547 615.051 361.547 615.053 361.547C615.054 361.547 615.056 361.546 615.057 361.546C615.06 361.546 615.062 361.546 615.064 361.545C615.069 361.545 615.074 361.544 615.077 361.544C615.085 361.543 615.091 361.542 615.095 361.541C615.104 361.54 615.105 361.54 615.1 361.541C615.09 361.542 615.054 361.547 614.993 361.554C614.87 361.57 614.65 361.598 614.348 361.635C613.74 361.71 612.82 361.82 611.7 361.942C609.363 362.198 606.592 362.462 604.114 362.614L611.698 486.381C616.869 486.064 621.768 485.581 625.187 485.207C626.945 485.014 628.426 484.838 629.499 484.706C630.037 484.64 630.478 484.584 630.806 484.542C630.97 484.521 631.106 484.503 631.212 484.489C631.265 484.482 631.311 484.476 631.349 484.471C631.368 484.469 631.385 484.467 631.4 484.465C631.408 484.464 631.415 484.463 631.421 484.462C631.425 484.461 631.428 484.461 631.431 484.46C631.433 484.46 631.435 484.46 631.436 484.46C631.438 484.46 631.44 484.459 623.244 423.003ZM604.128 362.613C600.457 362.837 596.682 362.968 593.508 362.996C591.93 363.01 590.687 362.997 589.81 362.973C588.799 362.944 588.808 362.916 589.537 362.988L577.359 486.388C587.569 487.396 601.718 486.991 611.684 486.382L604.128 362.613ZM589.504 362.984C589.755 363.009 590.621 363.098 591.9 363.315C592.999 363.501 595.592 363.975 598.931 365.027C601.266 365.763 609.331 368.363 617.85 375.036C622.471 378.655 629.099 384.926 634.248 394.638C639.802 405.116 642.547 417.65 641.012 430.73C639.565 443.064 634.742 452.396 630.676 458.339C626.666 464.199 622.445 468.18 619.668 470.525C614.333 475.028 609.508 477.491 607.692 478.386C603.679 480.365 600.596 481.267 600.347 481.344C599.145 481.71 598.861 481.725 599.923 481.504C600.235 481.44 600.516 481.385 600.701 481.35C600.788 481.334 600.839 481.325 600.843 481.324C600.845 481.324 600.835 481.325 600.81 481.33C600.798 481.332 600.782 481.335 600.763 481.338C600.753 481.34 600.742 481.342 600.731 481.344C600.725 481.345 600.719 481.346 600.713 481.347C600.709 481.348 600.704 481.348 600.703 481.349C600.698 481.35 600.693 481.351 590.005 420.279C579.316 359.207 579.311 359.208 579.306 359.209C579.304 359.209 579.299 359.21 579.295 359.211C579.288 359.212 579.28 359.213 579.272 359.215C579.256 359.218 579.238 359.221 579.22 359.224C579.182 359.231 579.14 359.238 579.093 359.246C579 359.263 578.887 359.283 578.756 359.307C578.496 359.354 578.161 359.416 577.765 359.49C576.985 359.637 575.915 359.844 574.679 360.101C572.646 360.524 568.484 361.421 564.15 362.744C562.335 363.298 557.873 364.697 552.858 367.169C550.542 368.311 545.31 371.021 539.687 375.767C535.728 379.108 520.661 392.384 517.857 416.279C514.386 445.863 531.708 465.073 541.388 472.655C550.188 479.548 558.699 482.36 561.672 483.297C568.647 485.494 574.886 486.145 577.393 486.391L589.504 362.984ZM590.005 420.279C593.04 358.353 593.025 358.352 593.01 358.352C593.005 358.351 592.99 358.351 592.979 358.35C592.959 358.349 592.939 358.348 592.918 358.347C592.877 358.345 592.835 358.343 592.793 358.341C592.708 358.338 592.622 358.334 592.533 358.33C592.355 358.323 592.168 358.316 591.972 358.309C591.581 358.297 591.154 358.286 590.693 358.278C589.772 358.263 588.71 358.261 587.521 358.285C585.151 358.332 582.219 358.479 578.847 358.833C572.207 359.529 563.253 361.088 553.272 364.626L594.709 481.498C593.57 481.902 592.622 482.068 591.78 482.157C591.306 482.206 590.719 482.246 589.971 482.261C589.592 482.268 589.159 482.27 588.665 482.261C588.418 482.257 588.153 482.251 587.872 482.242C587.731 482.237 587.585 482.232 587.435 482.225C587.36 482.222 587.283 482.219 587.206 482.216C587.167 482.214 587.128 482.212 587.088 482.21C587.069 482.209 587.049 482.208 587.029 482.207C587.019 482.207 587.004 482.206 586.999 482.206C586.984 482.205 586.969 482.204 590.005 420.279ZM553.161 364.666C550.543 365.6 543.786 368.109 536.57 373.254C532.341 376.27 507.708 394.479 510.319 429.028C512.785 461.665 537.588 476.234 541.113 478.315C548.192 482.492 554.578 484.388 557.146 485.109C566.989 487.875 577.581 488.435 582.681 488.654C595.419 489.201 614.485 488.792 630.418 485.697L606.772 363.972C603.93 364.524 595.478 365.089 588 364.768C582.991 364.553 585.302 364.218 590.693 365.734C592.148 366.142 597.66 367.703 604.136 371.525C607.059 373.249 631.53 387.443 633.966 419.684C636.547 453.837 612.186 471.631 608.562 474.216C601.952 478.929 596.135 480.989 594.82 481.458L553.161 364.666ZM654.709 388.096C651.486 382.755 648.142 378.815 646.357 376.792C644.696 374.91 642.73 372.875 642.672 372.815C640.293 370.31 645.947 375.515 650.038 384.141C652.588 389.516 655.303 397.585 655.375 407.666C655.449 418.097 652.663 427.437 648.589 434.924C644.787 441.91 640.394 446.352 637.787 448.655C635.149 450.986 633.18 452.147 632.814 452.36L570.441 345.19C562.913 349.571 548.856 358.777 539.674 375.649C527.638 397.765 530.145 420.716 538.003 437.282C543.686 449.265 552.199 457.616 552.754 458.201C556.592 462.242 551.979 457.857 548.546 452.169L654.709 388.096ZM632.806 452.365C647.996 443.528 677.101 422.044 676.356 383.206C676.013 365.293 668.908 351.87 663.108 343.906C660.173 339.876 657.228 336.74 654.809 334.439C653.576 333.266 652.412 332.245 651.36 331.372C650.831 330.934 650.324 330.527 649.843 330.151C649.602 329.964 649.367 329.783 649.139 329.609C649.024 329.523 648.912 329.438 648.8 329.354C648.745 329.313 648.689 329.272 648.635 329.231C648.607 329.211 648.566 329.18 648.553 329.17C648.512 329.14 648.471 329.11 611.661 379C574.851 428.89 574.811 428.86 574.77 428.83C574.756 428.82 574.716 428.79 574.689 428.77C574.634 428.73 574.58 428.689 574.526 428.648C574.417 428.567 574.308 428.485 574.199 428.402C573.98 428.236 573.76 428.067 573.538 427.894C573.096 427.549 572.646 427.187 572.19 426.809C571.282 426.056 570.325 425.214 569.34 424.278C567.418 422.449 565.138 420.016 562.871 416.903C558.408 410.775 552.656 400.05 552.379 385.583C552.087 370.355 557.996 358.834 563.212 352.224C567.789 346.424 571.647 344.488 570.449 345.185L632.806 452.365ZM553.053 399.226C551.021 393.339 549.661 385.702 550.546 376.994C551.434 368.255 554.337 360.852 557.731 355.149C560.952 349.74 564.403 346.191 566.478 344.286C568.556 342.377 570.139 341.314 570.452 341.105C570.779 340.886 570.719 340.946 569.618 341.588C569.155 341.857 566.541 343.357 564.85 344.367C562.798 345.593 559.689 347.505 556.33 349.947C553.022 352.352 548.386 356.045 543.739 361.169L635.595 444.467C630.614 449.959 626.036 452.256 628.442 450.819C629.474 450.202 629.687 450.1 632.016 448.744C633.706 447.76 636.402 446.17 639.31 444.229C644.031 441.077 655.727 432.948 664.283 418.575C674.984 400.598 677.261 379.033 670.269 358.774L553.053 399.226ZM543.651 361.266C532.707 373.386 524.208 391.667 526.527 413.413C528.508 431.998 537.625 444.705 542.527 450.617C551.634 461.6 563.618 469.31 567.267 471.74L635.989 368.525C635.05 367.9 634.357 367.427 633.832 367.057C633.3 366.683 633.091 366.521 633.108 366.534C633.108 366.534 633.563 366.885 634.297 367.559C635 368.205 636.358 369.511 637.979 371.466C640.502 374.508 648.138 384.419 649.828 400.266C651.855 419.276 644.252 434.88 635.683 444.37L543.651 361.266ZM624.397 456.322C562.898 402.186 610.041 334.007 611.293 333.723C611.627 333.651 612.107 333.552 612.253 333.523C612.462 333.481 612.63 333.449 612.632 333.449C612.688 333.438 612.75 333.426 612.706 333.434C612.671 333.441 612.593 333.456 612.494 333.475C612.294 333.514 612.044 333.563 611.749 333.623C611.162 333.741 610.42 333.896 609.551 334.088C607.835 334.468 605.525 335.015 602.853 335.746C598.124 337.041 589.704 339.592 580.978 344.029C576.568 346.271 570.329 349.866 564.043 355.318C557.958 360.596 548.923 370.133 543.674 384.793C537.809 401.171 538.632 418.573 545.034 433.865C550.737 447.487 559.623 456.631 566.087 462.119L646.348 367.598C648.654 369.557 654.991 375.411 659.415 385.98C664.538 398.217 665.354 412.801 660.416 426.593C656.093 438.665 648.918 445.846 645.29 448.993C641.461 452.314 638.275 454.004 637.179 454.561C635.079 455.629 634.323 455.694 635.599 455.344C635.93 455.254 636.208 455.189 636.327 455.163C636.376 455.152 636.364 455.155 636.278 455.172C636.232 455.182 636.174 455.193 636.105 455.207C636.088 455.21 636.073 455.213 636.06 455.215C636.047 455.218 636.037 455.22 636.039 455.219C636.04 455.219 636.042 455.219 636.045 455.218C636.048 455.218 636.055 455.216 636.06 455.215C636.068 455.214 636.105 455.207 636.15 455.198C636.156 455.197 636.327 455.164 636.538 455.122C636.685 455.092 637.166 454.993 637.5 454.922C638.752 454.637 685.896 386.458 624.397 332.322V456.322ZM566.126 462.153C558.835 455.972 548.675 443.7 546.501 425.015C544.423 407.156 550.874 393.673 555.248 386.864C559.533 380.194 564.157 376.114 566.341 374.31C567.666 373.216 568.879 372.324 569.902 371.616C570.426 371.254 570.931 370.918 571.414 370.607C571.656 370.451 571.896 370.299 572.132 370.152C572.25 370.078 572.368 370.005 572.485 369.934C572.543 369.898 572.602 369.862 572.66 369.826C572.689 369.809 572.718 369.791 572.747 369.773C572.762 369.764 572.784 369.751 572.791 369.747C572.813 369.733 572.835 369.72 604.926 422.769C637.017 475.818 637.039 475.804 637.061 475.791C637.068 475.787 637.09 475.773 637.105 475.764C637.134 475.747 637.164 475.728 637.194 475.71C637.254 475.674 637.314 475.637 637.376 475.599C637.499 475.523 637.625 475.445 637.755 475.364C638.014 475.202 638.288 475.029 638.575 474.844C639.146 474.476 639.78 474.056 640.463 473.583C641.806 472.654 643.465 471.436 645.294 469.926C648.487 467.289 654.355 462.012 659.576 453.884C664.886 445.618 671.966 430.416 669.67 410.685C667.279 390.127 656.053 375.826 646.308 367.565L566.126 462.153ZM604.926 422.769C626.999 480.707 627.015 480.701 627.031 480.694C627.037 480.692 627.053 480.686 627.064 480.682C627.086 480.673 627.108 480.665 627.131 480.656C627.176 480.639 627.222 480.621 627.27 480.603C627.364 480.566 627.463 480.528 627.567 480.487C627.774 480.406 627.999 480.317 628.24 480.22C628.722 480.025 629.278 479.795 629.897 479.53C631.115 479.007 632.672 478.305 634.444 477.422C637.532 475.883 643.25 472.826 649.278 467.982C653.946 464.23 667.037 453.017 672.665 433.197C680.14 406.871 670.084 383.354 656.286 369.048L567.036 455.132C562.469 450.397 556.795 442.738 553.576 431.89C550.215 420.562 550.572 409.216 553.38 399.327C556.003 390.089 560.338 383.494 563.478 379.537C566.652 375.537 569.695 372.858 571.6 371.327C575.229 368.411 578.191 366.911 579.122 366.447C579.815 366.102 580.443 365.817 581.003 365.577C581.292 365.453 581.586 365.331 581.888 365.209C582.04 365.148 582.196 365.086 582.356 365.023C582.436 364.992 582.517 364.96 582.6 364.928C582.641 364.912 582.683 364.896 582.725 364.88C582.746 364.872 582.767 364.864 582.789 364.856C582.799 364.852 582.815 364.845 582.821 364.843C582.837 364.837 582.853 364.831 604.926 422.769ZM656.27 369.032C655.816 368.562 655.17 367.902 655.094 367.823C654.853 367.575 654.951 367.672 655.164 367.902C655.369 368.123 657.516 370.39 659.887 373.953C662.294 377.568 666.53 384.851 668.455 395.223C670.577 406.657 669.233 418.338 664.849 428.748C660.879 438.175 655.413 444.233 652.228 447.3C648.99 450.42 646.312 452.166 645.454 452.71C643.919 453.681 644.254 453.26 648.765 451.333L600.029 337.312C593.453 340.122 585.985 343.6 579.148 347.926C574.412 350.923 558.88 360.888 550.57 380.62C538.986 408.128 549.365 431.697 556.669 442.669C559.829 447.416 562.999 450.882 564.365 452.35C565.158 453.203 565.871 453.937 566.266 454.342C566.825 454.917 566.838 454.927 567.052 455.149L656.27 369.032ZM574.249 395.876C577.982 391.078 582.128 387.244 586.246 384.239L659.329 484.414C663.757 481.183 668.171 477.092 672.121 472.015L574.249 395.876ZM634.575 495.196C645.128 493.152 659.276 489.137 672.146 479.851C684.835 470.696 706.823 447.092 699.634 411.791C693.298 380.677 668.994 366.75 656.124 362.043C641.053 356.531 625.239 356.401 611.132 360.066L642.311 480.082C634.294 482.164 624.219 482.407 613.535 478.5C605.052 475.398 583.783 464.307 578.128 436.534C571.619 404.574 591.934 384.819 599.592 379.293C607.432 373.636 613.193 373.033 611 373.457L634.575 495.196ZM610.509 360.231C600.769 362.869 589.664 368.308 580.221 378.211L669.963 463.782C661.326 472.84 651.358 477.634 642.934 479.916L610.509 360.231ZM641.077 480.901C639.274 481.382 637.499 481.734 635.763 481.974L618.793 359.14C615.57 359.586 612.333 360.232 609.108 361.092L641.077 480.901ZM636.75 481.829C625.766 483.527 615.238 481.771 606.111 477.592C598.204 473.971 580.057 462.901 574.312 438.196C567.752 409.987 582.97 390.407 590.039 383.69C596.785 377.28 602.391 375.518 601.018 376.043L645.351 491.848C653.526 488.718 665.186 483.337 675.452 473.582C686.041 463.521 702.243 440.872 695.09 410.11C688.751 382.853 668.433 369.747 657.732 364.847C645.811 359.389 631.869 357.111 617.806 359.285L636.75 481.829ZM632.555 443.071C600.459 496.117 600.425 496.097 600.392 496.077C600.381 496.07 600.348 496.05 600.326 496.037C600.281 496.01 600.237 495.982 600.192 495.955C600.102 495.9 600.012 495.844 599.92 495.787C599.737 495.674 599.55 495.557 599.36 495.436C598.979 495.195 598.58 494.936 598.165 494.659C597.343 494.111 596.419 493.464 595.424 492.717C593.547 491.307 590.87 489.126 587.99 486.098C583.994 481.898 569.885 465.955 571.342 440.562C572.983 411.961 592.28 397.01 600.042 392.253C607.941 387.413 614.636 385.948 615.755 385.696L643.037 506.658C647.175 505.724 655.775 503.531 664.833 497.98C673.753 492.514 693.463 476.871 695.138 447.664C696.63 421.665 682.178 405.201 677.831 400.632C674.775 397.42 671.92 395.092 669.91 393.581C668.848 392.783 667.867 392.098 667.006 391.523C666.571 391.233 666.157 390.965 665.766 390.717C665.57 390.592 665.379 390.473 665.194 390.358C665.101 390.3 665.009 390.244 664.919 390.189C664.873 390.161 664.828 390.134 664.784 390.106C664.761 390.093 664.728 390.073 664.717 390.066C664.684 390.046 664.651 390.026 632.555 443.071ZM615.911 385.661C617.178 385.379 617.523 385.382 616.443 385.514C615.557 385.623 614.188 385.762 612.343 385.898C608.639 386.171 604.042 386.362 599.321 386.406C594.537 386.451 590.361 386.338 587.383 386.134C586.683 386.086 586.132 386.039 585.726 385.998C585.31 385.957 585.13 385.931 585.156 385.935C585.16 385.935 585.568 385.992 586.29 386.143C586.946 386.279 588.414 386.606 590.395 387.242L552.524 505.317C562.833 508.624 573.602 509.481 578.921 509.845C585.956 510.326 593.475 510.466 600.477 510.401C612.582 510.288 630.233 509.511 642.881 506.693L615.911 385.661ZM590.263 387.2C592.057 387.771 603.515 391.211 614.177 401.768C620.419 407.947 628.296 418.501 631.266 433.699C634.344 449.449 630.815 463.324 625.848 473.203C617.721 489.366 604.998 496.75 603.179 497.856C599.155 500.302 595.826 501.648 594.529 502.156C590.304 503.807 587.723 504.201 586.401 504.409L567.167 381.91C563.7 382.454 556.638 383.83 549.378 386.668C547.322 387.472 543.325 389.128 538.782 391.889C536.444 393.31 523.352 401.016 515.064 417.499C510.016 427.538 506.459 441.574 509.568 457.482C512.569 472.839 520.537 483.551 526.936 489.886C537.913 500.754 549.953 504.499 552.656 505.359L590.263 387.2ZM586.459 504.4C585.223 504.595 583.874 504.735 582.396 504.807C581.655 504.844 580.879 504.863 580.064 504.863C579.657 504.863 579.239 504.858 578.81 504.848C578.596 504.843 578.379 504.837 578.159 504.829C578.049 504.826 577.938 504.821 577.827 504.817C577.771 504.815 577.716 504.812 577.659 504.81C577.631 504.809 577.603 504.808 577.575 504.806C577.561 504.806 577.547 504.805 577.533 504.805C577.526 504.804 577.515 504.804 577.512 504.804C577.501 504.803 577.491 504.803 580.301 442.866C583.111 380.93 583.1 380.93 583.09 380.929C583.086 380.929 583.076 380.928 583.069 380.928C583.054 380.928 583.04 380.927 583.026 380.926C582.998 380.925 582.969 380.924 582.94 380.923C582.883 380.92 582.825 380.918 582.767 380.915C582.651 380.911 582.533 380.906 582.413 380.902C582.173 380.894 581.926 380.887 581.672 380.881C581.164 380.869 580.628 380.863 580.064 380.863C578.938 380.863 577.7 380.889 576.358 380.955C573.678 381.085 570.57 381.372 567.109 381.919L586.459 504.4ZM608.877 387.844C595.435 380.863 582.902 380.558 579.806 380.47C574.549 380.321 569.954 380.752 566.685 381.181C560.276 382.022 553.158 383.641 546.409 386.096C543.344 387.211 537.513 389.505 531.253 393.574C528.177 395.573 522.669 399.482 517.257 405.782C512.099 411.787 502.976 424.753 502.07 443.856C501.06 465.167 510.742 481.455 520.225 491.022C528.548 499.418 537.238 503.466 541.503 505.225C550.212 508.816 558.185 509.894 561.762 510.32L576.428 387.19C576.905 387.247 578.143 387.408 579.891 387.788C581.463 388.129 584.718 388.917 588.774 390.589C592.226 392.012 600.338 395.704 608.29 403.726C617.403 412.919 626.923 428.818 625.931 449.729C625.044 468.433 616.122 480.989 611.318 486.581C606.261 492.469 601.262 495.962 598.823 497.547C593.835 500.788 589.788 502.266 588.801 502.625C586.209 503.568 584.431 503.915 582.827 504.126C581.96 504.24 579.633 504.515 576.296 504.42C575.12 504.387 564.159 504.346 551.725 497.888L608.877 387.844ZM561.718 510.314C586.969 513.341 610.662 512.809 628.069 510.521C634.729 509.646 647.535 507.709 659.215 502.206C662.441 500.686 669.215 497.247 676.087 490.918C682.205 485.284 697.247 468.984 696.49 442.733C695.706 415.574 678.794 399.84 671.209 394.155C663.226 388.171 655.598 385.396 652.115 384.238L612.995 501.905C610.827 501.185 604.173 498.874 596.837 493.376C589.9 488.176 573.31 472.948 572.541 446.308C571.799 420.574 586.549 404.805 592.084 399.707C598.375 393.914 604.278 391.016 606.361 390.034C613.47 386.685 617.362 386.862 611.913 387.578C605.102 388.473 591.8 389.032 576.473 387.195L561.718 510.314ZM575.622 376.283C571.894 377.052 561.751 379.239 551.39 385.672C546.238 388.871 535.203 396.653 527.842 411.433C518.837 429.515 519.394 449.894 527.459 466.671C534.046 480.376 543.782 488.033 548.38 491.263C553.677 494.985 558.57 497.249 561.721 498.546C568.081 501.165 573.985 502.534 578.088 503.303C593.425 506.181 615.171 506.366 636.225 499.72L598.899 381.471C600.045 381.11 599.26 381.112 600.952 381.43C601.644 381.559 604.693 382.14 608.932 383.885C611.023 384.746 615.039 386.552 619.666 389.803C623.594 392.562 632.866 399.736 639.218 412.951C647.047 429.239 647.598 449.124 638.838 466.713C631.722 481.002 621.183 488.296 616.801 491.016C611.689 494.191 607.349 495.773 605.35 496.442C603.068 497.206 601.381 497.581 600.652 497.731L575.622 376.283ZM634.634 380.993C635.321 381.189 636.117 381.466 637.004 381.858L586.914 495.291C591.376 497.261 595.92 498.89 600.49 500.199L634.634 380.993ZM603.351 377.175C601.644 377.414 600.627 377.532 600 377.594C599.703 377.623 599.519 377.637 599.42 377.643C599.325 377.65 599.287 377.651 599.284 377.651C599.283 377.651 599.269 377.651 599.225 377.651C599.178 377.651 599.061 377.649 598.848 377.641C598.388 377.622 597.57 377.575 596.06 377.449L585.738 501.018C598.533 502.087 607.265 501.839 620.567 499.974L603.351 377.175ZM596.066 377.449C596.64 377.497 598.144 377.639 600.235 378.029C602.039 378.365 606.166 379.223 611.244 381.312C615.359 383.004 626.646 388.09 636.12 400.323C641.333 407.055 645.902 415.877 647.925 426.543C649.947 437.204 648.926 447.07 646.558 455.216C642.255 470.02 633.667 478.928 630.38 482.11C626.345 486.016 622.661 488.481 620.791 489.665C618.676 491.003 616.878 491.95 615.713 492.533C615.082 492.849 614.504 493.123 613.995 493.357C613.737 493.475 613.49 493.587 613.255 493.691C613.136 493.744 613.021 493.795 612.907 493.844C612.85 493.869 612.794 493.893 612.738 493.917C612.71 493.93 612.682 493.942 612.654 493.953C612.641 493.959 612.62 493.968 612.613 493.971C612.592 493.98 612.572 493.989 588.137 437.007C563.702 380.025 563.681 380.034 563.661 380.043C563.654 380.046 563.633 380.055 563.619 380.061C563.591 380.073 563.563 380.085 563.535 380.097C563.478 380.122 563.42 380.147 563.361 380.172C563.244 380.224 563.123 380.277 562.997 380.332C562.747 380.443 562.479 380.564 562.195 380.695C561.632 380.954 560.977 381.264 560.252 381.627C558.9 382.303 556.85 383.385 554.474 384.889C552.343 386.237 548.389 388.898 544.132 393.019C540.622 396.417 531.859 405.56 527.486 420.607C521.931 439.719 525.807 460.397 538.08 476.246C547.747 488.729 559.389 494.063 564.074 495.99C573.889 500.027 582.85 500.777 585.732 501.018L596.066 377.449ZM615.346 389.833C610.953 390.442 605.085 390.818 598.841 390.844C592.531 390.871 587.531 390.535 585.004 390.227L570.011 513.318C586.416 515.316 611.101 515.607 632.375 512.658L615.346 389.833ZM639.507 451.772C638.451 463.168 629.27 485.899 620.878 496.078C612.395 503.026 595.847 510.998 588.609 512.77C576.065 515.054 566.07 512.726 564.637 512.422C559.015 511.229 554.773 509.455 554.429 509.317C553.134 508.797 552.138 508.346 551.745 508.166C551.263 507.946 550.885 507.766 550.701 507.677C550.449 507.557 549.568 507.125 550.268 507.467C550.788 507.722 551.531 508.077 552.439 508.481C554.208 509.268 555.98 509.962 557.75 510.576C561.203 511.773 564.567 512.637 567.74 513.287C573.931 514.556 580.905 515.313 588.954 515.695L594.831 391.834C590.839 391.645 590.62 391.399 592.629 391.811C593.711 392.032 595.737 392.504 598.374 393.419C599.736 393.891 601.231 394.471 602.825 395.18C603.645 395.544 604.325 395.87 604.806 396.105C605.486 396.438 604.589 395.999 604.328 395.873C604.141 395.784 603.761 395.602 603.277 395.381C602.883 395.201 601.886 394.749 600.589 394.229C600.244 394.091 596.002 392.316 590.379 391.123C588.945 390.819 578.95 388.491 566.406 390.774C559.168 392.547 542.62 400.519 534.137 407.467C525.745 417.645 516.564 440.377 515.507 451.772H639.507ZM588.97 515.696C600.394 516.235 615.362 516.15 628.801 514.682C635.021 514.003 644.344 512.687 653.644 509.569C658.071 508.085 666.237 504.992 674.575 498.782C682.765 492.681 698.125 478.074 700.676 453.226L577.324 440.563C579.711 417.312 594.048 404.144 600.503 399.336C607.105 394.419 612.822 392.472 614.234 391.999C617.502 390.903 618.524 391.067 615.338 391.415C609.967 392.002 601.709 392.159 594.814 391.834L588.97 515.696ZM639 446.895C584.13 418.027 584.189 417.916 584.248 417.805C584.268 417.768 584.327 417.657 584.366 417.583C584.446 417.436 584.525 417.289 584.605 417.143C584.765 416.85 584.926 416.561 585.089 416.274C585.415 415.7 585.747 415.137 586.084 414.585C586.759 413.481 587.453 412.423 588.16 411.411C589.575 409.386 591.037 407.553 592.498 405.903C595.41 402.614 598.33 400.035 600.928 398.048C605.99 394.178 610.476 392.066 612.995 391.027C617.721 389.078 619.666 389.23 615.299 389.839L632.422 512.651C641.923 511.326 651.437 509.304 660.267 505.663C664.837 503.778 670.507 500.941 676.241 496.557C679.176 494.313 682.303 491.53 685.339 488.101C686.862 486.381 688.365 484.495 689.805 482.434C690.525 481.403 691.227 480.332 691.907 479.218C692.247 478.662 692.581 478.095 692.909 477.519C693.072 477.231 693.234 476.94 693.395 476.648C693.475 476.501 693.554 476.354 693.633 476.206C693.673 476.133 693.732 476.022 693.752 475.985C693.811 475.873 693.87 475.762 639 446.895ZM606.483 369.324C602.372 369.907 600.131 370.05 598.741 370.088C597.388 370.125 595.837 370.092 592.754 369.856L583.281 493.494C595.934 494.463 607.283 494.454 623.913 492.093L606.483 369.324ZM592.779 369.858C593.838 369.94 596.2 370.164 599.328 370.852C602.062 371.453 608.09 372.978 615.053 376.862C621.956 380.713 634.235 389.445 641.385 406.195C649.106 424.28 646.5 441.342 642.149 452.525C638.266 462.501 632.72 468.965 630.048 471.833C627 475.105 624.221 477.341 622.601 478.569C620.847 479.9 619.33 480.89 618.275 481.546C617.713 481.895 617.193 482.205 616.725 482.476C616.489 482.612 616.26 482.742 616.04 482.866C615.93 482.928 615.822 482.988 615.715 483.047C615.661 483.077 615.608 483.106 615.556 483.135C615.529 483.149 615.503 483.164 615.477 483.178C615.464 483.185 615.444 483.196 615.438 483.199C615.418 483.21 615.398 483.221 585.713 428.789C556.028 374.358 556.008 374.369 555.988 374.379C555.982 374.383 555.962 374.394 555.949 374.401C555.922 374.415 555.896 374.43 555.869 374.445C555.815 374.474 555.761 374.504 555.705 374.535C555.594 374.596 555.479 374.66 555.361 374.727C555.125 374.859 554.873 375.002 554.607 375.157C554.078 375.463 553.471 375.824 552.803 376.239C551.536 377.027 549.732 378.206 547.674 379.767C546.613 380.571 533.503 389.792 526.59 407.555C522.111 419.067 519.481 436.465 527.342 454.879C534.632 471.957 547.215 481.008 554.646 485.153C567.655 492.41 580.21 493.257 583.256 493.492L592.779 369.858ZM570.981 368.565C567.342 369.455 558.391 371.748 549.224 377.271C544.971 379.834 534.521 386.663 526.789 399.926C516.895 416.898 514.836 438.993 524.537 458.974C532.093 474.535 543.78 482.453 548.444 485.333C554.129 488.845 559.287 490.824 562.372 491.879C568.675 494.034 574.492 495.059 578.352 495.606C593.384 497.735 613.486 497.284 632.467 493.189L606.313 371.978C604.33 372.406 601.764 372.722 599.142 372.824C596.324 372.933 595.064 372.735 595.742 372.831C595.82 372.842 598.502 373.184 602.498 374.551C604.43 375.212 608.643 376.769 613.612 379.839C617.559 382.277 628.761 389.731 636.084 404.813C645.552 424.313 643.513 445.913 633.914 462.377C626.478 475.134 616.6 481.444 613.216 483.483C608.876 486.098 605.304 487.45 603.794 487.988C602.03 488.616 600.813 488.924 600.445 489.014L570.981 368.565ZM635.01 372.583C639.751 373.817 645.063 375.997 650.353 379.639L580.042 481.778C587.747 487.082 595.914 490.538 603.77 492.583L635.01 372.583Z" fill="white" mask="url(#path-14-inside-1_0_1)"/>
</g>
<g filter="url(#filter14_b_0_1)">
<path d="M433.571 179H386.429C382.879 179 380 181.879 380 185.429V232.571C380 236.121 382.879 239 386.429 239H433.571C437.121 239 440 236.121 440 232.571V185.429C440 181.879 437.121 179 433.571 179ZM412.652 225.795C412.652 231.634 409.223 234.299 404.228 234.299C399.714 234.299 397.103 231.969 395.763 229.143L400.357 226.371C401.241 227.938 402.045 229.263 403.987 229.263C405.835 229.263 407.013 228.54 407.013 225.714V206.549H412.652V225.795ZM425.991 234.299C420.754 234.299 417.366 231.808 415.719 228.54L420.312 225.888C421.518 227.857 423.098 229.317 425.871 229.317C428.201 229.317 429.701 228.152 429.701 226.531C429.701 224.603 428.174 223.92 425.589 222.781L424.183 222.179C420.112 220.451 417.42 218.268 417.42 213.674C417.42 209.442 420.647 206.228 425.67 206.228C429.259 206.228 431.83 207.473 433.679 210.741L429.286 213.554C428.321 211.826 427.277 211.143 425.656 211.143C424.009 211.143 422.964 212.187 422.964 213.554C422.964 215.241 424.009 215.924 426.433 216.982L427.839 217.585C432.634 219.634 435.326 221.737 435.326 226.451C435.326 231.513 431.335 234.299 425.991 234.299Z" fill="white"/>
</g>
<g filter="url(#filter15_b_0_1)">
<path d="M203.5 240.621H214.5L209 228.353L203.5 240.621ZM209 209L179 218.964L183.591 255.888L209 269L234.409 255.888L239 218.964L209 209ZM227.797 254.777H220.781L216.998 246.018H201.031L197.248 254.777H190.218L209 215.629L227.797 254.777Z" fill="white"/>
</g>
<g filter="url(#filter16_b_0_1)">
<path fill-rule="evenodd" clip-rule="evenodd" d="M346.612 75.9436C346.266 74.79 345.204 74 344 74C342.796 74 341.734 74.79 341.388 75.9436L340.335 79.4545H322.182C317.663 79.4545 314 83.1176 314 87.6362V114.909C314 119.427 317.663 123.09 322.182 123.09H327.244L325.024 130.489C324.591 131.931 325.41 133.451 326.853 133.884C328.295 134.317 329.816 133.498 330.249 132.056L332.938 123.09H355.062L357.751 132.056C358.184 133.498 359.705 134.317 361.147 133.884C362.59 133.451 363.409 131.931 362.976 130.489L360.756 123.09H365.818C370.337 123.09 374 119.427 374 114.909V87.6362C374 83.1176 370.337 79.4545 365.818 79.4545H347.665L346.612 75.9436ZM319.455 87.6362C319.455 86.13 320.676 84.909 322.182 84.909H342.364H345.636H365.818C367.324 84.909 368.545 86.13 368.545 87.6362V114.909C368.545 116.415 367.324 117.636 365.818 117.636H357.091H330.909H322.182C320.676 117.636 319.455 116.415 319.455 114.909V87.6362ZM340.985 89.8976C337.358 88.0842 333.091 90.7215 333.091 94.7762V107.769C333.091 111.823 337.358 114.461 340.985 112.647L353.977 106.151C357.998 104.141 357.998 98.4039 353.977 96.3938L340.985 89.8976ZM338.545 94.7762L351.538 101.272L338.545 107.769V94.7762Z" fill="white"/>
</g>
<g filter="url(#filter17_b_0_1)">
<path d="M483 70L488.453 123.009L512.922 130L537.547 123.009L543 70H483ZM531.156 87.1295H502.438L503.078 93.7455H530.516L528.391 113.621L513.094 117.237V117.277H512.922L497.5 113.621L496.563 103.469H504.016L504.562 108.571L512.922 110.513L521.312 108.571L522.25 100.241H496.172L494.172 80.7411H531.844L531.156 87.1295Z" fill="#FBFBFB"/>
</g>
<g filter="url(#filter18_b_0_1)">
<path d="M488 281.226C488 275.026 495.229 270 504.147 270H531.853C540.771 270 548 275.026 548 281.226C548 285.151 545.101 288.607 540.711 290.613C545.101 292.619 548 296.074 548 300C548 306.2 540.771 311.226 531.853 311.226H531.502C527.322 311.226 523.512 310.121 520.645 308.309V318.652C520.645 324.935 513.226 330 504.234 330C495.338 330 488 324.989 488 318.774C488 314.849 490.898 311.394 495.288 309.387C490.898 307.381 488 303.926 488 300C488 296.074 490.899 292.619 495.289 290.613C490.899 288.607 488 285.151 488 281.226ZM515.355 292.452H504.147C498.15 292.452 493.289 295.831 493.289 300C493.289 304.153 498.113 307.523 504.078 307.549C504.101 307.549 504.124 307.549 504.147 307.549H515.355V292.452ZM520.645 300C520.645 304.169 525.506 307.549 531.502 307.549H531.853C537.85 307.549 542.711 304.169 542.711 300C542.711 295.831 537.85 292.452 531.853 292.452H531.502C525.506 292.452 520.645 295.831 520.645 300ZM504.147 311.226C504.124 311.226 504.101 311.226 504.078 311.226C498.113 311.252 493.289 314.621 493.289 318.774C493.289 322.928 498.215 326.323 504.234 326.323C510.35 326.323 515.355 322.873 515.355 318.652V311.226H504.147ZM504.147 273.677C498.15 273.677 493.289 277.057 493.289 281.226C493.289 285.395 498.15 288.774 504.147 288.774H515.355V273.677H504.147ZM520.645 288.774H531.853C537.85 288.774 542.711 285.395 542.711 281.226C542.711 277.057 537.85 273.677 531.853 273.677H520.645V288.774Z" fill="white"/>
</g>
<g filter="url(#filter19_b_0_1)">
<path d="M245 336L250.453 389.009L275 396L299.547 389.009L305 336H245ZM293.922 346.714L293.172 353.049L275.156 359.652L275.109 359.665H292.531L290.531 379.299L275.187 383.143L259.75 379.232L258.75 369.335H266.391L266.891 374.464L275.109 376.246L283.656 374.183L284.234 365.933L258.25 365.866V365.853L258.219 365.866L257.656 359.665L275.172 353.411L276.188 353.049H256.984L256.078 346.714H293.922Z" fill="white"/>
</g>
<g filter="url(#filter20_b_0_1)">
<path d="M398.906 418.057C398.009 418.057 397.098 417.846 396.308 417.447L388.045 413.17C386.813 412.561 387.415 412.35 387.817 412.232C389.464 411.729 389.799 411.623 391.554 410.744C391.741 410.65 391.982 410.686 392.17 410.791L398.518 414.084C398.746 414.201 399.067 414.201 399.281 414.084L424.018 401.592C424.246 401.475 424.393 401.24 424.393 401.006V376.021C424.393 375.775 424.246 375.553 424.004 375.424L399.281 362.943C399.054 362.826 398.746 362.826 398.518 362.943L373.808 375.436C373.567 375.553 373.42 375.787 373.42 376.033V401.006C373.42 401.24 373.567 401.475 373.808 401.58L380.585 405.002C384.268 406.607 386.518 404.721 386.518 402.811V378.154C386.518 377.803 386.839 377.533 387.241 377.533H390.375C390.763 377.533 391.098 377.803 391.098 378.154V402.822C391.098 407.111 388.42 409.572 383.772 409.572C382.339 409.572 381.214 409.572 378.08 408.213L371.598 404.943C369.991 404.135 369 402.623 369 400.994V376.021C369 374.404 369.991 372.881 371.598 372.072L396.308 359.58C397.875 358.807 399.951 358.807 401.504 359.58L426.241 372.084C427.848 372.893 428.839 374.404 428.839 376.033V401.006C428.839 402.623 427.848 404.135 426.241 404.955L401.504 417.447C400.714 417.846 399.817 418.057 398.906 418.057ZM418.875 393.436C418.875 388.76 415.259 387.518 407.665 386.639C399.978 385.748 399.201 385.291 399.201 383.721C399.201 382.42 399.857 380.686 405.549 380.686C410.625 380.686 412.5 381.646 413.277 384.646C413.344 384.928 413.638 385.139 413.973 385.139H417.188C417.388 385.139 417.576 385.068 417.71 384.939C417.844 384.811 417.911 384.635 417.897 384.459C417.402 379.291 413.478 376.889 405.549 376.889C398.491 376.889 394.286 379.49 394.286 383.861C394.286 388.596 398.478 389.908 405.241 390.494C413.344 391.186 413.973 392.229 413.973 393.623C413.973 396.037 411.75 397.068 406.54 397.068C399.991 397.068 398.558 395.627 398.076 392.779C398.022 392.475 397.728 392.252 397.366 392.252H394.165C393.763 392.252 393.455 392.533 393.455 392.873C393.455 396.518 395.719 400.865 406.554 400.865C414.375 400.854 418.875 398.146 418.875 393.436Z" fill="white"/>
</g>
<g filter="url(#filter21_b_0_1)">
<path d="M684 167.375V173C684 178.18 670.567 182.375 654 182.375C637.433 182.375 624 178.18 624 173V167.375C624 162.195 637.433 158 654 158C670.567 158 684 162.195 684 167.375ZM676.661 183.16C679.446 182.293 682.004 181.18 684 179.809V191.75C684 196.93 670.567 201.125 654 201.125C637.433 201.125 624 196.93 624 191.75V179.809C625.996 181.191 628.554 182.293 631.339 183.16C637.353 185.035 645.362 186.125 654 186.125C662.638 186.125 670.647 185.035 676.661 183.16ZM624 198.559C625.996 199.941 628.554 201.043 631.339 201.91C637.353 203.785 645.362 204.875 654 204.875C662.638 204.875 670.647 203.785 676.661 201.91C679.446 201.043 682.004 199.93 684 198.559V208.625C684 213.805 670.567 218 654 218C637.433 218 624 213.805 624 208.625V198.559Z" fill="white"/>
</g>
<g filter="url(#filter22_b_0_1)">
<path d="M482.822 498.926L472.911 493.629C470.557 493.94 468.173 493.418 466.204 492.161C464.235 490.905 462.816 489 462.212 486.802C461.608 484.604 461.861 482.264 462.923 480.218C463.984 478.172 465.783 476.561 467.981 475.686C470.18 474.81 472.629 474.73 474.871 475.461C477.113 476.191 478.995 477.681 480.164 479.654C481.334 481.627 481.711 483.947 481.226 486.18C480.741 488.413 479.427 490.408 477.528 491.791L485.986 496.307L508.339 477.811C508.734 477.485 509.246 477.321 509.763 477.356C510.28 477.391 510.76 477.622 511.097 477.998C511.434 478.374 511.6 478.864 511.559 479.36C511.518 479.857 511.274 480.319 510.879 480.646L479.056 506.975C481.191 507.953 482.876 509.646 483.795 511.739C484.714 513.832 484.805 516.18 484.051 518.346C483.297 520.511 481.749 522.346 479.697 523.507C477.645 524.669 475.229 525.077 472.9 524.656C470.571 524.234 468.488 523.013 467.041 521.219C465.594 519.425 464.882 517.181 465.037 514.907C465.192 512.633 466.204 510.484 467.884 508.862C469.564 507.239 471.797 506.254 474.166 506.09L482.823 498.93L482.822 498.926ZM494.644 500.942L513.953 511.271C514.404 511.513 514.736 511.917 514.874 512.396C515.013 512.874 514.947 513.388 514.692 513.823C514.437 514.258 514.012 514.58 513.512 514.717C513.012 514.854 512.478 514.795 512.026 514.554L491.48 503.562L494.644 500.946L494.644 500.942ZM466.557 481.608C466.167 482.255 465.914 482.968 465.812 483.707C465.71 484.446 465.762 485.195 465.965 485.912C466.167 486.629 466.517 487.299 466.992 487.884C467.468 488.468 468.061 488.955 468.736 489.316C469.411 489.677 470.155 489.906 470.925 489.988C471.696 490.071 472.477 490.006 473.223 489.797C473.969 489.588 474.666 489.239 475.274 488.77C475.881 488.302 476.386 487.724 476.76 487.068C477.483 485.767 477.649 484.25 477.223 482.842C476.797 481.434 475.812 480.247 474.479 479.534C473.146 478.821 471.571 478.64 470.091 479.028C468.61 479.416 467.342 480.344 466.558 481.612L466.557 481.608ZM470.323 519.131C470.816 519.708 471.426 520.184 472.115 520.53C472.805 520.876 473.561 521.086 474.339 521.148C475.117 521.209 475.902 521.12 476.646 520.887C477.39 520.653 478.08 520.28 478.674 519.789C479.268 519.297 479.755 518.697 480.106 518.025C480.456 517.352 480.664 516.62 480.717 515.872C480.769 515.124 480.665 514.374 480.411 513.667C480.157 512.96 479.758 512.311 479.237 511.756C478.216 510.669 476.789 510.012 475.261 509.925C473.733 509.839 472.226 510.33 471.061 511.294C469.896 512.257 469.167 513.617 469.029 515.081C468.891 516.546 469.355 517.999 470.323 519.131Z" fill="white"/>
</g>
<g filter="url(#filter23_b_0_1)">
<path d="M213.858 96.6926C213.858 93.7321 212.192 92.0978 209.267 92.0978H203.886V101.636H208.423C211.925 101.622 213.858 99.854 213.858 96.6926ZM233.448 94.9779C232.434 90.8386 232.285 85.7616 232.402 81.8366C232.52 77.7508 229.979 74 226.562 74H191.459C188.032 74 185.502 77.7642 185.619 81.8366C185.726 85.7616 185.587 90.8386 184.573 94.9779C183.548 99.1306 181.829 101.756 179 102.091V105.909C181.819 106.244 183.548 108.869 184.573 113.022C185.587 117.161 185.737 122.238 185.619 126.163C185.502 130.249 188.043 134 191.459 134H226.552C229.979 134 232.509 130.236 232.391 126.163C232.285 122.238 232.423 117.161 233.438 113.022C234.463 108.869 236.181 106.244 239 105.909V102.091C236.192 101.756 234.463 99.1306 233.448 94.9779ZM210.302 119.961H199.851V88.0388H210.249C214.872 88.0388 217.904 91.1735 217.904 95.996C217.904 99.3851 215.865 102.413 213.26 102.935V103.109C216.804 103.591 219.185 106.672 219.185 110.919C219.185 116.559 215.843 119.961 210.302 119.961ZM209.235 105.4H203.886V115.902H209.47C213.121 115.902 215.053 114.067 215.053 110.611C215.053 107.168 213.068 105.4 209.235 105.4Z" fill="white"/>
</g>
<path d="M74.0149 200.257C77.4062 201.085 79.7477 203.738 79.7523 206.759M74.0149 200.257L74.0144 200.257C73.3113 200.084 72.5829 199.997 71.8513 200C70.4754 200.003 69.1237 200.309 67.9272 200.889L44.8503 212.169C43.6795 212.742 42.7069 213.569 42.0308 214.566C41.3546 215.563 40.9991 216.695 41 217.847V241.994C40.9923 244.604 44.2482 246.269 46.9251 245.026L53.1754 242.133C54.0336 241.728 54.7487 241.134 55.2458 240.412C55.7428 239.69 56.0037 238.867 56.001 238.03V222.142C56.0012 221.185 56.3452 220.25 56.9868 219.465C57.6283 218.68 58.5364 218.081 59.5887 217.75L79.7523 211.506V206.759M74.0149 200.257C77.4077 201.084 79.7482 203.737 79.7523 206.759M74.0149 200.257L95.4518 205.463C98.7359 206.263 101.002 208.834 101 211.76V253.027C100.995 255.945 98.7405 258.51 95.4677 259.318L74.1 264.532C77.4523 263.717 79.7621 261.09 79.7523 258.104V206.759M79.7523 250.606H55.9149C51.8308 250.643 50.401 255.267 53.9277 257.033L68.1267 263.932C69.2957 264.502 70.6186 264.801 71.9646 264.8C72.6886 264.8 73.4086 264.71 74.1021 264.532C77.4533 263.716 79.7621 261.09 79.7523 258.105V250.606Z" stroke="white" stroke-width="4"/>
<defs>
<filter id="filter0_b_0_1" x="-4" y="-4" width="745.821" height="708.13" filterUnits="userSpaceOnUse" color-interpolation-filters="sRGB">
<feFlood flood-opacity="0" result="BackgroundImageFix"/>
<feGaussianBlur in="BackgroundImageFix" stdDeviation="2"/>
<feComposite in2="SourceAlpha" operator="in" result="effect1_backgroundBlur_0_1"/>
<feBlend mode="normal" in="SourceGraphic" in2="effect1_backgroundBlur_0_1" result="shape"/>
</filter>
<filter id="filter1_b_0_1" x="17" y="104" width="194" height="250" filterUnits="userSpaceOnUse" color-interpolation-filters="sRGB">
<feFlood flood-opacity="0" result="BackgroundImageFix"/>
<feGaussianBlur in="BackgroundImageFix" stdDeviation="2"/>
<feComposite in2="SourceAlpha" operator="in" result="effect1_backgroundBlur_0_1"/>
<feBlend mode="normal" in="SourceGraphic" in2="effect1_backgroundBlur_0_1" result="shape"/>
</filter>
<filter id="filter2_b_0_1" x="143" y="169" width="149" height="140" filterUnits="userSpaceOnUse" color-interpolation-filters="sRGB">
<feFlood flood-opacity="0" result="BackgroundImageFix"/>
<feGaussianBlur in="BackgroundImageFix" stdDeviation="2"/>
<feComposite in2="SourceAlpha" operator="in" result="effect1_backgroundBlur_0_1"/>
<feBlend mode="normal" in="SourceGraphic" in2="effect1_backgroundBlur_0_1" result="shape"/>
</filter>
<filter id="filter3_b_0_1" x="127" y="39" width="158" height="132" filterUnits="userSpaceOnUse" color-interpolation-filters="sRGB">
<feFlood flood-opacity="0" result="BackgroundImageFix"/>
<feGaussianBlur in="BackgroundImageFix" stdDeviation="2"/>
<feComposite in2="SourceAlpha" operator="in" result="effect1_backgroundBlur_0_1"/>
<feBlend mode="normal" in="SourceGraphic" in2="effect1_backgroundBlur_0_1" result="shape"/>
</filter>
<filter id="filter4_b_0_1" x="250.466" y="15" width="167.534" height="228" filterUnits="userSpaceOnUse" color-interpolation-filters="sRGB">
<feFlood flood-opacity="0" result="BackgroundImageFix"/>
<feGaussianBlur in="BackgroundImageFix" stdDeviation="2"/>
<feComposite in2="SourceAlpha" operator="in" result="effect1_backgroundBlur_0_1"/>
<feBlend mode="normal" in="SourceGraphic" in2="effect1_backgroundBlur_0_1" result="shape"/>
</filter>
<filter id="filter5_b_0_1" x="417" y="25" width="175" height="204" filterUnits="userSpaceOnUse" color-interpolation-filters="sRGB">
<feFlood flood-opacity="0" result="BackgroundImageFix"/>
<feGaussianBlur in="BackgroundImageFix" stdDeviation="2"/>
<feComposite in2="SourceAlpha" operator="in" result="effect1_backgroundBlur_0_1"/>
<feBlend mode="normal" in="SourceGraphic" in2="effect1_backgroundBlur_0_1" result="shape"/>
</filter>
<filter id="filter6_b_0_1" x="592" y="70" width="135" height="252" filterUnits="userSpaceOnUse" color-interpolation-filters="sRGB">
<feFlood flood-opacity="0" result="BackgroundImageFix"/>
<feGaussianBlur in="BackgroundImageFix" stdDeviation="2"/>
<feComposite in2="SourceAlpha" operator="in" result="effect1_backgroundBlur_0_1"/>
<feBlend mode="normal" in="SourceGraphic" in2="effect1_backgroundBlur_0_1" result="shape"/>
</filter>
<filter id="filter7_b_0_1" x="315" y="142" width="177" height="127" filterUnits="userSpaceOnUse" color-interpolation-filters="sRGB">
<feFlood flood-opacity="0" result="BackgroundImageFix"/>
<feGaussianBlur in="BackgroundImageFix" stdDeviation="2"/>
<feComposite in2="SourceAlpha" operator="in" result="effect1_backgroundBlur_0_1"/>
<feBlend mode="normal" in="SourceGraphic" in2="effect1_backgroundBlur_0_1" result="shape"/>
</filter>
<filter id="filter8_b_0_1" x="219" y="275" width="159" height="174" filterUnits="userSpaceOnUse" color-interpolation-filters="sRGB">
<feFlood flood-opacity="0" result="BackgroundImageFix"/>
<feGaussianBlur in="BackgroundImageFix" stdDeviation="2"/>
<feComposite in2="SourceAlpha" operator="in" result="effect1_backgroundBlur_0_1"/>
<feBlend mode="normal" in="SourceGraphic" in2="effect1_backgroundBlur_0_1" result="shape"/>
</filter>
<filter id="filter9_b_0_1" x="406" y="207" width="222" height="180" filterUnits="userSpaceOnUse" color-interpolation-filters="sRGB">
<feFlood flood-opacity="0" result="BackgroundImageFix"/>
<feGaussianBlur in="BackgroundImageFix" stdDeviation="2"/>
<feComposite in2="SourceAlpha" operator="in" result="effect1_backgroundBlur_0_1"/>
<feBlend mode="normal" in="SourceGraphic" in2="effect1_backgroundBlur_0_1" result="shape"/>
</filter>
<filter id="filter10_b_0_1" x="327" y="309" width="168" height="134" filterUnits="userSpaceOnUse" color-interpolation-filters="sRGB">
<feFlood flood-opacity="0" result="BackgroundImageFix"/>
<feGaussianBlur in="BackgroundImageFix" stdDeviation="2"/>
<feComposite in2="SourceAlpha" operator="in" result="effect1_backgroundBlur_0_1"/>
<feBlend mode="normal" in="SourceGraphic" in2="effect1_backgroundBlur_0_1" result="shape"/>
</filter>
<filter id="filter11_b_0_1" x="507" y="329" width="203" height="185.687" filterUnits="userSpaceOnUse" color-interpolation-filters="sRGB">
<feFlood flood-opacity="0" result="BackgroundImageFix"/>
<feGaussianBlur in="BackgroundImageFix" stdDeviation="2"/>
<feComposite in2="SourceAlpha" operator="in" result="effect1_backgroundBlur_0_1"/>
<feBlend mode="normal" in="SourceGraphic" in2="effect1_backgroundBlur_0_1" result="shape"/>
</filter>
<filter id="filter12_b_0_1" x="393" y="441" width="179" height="99" filterUnits="userSpaceOnUse" color-interpolation-filters="sRGB">
<feFlood flood-opacity="0" result="BackgroundImageFix"/>
<feGaussianBlur in="BackgroundImageFix" stdDeviation="2"/>
<feComposite in2="SourceAlpha" operator="in" result="effect1_backgroundBlur_0_1"/>
<feBlend mode="normal" in="SourceGraphic" in2="effect1_backgroundBlur_0_1" result="shape"/>
</filter>
<filter id="filter13_b_0_1" x="560" y="375" width="83" height="83" filterUnits="userSpaceOnUse" color-interpolation-filters="sRGB">
<feFlood flood-opacity="0" result="BackgroundImageFix"/>
<feGaussianBlur in="BackgroundImageFix" stdDeviation="2"/>
<feComposite in2="SourceAlpha" operator="in" result="effect1_backgroundBlur_0_1"/>
<feBlend mode="normal" in="SourceGraphic" in2="effect1_backgroundBlur_0_1" result="shape"/>
</filter>
<filter id="filter14_b_0_1" x="376" y="175" width="68" height="68" filterUnits="userSpaceOnUse" color-interpolation-filters="sRGB">
<feFlood flood-opacity="0" result="BackgroundImageFix"/>
<feGaussianBlur in="BackgroundImageFix" stdDeviation="2"/>
<feComposite in2="SourceAlpha" operator="in" result="effect1_backgroundBlur_0_1"/>
<feBlend mode="normal" in="SourceGraphic" in2="effect1_backgroundBlur_0_1" result="shape"/>
</filter>
<filter id="filter15_b_0_1" x="175" y="205" width="68" height="68" filterUnits="userSpaceOnUse" color-interpolation-filters="sRGB">
<feFlood flood-opacity="0" result="BackgroundImageFix"/>
<feGaussianBlur in="BackgroundImageFix" stdDeviation="2"/>
<feComposite in2="SourceAlpha" operator="in" result="effect1_backgroundBlur_0_1"/>
<feBlend mode="normal" in="SourceGraphic" in2="effect1_backgroundBlur_0_1" result="shape"/>
</filter>
<filter id="filter16_b_0_1" x="310" y="70" width="68" height="68" filterUnits="userSpaceOnUse" color-interpolation-filters="sRGB">
<feFlood flood-opacity="0" result="BackgroundImageFix"/>
<feGaussianBlur in="BackgroundImageFix" stdDeviation="2"/>
<feComposite in2="SourceAlpha" operator="in" result="effect1_backgroundBlur_0_1"/>
<feBlend mode="normal" in="SourceGraphic" in2="effect1_backgroundBlur_0_1" result="shape"/>
</filter>
<filter id="filter17_b_0_1" x="479" y="66" width="68" height="68" filterUnits="userSpaceOnUse" color-interpolation-filters="sRGB">
<feFlood flood-opacity="0" result="BackgroundImageFix"/>
<feGaussianBlur in="BackgroundImageFix" stdDeviation="2"/>
<feComposite in2="SourceAlpha" operator="in" result="effect1_backgroundBlur_0_1"/>
<feBlend mode="normal" in="SourceGraphic" in2="effect1_backgroundBlur_0_1" result="shape"/>
</filter>
<filter id="filter18_b_0_1" x="484" y="266" width="68" height="68" filterUnits="userSpaceOnUse" color-interpolation-filters="sRGB">
<feFlood flood-opacity="0" result="BackgroundImageFix"/>
<feGaussianBlur in="BackgroundImageFix" stdDeviation="2"/>
<feComposite in2="SourceAlpha" operator="in" result="effect1_backgroundBlur_0_1"/>
<feBlend mode="normal" in="SourceGraphic" in2="effect1_backgroundBlur_0_1" result="shape"/>
</filter>
<filter id="filter19_b_0_1" x="241" y="319" width="68" height="81" filterUnits="userSpaceOnUse" color-interpolation-filters="sRGB">
<feFlood flood-opacity="0" result="BackgroundImageFix"/>
<feGaussianBlur in="BackgroundImageFix" stdDeviation="2"/>
<feComposite in2="SourceAlpha" operator="in" result="effect1_backgroundBlur_0_1"/>
<feBlend mode="normal" in="SourceGraphic" in2="effect1_backgroundBlur_0_1" result="shape"/>
</filter>
<filter id="filter20_b_0_1" x="365" y="355" width="67.8392" height="67.0566" filterUnits="userSpaceOnUse" color-interpolation-filters="sRGB">
<feFlood flood-opacity="0" result="BackgroundImageFix"/>
<feGaussianBlur in="BackgroundImageFix" stdDeviation="2"/>
<feComposite in2="SourceAlpha" operator="in" result="effect1_backgroundBlur_0_1"/>
<feBlend mode="normal" in="SourceGraphic" in2="effect1_backgroundBlur_0_1" result="shape"/>
</filter>
<filter id="filter21_b_0_1" x="620" y="154" width="68" height="68" filterUnits="userSpaceOnUse" color-interpolation-filters="sRGB">
<feFlood flood-opacity="0" result="BackgroundImageFix"/>
<feGaussianBlur in="BackgroundImageFix" stdDeviation="2"/>
<feComposite in2="SourceAlpha" operator="in" result="effect1_backgroundBlur_0_1"/>
<feBlend mode="normal" in="SourceGraphic" in2="effect1_backgroundBlur_0_1" result="shape"/>
</filter>
<filter id="filter22_b_0_1" x="457.891" y="470.966" width="61.0547" height="57.8517" filterUnits="userSpaceOnUse" color-interpolation-filters="sRGB">
<feFlood flood-opacity="0" result="BackgroundImageFix"/>
<feGaussianBlur in="BackgroundImageFix" stdDeviation="2"/>
<feComposite in2="SourceAlpha" operator="in" result="effect1_backgroundBlur_0_1"/>
<feBlend mode="normal" in="SourceGraphic" in2="effect1_backgroundBlur_0_1" result="shape"/>
</filter>
<filter id="filter23_b_0_1" x="175" y="70" width="68" height="68" filterUnits="userSpaceOnUse" color-interpolation-filters="sRGB">
<feFlood flood-opacity="0" result="BackgroundImageFix"/>
<feGaussianBlur in="BackgroundImageFix" stdDeviation="2"/>
<feComposite in2="SourceAlpha" operator="in" result="effect1_backgroundBlur_0_1"/>
<feBlend mode="normal" in="SourceGraphic" in2="effect1_backgroundBlur_0_1" result="shape"/>
</filter>
</defs>
</svg>
