<svg width="163" height="155" viewBox="0 0 163 155" fill="none" xmlns="http://www.w3.org/2000/svg">
<path fill-rule="evenodd" clip-rule="evenodd" d="M100.634 0.21323C99.7729 0.297966 98.9562 0.378364 98.0622 0.399713C96.8906 0.427695 96.0726 0.707146 95.3254 1.1303C95.0119 1.30783 94.7121 1.51041 94.4414 1.69336L94.3735 1.73923C94.0733 1.94183 93.7759 2.13991 93.4242 2.34148C93.2129 2.46259 92.9761 2.65763 92.8007 2.80849C92.5964 2.98424 92.3655 3.19687 92.1395 3.41783C91.7357 3.8125 91.1888 4.38558 90.9255 4.84771C90.4376 5.7041 89.8154 6.48979 89.1126 7.29664C88.8723 7.57254 88.6104 7.86401 88.3409 8.16384C87.8644 8.69391 87.3645 9.25009 86.9195 9.79243C85.5258 11.4912 84.2727 13.5037 84.1526 16.3067H83.7027V141.798H84.659C84.6103 141.936 84.5838 142.085 84.5838 142.24C84.5838 142.929 85.1089 143.496 85.78 143.559C85.7919 143.596 85.8056 143.642 85.8209 143.699C85.8324 143.742 85.8473 143.802 85.865 143.874C85.9223 144.107 86.0099 144.462 86.1133 144.747C86.2694 145.177 86.54 145.715 87.0764 146.134C87.3694 146.362 87.6193 146.674 87.9662 147.133L88.0242 147.209C88.3275 147.611 88.7364 148.153 89.2649 148.577C89.5845 148.834 89.9536 149.221 90.4083 149.73L90.5104 149.845L90.6195 149.968L90.7655 150.133C91.1078 150.522 91.4835 150.948 91.8623 151.343C92.8383 152.363 94.2356 153.635 95.9684 153.726C96.1497 153.736 96.5607 153.833 97.2844 154.035C97.3942 154.065 97.5088 154.097 97.6274 154.131C98.2104 154.295 98.8891 154.486 99.5608 154.64C100.361 154.822 101.252 154.977 102.068 154.955C102.814 154.936 103.796 154.761 104.475 153.994C104.508 153.98 104.566 153.96 104.656 153.937C104.909 153.873 105.258 153.825 105.679 153.795C106.092 153.766 106.524 153.755 106.932 153.749L107.082 153.747L107.179 153.746C107.483 153.742 107.784 153.739 108.006 153.726C108.732 153.686 109.487 153.594 110.201 153.507L110.202 153.507L110.259 153.5C111.008 153.408 111.719 153.323 112.411 153.284C119.424 152.894 126.386 148.781 131.691 145.097C132.466 144.559 133.368 143.828 134.267 143.101L134.272 143.097C134.808 142.662 135.344 142.229 135.85 141.838C137.316 140.706 138.649 139.834 139.77 139.513C140.033 139.437 140.218 139.298 140.28 139.251C140.369 139.183 140.446 139.111 140.504 139.054C140.622 138.938 140.743 138.801 140.854 138.669C141.079 138.401 141.338 138.063 141.584 137.734C141.881 137.335 142.141 136.975 142.341 136.697C142.503 136.472 142.627 136.3 142.701 136.204C143.034 135.775 143.456 135.383 143.973 134.901C144.069 134.812 144.168 134.719 144.271 134.623C144.874 134.056 145.592 133.354 146.085 132.489C146.273 132.16 146.573 131.91 147.135 131.466L147.168 131.44C147.664 131.05 148.383 130.482 148.847 129.604C149.108 129.11 149.274 128.75 149.41 128.456C149.691 127.85 149.842 127.523 150.424 126.875C151.344 125.85 152.082 124.48 152.706 123.211C152.925 122.766 153.129 122.337 153.324 121.927L153.326 121.922C153.719 121.094 154.077 120.339 154.456 119.675C154.844 118.992 155.153 118.307 155.425 117.704L155.428 117.697C155.47 117.603 155.512 117.511 155.552 117.422L155.595 117.327L155.627 117.258L155.67 117.166C156.014 116.424 156.359 115.777 156.876 115.143C157.274 114.655 157.468 114.092 157.577 113.616C157.687 113.139 157.733 112.643 157.769 112.243L157.779 112.125C157.812 111.747 157.838 111.46 157.884 111.21C157.922 111.007 157.96 110.923 157.968 110.904C157.969 110.902 157.97 110.9 157.97 110.9C158.55 110.166 158.696 109.223 158.78 108.684L158.78 108.679L158.796 108.58C158.847 108.256 158.884 108.046 158.936 107.878C158.967 107.775 158.991 107.732 158.998 107.722C159.63 107.084 159.948 106.222 160.119 105.502C160.297 104.75 160.357 103.975 160.357 103.355C160.357 102.384 160.754 101.52 161.328 100.319L161.351 100.271C161.885 99.1565 162.559 97.7459 162.559 96.0397C162.559 94.4184 162.666 92.7888 162.777 91.1242L162.781 91.0581C162.889 89.4301 163 87.7643 163 86.1221C163 84.5339 162.886 82.9528 162.776 81.4409L162.775 81.4219C162.665 79.8998 162.559 78.4507 162.559 77.0393C162.559 76.4436 162.525 75.4264 162.42 74.4232C162.368 73.9215 162.296 73.402 162.196 72.9302C162.102 72.4846 161.963 71.9753 161.732 71.5595C161.585 71.2928 161.34 70.7128 161.128 70.0668C160.904 69.3845 160.797 68.8657 160.797 68.6683C160.797 66.9148 160.613 65.1733 160.415 63.5064C160.397 63.3577 160.379 63.2097 160.362 63.0625L160.318 62.7054C160.149 61.3086 159.987 59.9719 159.914 58.6527C159.9 58.3974 159.889 58.1415 159.879 57.8839L159.879 57.8826C159.831 56.7225 159.781 55.5261 159.4 54.1888C159.299 53.8323 159.14 53.4062 159.008 53.049C158.945 52.8796 158.887 52.7258 158.845 52.6022C158.681 52.1272 158.595 51.7616 158.595 51.4353C158.595 50.6221 158.34 49.8466 158.072 49.2153C157.845 48.6792 157.564 48.1523 157.336 47.7247L157.333 47.7185L157.328 47.7098C157.289 47.6372 157.252 47.5674 157.217 47.5011C156.934 46.9636 156.675 46.4288 156.398 45.8557L156.397 45.8542L156.381 45.8198C156.1 45.2386 155.801 44.6217 155.455 43.9661C154.982 43.0694 154.357 42.3073 153.741 41.6382C153.814 40.9788 153.384 40.3544 152.724 40.2016C152.593 40.1712 152.461 40.1616 152.334 40.1706C151.766 39.5693 151.29 39.0107 150.931 38.3807C150.417 37.4782 149.664 36.6033 149.024 35.8603C148.803 35.6035 148.596 35.3622 148.416 35.1412C147.63 34.1724 147.187 33.4006 147.138 32.578C147.094 31.8298 146.818 31.1408 146.513 30.5612C146.206 29.9767 145.816 29.4054 145.461 28.8974C145.403 28.8146 145.346 28.7335 145.29 28.6539L145.288 28.6515L145.286 28.6482L145.285 28.6474C144.984 28.2181 144.714 27.8335 144.485 27.455C144.21 27.0021 144.058 26.661 144.001 26.403C143.85 25.7237 143.44 25.2509 143.094 24.9397C142.795 24.6709 142.441 24.4356 142.181 24.2627L142.094 24.2048C141.783 23.9971 141.598 23.8619 141.476 23.7368C141.431 23.6909 141.411 23.6621 141.403 23.6481C141.372 23.4063 141.292 23.1942 141.237 23.062C141.172 22.9071 141.093 22.7511 141.013 22.6049C140.852 22.3116 140.649 21.9942 140.442 21.6979C140.235 21.4006 140.008 21.1029 139.793 20.8508C139.613 20.6408 139.335 20.3321 139.03 20.1413C138.122 19.5721 137.16 18.7084 136.144 17.7151C135.821 17.3996 135.488 17.0655 135.151 16.7281C134.475 16.0512 133.786 15.361 133.144 14.7813C131.071 12.9098 128.751 11.5612 126.553 10.2837L126.521 10.2649C124.28 8.96215 122.161 7.72711 120.265 6.03662C116.831 2.97502 113.124 1.99859 109.423 1.02362C108.688 0.829746 107.952 0.635933 107.219 0.425794C105.568 -0.047218 103.947 -0.0484012 102.433 0.0553378C101.79 0.0993369 101.202 0.157231 100.634 0.21323ZM149.925 44.3607C150.257 43.6445 150.546 42.9381 150.762 42.3576C150.034 41.6071 149.231 40.7395 148.636 39.6961C148.258 39.0313 147.768 38.4626 147.193 37.7957L147.192 37.7946C146.934 37.4941 146.657 37.1731 146.366 36.815C145.518 35.7695 144.6 34.4396 144.5 32.7337C144.487 32.5244 144.399 32.2234 144.175 31.798C143.954 31.3775 143.652 30.9288 143.296 30.4192C143.244 30.3449 143.191 30.269 143.137 30.1918C142.837 29.7644 142.507 29.2951 142.227 28.834C141.904 28.3019 141.583 27.6813 141.429 27.0159C141.416 26.9988 141.387 26.965 141.33 26.9139C141.183 26.7815 140.993 26.6549 140.693 26.4543L140.628 26.4113C140.337 26.2167 139.927 25.9407 139.584 25.5883C139.239 25.2337 138.897 24.7368 138.793 24.0724C138.775 24.0316 138.745 23.9689 138.698 23.8842C138.595 23.6958 138.446 23.4606 138.277 23.2182C138.109 22.9768 137.935 22.7499 137.786 22.5762C137.712 22.4891 137.652 22.4255 137.61 22.3841C137.602 22.3759 137.595 22.3695 137.59 22.3646C136.438 21.6351 135.318 20.6096 134.299 19.6139C133.921 19.2436 133.56 18.8819 133.211 18.5324C132.57 17.8896 131.97 17.288 131.376 16.7519C129.607 15.1548 127.612 13.9649 125.477 12.7222C125.38 13.5947 125.259 14.4376 125.142 15.2488L125.142 15.2529C125.094 15.586 125.047 15.9137 125.002 16.236C124.818 17.5778 124.673 18.879 124.673 20.2835C124.673 22.9384 124.909 24.4306 126.049 26.4887C126.493 27.2907 126.484 28.1294 126.479 28.5941C126.478 28.6374 126.478 28.6774 126.478 28.7138C126.477 29.2317 126.522 29.3173 126.586 29.3975C127.245 30.2231 127.871 31.6544 128.122 32.5372C128.686 34.5174 129.77 36.7108 131.193 37.7816C131.777 38.2208 131.895 39.0517 131.457 39.6374C131.019 40.2231 130.191 40.3418 129.607 39.9025C127.486 38.307 126.196 35.4272 125.58 33.2655C125.389 32.5946 124.893 31.5182 124.522 31.0537C123.833 30.1901 123.834 29.246 123.834 28.7116C123.835 28.0875 123.825 27.9332 123.738 27.7763C123.392 27.1519 123.114 26.5626 122.89 25.9868C122.45 25.9355 122.025 25.8665 121.637 25.8035C121.515 25.7838 121.397 25.7647 121.283 25.7469C120.794 25.6702 120.348 25.6107 119.898 25.5921L119.892 25.6028C119.851 25.6723 119.809 25.7498 119.756 25.849L119.743 25.8742C119.695 25.9621 119.639 26.0676 119.58 26.1716C119.454 26.3915 119.267 26.6966 118.999 26.9652C118.375 27.5919 117.656 28.0945 117.054 28.5158C116.976 28.5701 116.9 28.6231 116.827 28.6748C116.141 29.1585 115.619 29.5594 115.23 30.0472C114.497 30.966 113.604 32.5117 112.967 33.718C111.768 35.9901 110.385 37.3752 108.67 39.0933L108.426 39.3375C108.168 39.5964 107.83 39.7258 107.492 39.7258C107.492 40.2809 107.152 40.7564 106.669 40.9538C107.889 42.8294 109.573 43.7217 112.11 45.0657C112.243 45.136 112.378 45.2075 112.516 45.2805C114.597 46.3854 116.023 47.9623 117.246 49.5726C117.702 50.1728 118.114 50.753 118.518 51.3205L118.518 51.3213C119.246 52.3451 119.943 53.3273 120.815 54.3105C121.185 54.7278 121.244 55.3142 121.009 55.7848C121.021 55.7998 121.033 55.8146 121.044 55.8292C121.305 56.1639 121.544 56.5475 121.751 56.9086C121.961 57.2736 122.156 57.6483 122.323 57.9713L122.386 58.0932C122.53 58.3726 122.643 58.5915 122.737 58.7559C123.457 60.0204 123.87 60.7107 124.824 61.6675C124.879 61.7223 124.934 61.7771 124.989 61.832C125.581 62.4232 126.18 63.0218 126.598 63.7255C127.103 64.574 127.316 65.5009 127.316 66.7044C127.316 66.7456 127.316 66.787 127.316 66.8286C127.316 66.9018 127.315 66.9756 127.314 67.0501C127.318 67.1105 127.317 67.1702 127.312 67.2291C127.308 67.5171 127.301 67.8139 127.295 68.1177V68.1206C127.271 69.1797 127.245 70.3244 127.32 71.4794C127.38 72.4203 127.503 73.2174 127.691 73.8485C128.719 73.3626 129.972 73.2898 131.054 73.2868C131.55 73.2854 132.065 73.3004 132.557 73.3147L132.803 73.3218C133.381 73.3381 133.928 73.3498 134.447 73.3356C135.526 73.306 136.272 73.1637 136.742 72.8885C137.089 72.6844 137.399 72.3481 137.451 71.4626C137.5 70.6325 137.856 69.9618 138.238 69.4447C138.592 68.9661 139.033 68.5364 139.384 68.1944L139.433 68.1464C139.828 67.761 140.113 67.4756 140.312 67.1959C140.498 66.9351 140.532 66.7817 140.532 66.6799C140.532 65.5222 140.828 64.6099 141.129 63.8328C141.202 63.6428 141.272 63.4673 141.339 63.3007L141.34 63.2994C141.558 62.7559 141.738 62.3059 141.861 61.7527C142.065 60.8301 142.453 60.0669 142.85 59.4054C143.027 59.1108 143.215 58.8218 143.39 58.5527L143.446 58.466C143.642 58.1647 143.823 57.8825 143.992 57.5918C144.324 57.0202 144.499 56.3266 144.734 55.3866L144.737 55.3721C144.951 54.5133 145.223 53.423 145.83 52.4666C146.232 51.8324 146.608 50.9323 146.756 50.264C146.799 50.0708 146.913 49.7788 146.988 49.5907C147.085 49.3461 147.208 49.0496 147.333 48.7594C147.458 48.471 147.591 48.1756 147.707 47.9371C147.764 47.8199 147.825 47.7001 147.884 47.5961C147.913 47.5452 147.951 47.4811 147.996 47.4162L147.998 47.4129C148.025 47.374 148.129 47.2215 148.297 47.0862C148.411 46.9949 148.653 46.7103 148.985 46.1621C149.296 45.6508 149.62 45.0205 149.925 44.3607ZM124.627 65.9706C124.569 65.5697 124.461 65.307 124.328 65.0832C124.086 64.6761 123.719 64.3081 123.009 63.596L122.955 63.5422C121.743 62.3265 121.189 61.383 120.442 60.0712C120.318 59.8549 120.176 59.5796 120.037 59.3101L119.976 59.1913C119.81 58.8701 119.638 58.5409 119.46 58.2311C119.28 57.9174 119.112 57.6552 118.962 57.462C118.835 57.2991 118.769 57.2489 118.769 57.2472C118.136 56.9118 117.882 56.1282 118.204 55.4821C118.221 55.4494 118.238 55.4175 118.257 55.3867C117.531 54.4991 116.866 53.5652 116.244 52.6934C115.862 52.1568 115.496 51.6434 115.144 51.1791C114.013 49.6903 112.864 48.4653 111.279 47.6236C111.095 47.5257 110.912 47.4292 110.73 47.3335L110.727 47.332C107.767 45.7705 105.183 44.408 103.543 40.706C103.118 39.747 102.873 39.5887 102.733 39.5214C102.628 39.4708 102.458 39.4186 102.132 39.3774C101.818 39.3378 101.446 39.3171 100.929 39.2885L100.81 39.2819C99.8819 39.2301 98.978 39.0082 98.2054 38.8184L98.0014 38.7685C97.138 38.5581 96.4139 38.4002 95.6952 38.4002C95.1415 38.4002 94.216 38.3432 93.324 38.2095C92.8767 38.1424 92.4083 38.0518 91.9845 37.929C91.6181 37.8228 91.153 37.6568 90.773 37.3737L90.7635 37.3712C90.7263 37.3614 90.618 37.3327 90.3998 37.3129C90.0504 37.2811 89.5994 37.2856 89.0897 37.3138C88.61 37.3402 88.1217 37.3847 87.665 37.4264L87.6638 37.4265L87.5869 37.4335C87.1459 37.4737 86.6768 37.5164 86.3459 37.5164V85.1336C86.4315 85.057 86.5285 84.9904 86.636 84.9365C88.2662 84.1189 90.0682 83.7258 91.8534 83.4942C93.085 83.3345 94.3832 83.2446 95.638 83.1577L95.6392 83.1576C96.1782 83.1203 96.7092 83.0836 97.2235 83.0421C100.792 82.754 103.792 82.2146 105.897 80.1033C106.215 79.7842 106.541 79.4418 106.887 79.0785L106.957 79.0052C107.324 78.6192 107.713 78.213 108.112 77.816C108.904 77.0284 109.791 76.226 110.756 75.6206C111.155 75.3706 111.479 74.9179 112.035 74.1432L112.149 73.9833C112.685 73.2363 113.454 72.1944 114.665 71.6547L114.66 71.6565L114.662 71.6553C114.671 71.6506 114.704 71.6313 114.766 71.5866C114.845 71.5287 114.945 71.4476 115.063 71.342C115.3 71.1304 115.57 70.8568 115.843 70.558C116.404 69.9436 116.881 69.3292 117.042 69.0704C117.518 68.307 118.33 67.8005 119.06 67.4537C119.83 67.0881 120.719 66.8037 121.574 66.582C122.66 66.3004 123.763 66.1023 124.627 65.9706ZM86.3459 87.1107C86.738 87.462 87.3192 87.558 87.8181 87.3078C89.0681 86.6809 90.5368 86.3383 92.1925 86.1236C93.3435 85.9742 94.5104 85.8936 95.7258 85.8096L95.7276 85.8095C96.2855 85.7709 96.854 85.7317 97.4355 85.6847C100.99 85.3978 104.911 84.841 107.766 81.978C108.106 81.6366 108.452 81.2732 108.793 80.9156L108.868 80.8368C109.237 80.4495 109.602 80.0676 109.973 79.6991C110.72 78.9557 111.442 78.3172 112.157 77.8688C113.031 77.3211 113.672 76.4131 114.135 75.7565L114.214 75.6453L114.258 75.5837L114.294 75.5324C114.857 74.7484 115.259 74.291 115.738 74.0774C116.139 73.8987 116.525 73.5862 116.821 73.3214C117.146 73.0314 117.481 72.6889 117.792 72.3493C118.397 71.6867 118.997 70.9347 119.283 70.4755C119.349 70.37 119.593 70.1339 120.191 69.8498C120.75 69.5844 121.462 69.3495 122.235 69.1489C123.063 68.9343 123.913 68.7715 124.639 68.6527C124.622 69.5951 124.617 70.6502 124.682 71.6501C124.766 72.9623 124.976 74.4619 125.579 75.7003C125.563 75.784 125.554 75.8706 125.554 75.9591C125.554 76.6096 125.522 77.2245 125.485 77.8462L125.469 78.1041C125.437 78.6355 125.403 79.1838 125.391 79.7315C125.364 81.0346 125.456 82.4012 125.96 83.9748C126.568 85.8706 127.64 88.3216 129.245 89.9316C129.942 90.6306 130.682 91.281 131.448 91.8925C131.385 91.9994 131.311 92.1141 131.226 92.2379C131.09 92.4362 130.943 92.6313 130.78 92.849L130.727 92.9195C130.551 93.1552 130.353 93.4208 130.175 93.694C129.792 94.2809 129.71 94.8463 129.664 95.1903C129.613 95.5711 129.603 95.6116 129.575 95.6649C129.505 95.7962 129.4 95.8739 128.69 96.2087C128.094 96.4899 127.084 96.9698 126.549 98.1771C126.006 99.4032 125.277 100.142 124.388 100.842C124.149 101.03 123.873 101.231 123.576 101.449C122.836 101.99 121.962 102.628 121.193 103.4C120.663 103.931 120.119 104.52 119.59 105.093C119.343 105.36 119.1 105.624 118.862 105.877C118.09 106.699 117.341 107.452 116.578 108.064C116.155 108.404 115.386 108.506 114.056 108.326C113.602 108.265 113.155 108.183 112.687 108.097C112.505 108.064 112.319 108.03 112.128 107.996C111.489 107.884 110.784 107.774 110.135 107.774C110.039 107.774 109.946 107.784 109.856 107.803C109.839 107.799 109.823 107.795 109.806 107.791C109.791 107.788 109.776 107.784 109.761 107.781C109.365 107.693 108.989 107.59 108.577 107.477L108.576 107.477C108.382 107.424 108.18 107.369 107.965 107.312C107.326 107.144 106.62 106.977 105.868 106.897C104.585 106.762 102.653 106.276 101.236 105.823C101.054 105.765 100.871 105.706 100.687 105.646C99.2523 105.178 97.7265 104.681 95.9399 104.681L95.7541 104.681L95.5301 104.682C94.3988 104.686 93.6321 104.689 92.879 104.353C92.3488 104.117 91.808 103.836 91.2193 103.53L91.2183 103.529L91.2171 103.529L90.8889 103.358C90.8037 103.314 90.7174 103.27 90.6299 103.225C89.8362 102.818 88.9645 102.391 88.0855 102.097C87.3931 101.866 86.6446 102.241 86.4138 102.936C86.371 103.065 86.349 103.195 86.3459 103.324V87.1107ZM86.3459 103.386V140.947C86.8846 141.03 87.3621 141.273 87.7301 141.692C88.1257 142.142 88.2859 142.685 88.3727 143.008C88.4171 143.173 88.4477 143.299 88.4735 143.405C88.5147 143.574 88.5437 143.693 88.5969 143.84C88.6294 143.929 88.6565 143.981 88.6752 144.01C88.6802 144.018 88.6843 144.024 88.6876 144.028L88.6906 144.032L88.6936 144.035C88.6967 144.039 88.6992 144.041 88.6992 144.041C89.2991 144.509 89.7387 145.09 90.063 145.518L90.0715 145.529C90.4352 146.01 90.6602 146.302 90.9162 146.507C91.4257 146.916 91.9244 147.454 92.3775 147.961C92.5146 148.115 92.6482 148.266 92.7802 148.416C93.1104 148.791 93.4305 149.154 93.7688 149.507C94.7717 150.555 95.519 151.048 96.1073 151.079C96.6434 151.107 97.3718 151.307 97.9925 151.48L98.1617 151.528L98.3618 151.584L98.3637 151.584C98.9452 151.748 99.5474 151.918 100.148 152.055C100.885 152.223 101.519 152.318 102 152.305C102.357 152.296 102.485 152.233 102.511 152.218C102.947 151.685 103.598 151.472 104.003 151.368C104.478 151.247 105.008 151.185 105.49 151.151C105.981 151.115 106.476 151.104 106.893 151.098L107.04 151.096L107.193 151.094H107.195C107.483 151.091 107.7 151.088 107.859 151.079C108.047 151.069 108.239 151.054 108.435 151.036C108.395 150.91 108.373 150.775 108.373 150.635C108.373 149.015 108.487 147.315 108.596 145.7L108.602 145.622C108.711 144.015 108.814 142.499 108.814 141.135C108.814 140.496 108.995 139.928 109.199 139.458C109.377 139.049 109.605 138.644 109.798 138.303L109.865 138.184C110.321 137.373 110.576 136.83 110.576 136.274C110.576 134.615 110.635 132.28 111.169 130.473C111.645 128.861 112.166 126.747 112.348 125.284C112.399 124.875 112.548 124.546 112.687 124.301C112.793 124.115 112.925 123.929 113.008 123.811L113.011 123.807C113.026 123.786 113.039 123.767 113.05 123.751C113.147 123.612 113.186 123.545 113.207 123.498C113.22 123.469 113.219 123.461 113.219 123.461L113.219 123.456V121.251C113.219 120.376 113.5 118.162 113.972 116.164C114.21 115.158 114.514 114.125 114.891 113.305C115.079 112.897 115.312 112.48 115.607 112.137C115.89 111.807 116.355 111.402 117.02 111.319C117.079 111.312 117.138 111.308 117.196 111.309C117.203 111.124 117.213 110.924 117.229 110.715C116.049 111.185 114.731 111.093 113.703 110.954L113.657 110.947C113.653 111.007 113.646 111.067 113.634 111.127C113.491 111.845 112.794 112.31 112.079 112.167C111.123 111.975 110.465 111.368 110.078 111.011L110.024 110.961C109.565 110.539 109.389 110.414 109.188 110.369C108.729 110.267 108.253 110.137 107.812 110.016C107.632 109.967 107.458 109.92 107.294 109.876C106.693 109.718 106.141 109.592 105.591 109.534C104.049 109.371 101.922 108.825 100.434 108.35C100.331 108.317 100.23 108.284 100.13 108.252L99.8753 108.17C98.402 107.693 97.2837 107.332 95.9399 107.332C95.8136 107.332 95.6814 107.333 95.5441 107.335C94.4816 107.345 93.1146 107.359 91.8054 106.776C91.1952 106.504 90.5553 106.171 89.9501 105.856C89.7721 105.764 89.5965 105.673 89.4262 105.585C88.6441 105.184 87.9245 104.838 87.2496 104.613C86.7061 104.431 86.3586 103.929 86.3459 103.386ZM117.72 113.846C117.677 113.866 117.631 113.883 117.585 113.898C117.515 113.988 117.413 114.152 117.292 114.415C117.022 115 116.766 115.834 116.544 116.775C116.097 118.668 115.862 120.661 115.862 121.251V123.46C115.862 124.334 115.441 124.948 115.216 125.271C115.081 125.464 115.018 125.562 114.988 125.606C114.977 125.624 114.971 125.634 114.968 125.637C114.756 127.311 114.191 129.573 113.703 131.226C113.292 132.618 113.219 134.59 113.219 136.274C113.219 137.615 112.595 138.726 112.169 139.483L112.168 139.486L112.105 139.597C111.9 139.961 111.742 140.243 111.622 140.518C111.496 140.809 111.457 140.999 111.457 141.135C111.457 142.591 111.349 144.185 111.242 145.754L111.233 145.88C111.123 147.51 111.016 149.12 111.016 150.635C111.016 150.671 111.015 150.707 111.012 150.743C111.424 150.699 111.845 150.661 112.265 150.637C118.474 150.291 124.9 146.588 130.186 142.917C130.901 142.421 131.648 141.814 132.471 141.146L132.472 141.146L132.474 141.144C133.023 140.698 133.608 140.223 134.238 139.737C135.617 138.672 137.192 137.575 138.753 137.054C138.776 137.028 138.802 136.997 138.832 136.961C139.007 136.753 139.23 136.464 139.467 136.145C139.69 135.846 139.948 135.491 140.167 135.189C140.369 134.91 140.538 134.677 140.615 134.577C141.092 133.962 141.698 133.4 142.209 132.925C142.298 132.843 142.383 132.764 142.465 132.687C143.071 132.118 143.516 131.656 143.79 131.173C144.252 130.363 144.943 129.82 145.42 129.446L145.501 129.382C146.044 128.954 146.335 128.696 146.511 128.363C146.653 128.094 146.775 127.833 146.896 127.572C147.249 126.814 147.601 126.058 148.459 125.102C149.113 124.372 149.716 123.296 150.336 122.038C150.515 121.674 150.697 121.29 150.883 120.899C151.301 120.019 151.733 119.11 152.161 118.359C152.482 117.796 152.718 117.271 152.977 116.696L152.978 116.694C153.072 116.486 153.169 116.271 153.274 116.045C153.655 115.226 154.109 114.348 154.831 113.464C154.868 113.418 154.938 113.298 155.001 113.021C155.065 112.745 155.1 112.419 155.136 112.009L155.147 111.883C155.177 111.532 155.214 111.108 155.286 110.722C155.365 110.299 155.517 109.732 155.898 109.253C156.002 109.123 156.072 108.877 156.186 108.161L156.188 108.144C156.235 107.854 156.296 107.468 156.409 107.1C156.526 106.717 156.727 106.25 157.122 105.854C157.252 105.724 157.421 105.418 157.547 104.887C157.667 104.386 157.714 103.826 157.714 103.355C157.714 101.742 158.368 100.377 158.887 99.2938L158.945 99.1727C159.51 97.9917 159.916 97.0836 159.916 96.0397C159.916 94.316 160.03 92.5995 160.139 90.9479L160.141 90.9254C160.251 89.2665 160.357 87.6758 160.357 86.1221C160.357 84.6456 160.251 83.1594 160.14 81.6332L160.135 81.5666C160.027 80.0783 159.916 78.5477 159.916 77.0393C159.916 76.5208 159.885 75.5969 159.791 74.6991C159.744 74.2503 159.684 73.8292 159.61 73.479C159.531 73.1024 159.456 72.908 159.422 72.847C159.159 72.3727 158.853 71.6158 158.617 70.8949C158.393 70.2103 158.154 69.3321 158.154 68.6683C158.154 67.085 157.988 65.4787 157.79 63.8205C157.76 63.564 157.728 63.3057 157.697 63.046C157.528 61.6505 157.353 60.2137 157.275 58.7997C157.257 58.4709 157.244 58.1683 157.231 57.8843L157.231 57.8829C157.182 56.7582 157.146 55.9262 156.859 54.9172C156.781 54.6454 156.696 54.4184 156.593 54.1448L156.592 54.1438C156.52 53.9525 156.439 53.7377 156.347 53.4694C156.153 52.9072 155.951 52.2078 155.951 51.4353C155.951 51.1467 155.854 50.7577 155.64 50.2538C155.462 49.8349 155.246 49.4275 155.017 48.9979L155.017 48.9966C154.972 48.9125 154.927 48.8276 154.881 48.7416C154.575 48.1612 154.298 47.5887 154.027 47.0268L154.002 46.9763C153.72 46.3928 153.44 45.8153 153.119 45.2066C153.003 44.986 152.871 44.774 152.727 44.5662C152.598 44.8693 152.462 45.1758 152.323 45.4771C151.992 46.1914 151.622 46.9165 151.244 47.5401C150.933 48.0521 150.558 48.5969 150.136 48.9933C150.121 49.0229 150.103 49.0587 150.082 49.1008C149.991 49.2894 149.875 49.5447 149.758 49.8151C149.642 50.0837 149.53 50.3543 149.444 50.5695C149.401 50.6777 149.368 50.7659 149.345 50.8299C149.336 50.8534 149.331 50.8697 149.327 50.8798C149.103 51.8605 148.608 53.0251 148.06 53.89C147.715 54.4326 147.527 55.1094 147.298 56.0295L147.264 56.1661C147.06 56.987 146.805 58.0169 146.275 58.9277C146.07 59.2806 145.857 59.6115 145.661 59.9133L145.606 59.9972C145.427 60.2729 145.265 60.5215 145.114 60.7727C144.788 61.3173 144.558 61.8007 144.441 62.3278C144.267 63.1162 143.981 63.8236 143.751 64.3949C143.694 64.5352 143.641 64.6674 143.593 64.7905C143.339 65.4483 143.176 66.003 143.176 66.6799C143.176 67.5233 142.839 68.2094 142.464 68.7363C142.109 69.2351 141.654 69.6784 141.296 70.0281L141.276 70.0473C140.877 70.4359 140.58 70.7286 140.361 71.0238C140.155 71.3032 140.097 71.4853 140.09 71.6183C139.992 73.2795 139.276 74.4727 138.076 75.1768C136.998 75.8097 135.675 75.9541 134.519 75.9858C133.92 76.0023 133.308 75.9883 132.729 75.972L132.474 75.9646L132.473 75.9646L132.471 75.9645C131.977 75.9502 131.511 75.9367 131.061 75.938C129.959 75.9411 129.227 76.0411 128.788 76.2611C128.721 76.2951 128.651 76.3227 128.581 76.3441C128.513 76.5705 128.383 76.7813 128.194 76.9499L128.177 76.9654C128.163 77.3264 128.143 77.6729 128.123 78.0052L128.107 78.2732C128.074 78.8075 128.045 79.2974 128.034 79.7882C128.01 80.9023 128.089 81.9555 128.477 83.1635C129.043 84.9309 129.957 86.8966 131.114 88.057C131.898 88.8428 132.741 89.561 133.627 90.2349C133.774 90.3074 133.904 90.406 134.013 90.5237C135.771 91.8186 137.683 92.9563 139.625 94.1114L139.626 94.112C140.081 94.3821 140.536 94.6532 140.992 94.9275C141.376 95.1588 141.857 95.4912 142.32 95.8111C142.564 95.9798 142.803 96.145 143.02 96.2901C143.746 96.7755 144.305 97.0923 144.665 97.1954C145.926 97.5567 146.726 98.3756 147.325 99.1119C147.553 99.3932 147.743 99.6444 147.918 99.8764C148.251 100.317 148.532 100.689 148.929 101.066C149.674 101.771 150.408 102.533 151.11 103.262C151.481 103.647 151.844 104.023 152.194 104.377C153.243 105.436 154.259 106.375 155.363 107.113C155.97 107.519 156.134 108.342 155.729 108.951C155.324 109.56 154.504 109.725 153.897 109.319C152.569 108.431 151.404 107.341 150.319 106.245C149.914 105.837 149.529 105.437 149.149 105.042L149.144 105.037L149.143 105.036C148.473 104.34 147.821 103.662 147.114 102.993C146.553 102.462 146.051 101.799 145.658 101.281C145.516 101.094 145.388 100.924 145.276 100.788C144.793 100.194 144.419 99.8823 143.938 99.7446C143.129 99.5127 142.251 98.9623 141.554 98.4965C141.243 98.2885 140.962 98.0935 140.703 97.9142C140.301 97.6355 139.954 97.3945 139.632 97.2009C139.197 96.9387 138.752 96.6749 138.302 96.4077C136.759 95.4915 135.148 94.5352 133.586 93.466C133.524 93.5631 133.462 93.6559 133.401 93.7442C133.232 93.9898 133.053 94.2291 132.894 94.4404L132.84 94.5124C132.661 94.7514 132.512 94.9533 132.387 95.1449C132.346 95.2078 132.321 95.2696 132.284 95.5431L132.279 95.5792L132.274 95.6179C132.241 95.8858 132.178 96.3995 131.911 96.9054C131.393 97.8862 130.452 98.3162 129.942 98.5494L129.866 98.5842L129.814 98.6082C129.237 98.8805 129.07 99.0154 128.964 99.2538C128.187 101.008 127.112 102.067 126.021 102.927C125.631 103.234 125.274 103.494 124.934 103.741C124.274 104.221 123.684 104.651 123.062 105.274C122.567 105.771 122.084 106.294 121.575 106.845L121.519 106.906C121.565 107.039 121.589 107.183 121.589 107.332C121.589 108.024 121.06 108.592 120.386 108.652C120.293 108.782 120.175 109.044 120.072 109.466C119.869 110.302 119.827 111.334 119.827 111.972C119.827 112.272 119.968 112.578 120.508 113.046C120.772 113.276 121.074 113.495 121.433 113.754L121.435 113.756L121.454 113.77C121.8 114.02 122.208 114.316 122.571 114.644C122.992 115.024 123.344 115.434 123.648 115.808C123.764 115.951 123.867 116.081 123.965 116.204L123.97 116.209L123.972 116.212C124.148 116.434 124.307 116.634 124.487 116.842C125.008 117.445 125.473 117.829 126.113 118.012C126.699 118.18 127.134 118.538 127.44 118.859C127.746 119.179 127.997 119.545 128.19 119.837L128.254 119.934C128.284 119.979 128.312 120.022 128.339 120.063L128.361 120.098C128.487 120.291 128.585 120.441 128.691 120.582C128.772 120.691 128.82 120.738 128.834 120.752C129.453 121.093 129.698 121.867 129.379 122.506C129.053 123.161 128.259 123.427 127.606 123.099C127.121 122.856 126.785 122.45 126.58 122.178C126.416 121.96 126.246 121.699 126.105 121.482C126.077 121.439 126.051 121.398 126.025 121.36L125.988 121.302C125.805 121.026 125.662 120.829 125.529 120.69C125.438 120.594 125.387 120.564 125.377 120.559C124.03 120.17 123.156 119.35 122.49 118.579C122.276 118.332 122.056 118.055 121.857 117.806C121.766 117.691 121.679 117.581 121.599 117.483C121.323 117.144 121.072 116.857 120.803 116.615C120.562 116.397 120.27 116.182 119.907 115.919L119.852 115.88C119.522 115.64 119.134 115.36 118.779 115.052C118.412 114.734 118.023 114.338 117.72 113.846ZM105.293 38.2285C105.283 38.2474 105.267 38.2768 105.243 38.3206C104.884 37.8132 104.45 37.4072 103.876 37.1311C103.409 36.906 102.924 36.8052 102.462 36.7469C102.051 36.695 101.584 36.6693 101.102 36.6427L100.957 36.6347C100.284 36.5972 99.6097 36.4326 98.7834 36.2307L98.6254 36.1922C97.7742 35.9848 96.7678 35.7489 95.6952 35.7489C95.2743 35.7489 94.4794 35.702 93.7147 35.5874C93.3336 35.5302 92.9896 35.4606 92.718 35.3819C92.4983 35.3183 92.3943 35.2677 92.3638 35.2529C92.3516 35.2469 92.3513 35.2468 92.3601 35.2539C91.8208 34.8211 91.1018 34.7146 90.6385 34.6725C90.099 34.6234 89.4988 34.636 88.9445 34.6665C88.4157 34.6957 87.8841 34.7442 87.436 34.7851L87.357 34.7923C86.8605 34.8376 86.5302 34.8652 86.3459 34.8652V17.7366C86.6163 17.4939 86.7865 17.1411 86.7865 16.7485C86.7865 14.5918 87.675 13.0439 88.9605 11.4771C89.3768 10.9698 89.7943 10.5061 90.235 10.0165C90.5134 9.70741 90.8009 9.38801 91.1033 9.04088C91.8468 8.18721 92.6032 7.24659 93.2205 6.16308C93.2235 6.15828 93.2414 6.13034 93.2821 6.07729C93.3268 6.01915 93.3863 5.94729 93.4601 5.86347C93.6082 5.69551 93.792 5.5045 93.9843 5.3165C94.1762 5.12896 94.3656 4.95505 94.5215 4.82097C94.6349 4.72337 94.7026 4.67133 94.73 4.65021C94.7473 4.63693 94.7487 4.63587 94.7356 4.64338C95.177 4.39039 95.5423 4.14589 95.8491 3.93888L95.8931 3.90919C96.189 3.70937 96.4058 3.56302 96.6249 3.43899C97.017 3.21693 97.4129 3.06719 98.1252 3.05018C99.0833 3.0273 100.109 2.92849 101.063 2.83655C101.612 2.78362 102.137 2.73297 102.613 2.7004C104.014 2.60442 105.277 2.62672 106.492 2.97501C107.327 3.21422 108.128 3.42733 108.9 3.63281C112.565 4.60787 115.584 5.41124 118.508 8.01816C119.957 9.30988 121.511 10.353 123.051 11.2924C122.979 11.4369 122.932 11.5971 122.916 11.7679C122.821 12.8204 122.679 13.8044 122.534 14.8174L122.533 14.8214L122.532 14.8254C122.483 15.1702 122.433 15.5182 122.384 15.8736C122.194 17.2548 122.03 18.6972 122.03 20.2835C122.03 21.3591 122.067 22.3079 122.186 23.2067L122.103 23.1933C121.97 23.1718 121.833 23.1497 121.692 23.1274C121.064 23.0291 120.369 22.9347 119.607 22.9347C118.408 22.9347 117.822 23.9011 117.611 24.2628C117.543 24.3791 117.48 24.4961 117.428 24.593L117.417 24.6135C117.367 24.7075 117.326 24.7836 117.285 24.8564C117.191 25.0207 117.143 25.0773 117.13 25.0905C116.681 25.5408 116.163 25.9045 115.539 26.3429C115.463 26.396 115.386 26.4502 115.307 26.5059C114.621 26.9895 113.814 27.578 113.166 28.391C112.266 29.5191 111.276 31.2561 110.631 32.4775C109.658 34.322 108.576 35.4381 106.91 37.1089C106.866 37.0987 106.821 37.0906 106.775 37.0848C106.059 36.9951 105.406 37.4969 105.303 38.2095L105.293 38.2273L105.293 38.2285ZM141.398 23.6386L141.398 23.6397L141.4 23.6444C141.399 23.6403 141.398 23.6386 141.398 23.6386Z" fill="#837E7E"/>
<path fill-rule="evenodd" clip-rule="evenodd" d="M62.3664 0.255849C63.2271 0.340586 64.0438 0.420983 64.9378 0.442333C66.1095 0.470314 66.9274 0.749765 67.6746 1.17292C67.9881 1.35045 68.2879 1.55303 68.5586 1.73598L68.6265 1.78185C68.9267 1.98444 69.2241 2.18253 69.5758 2.3841C69.7871 2.50521 70.0239 2.70025 70.1993 2.85111C70.4036 3.02685 70.6345 3.23949 70.8605 3.46045C71.2643 3.85512 71.8112 4.4282 72.0745 4.89032C72.5624 5.74672 73.1846 6.5324 73.8874 7.33926C74.1277 7.61516 74.3896 7.90663 74.6591 8.20646C75.1356 8.73653 75.6355 9.29271 76.0805 9.83505C77.4742 11.5338 78.7273 13.5463 78.8474 16.3493H79.2973V141.84H78.341C78.3897 141.979 78.4162 142.127 78.4162 142.282C78.4162 142.972 77.8911 143.539 77.22 143.602C77.2081 143.639 77.1944 143.685 77.1791 143.742C77.1676 143.785 77.1527 143.845 77.135 143.917C77.0777 144.149 76.9901 144.505 76.8867 144.79C76.7306 145.22 76.46 145.758 75.9236 146.176C75.6306 146.405 75.3807 146.717 75.0338 147.175L74.9758 147.252C74.6725 147.654 74.2636 148.196 73.7351 148.62C73.4155 148.876 73.0464 149.263 72.5917 149.773C72.478 149.9 72.3584 150.035 72.2345 150.176C71.8922 150.564 71.5165 150.991 71.1378 151.386C70.1617 152.406 68.7645 153.678 67.0316 153.769C66.8503 153.779 66.4393 153.875 65.7156 154.077L65.5399 154.126L65.3726 154.173C64.7896 154.338 64.1109 154.529 63.4392 154.682C62.6394 154.865 61.7478 155.019 60.9317 154.998C60.1864 154.979 59.2042 154.804 58.5251 154.036C58.4915 154.023 58.4338 154.003 58.3442 153.98C58.0915 153.915 57.7417 153.868 57.3209 153.838C56.9085 153.808 56.4758 153.798 56.0684 153.792C55.9866 153.791 55.9036 153.79 55.8208 153.789C55.5168 153.785 55.2162 153.781 54.9943 153.769C54.2676 153.728 53.5132 153.636 52.7987 153.549L52.7407 153.542C51.9922 153.451 51.2807 153.366 50.5889 153.327C43.5764 152.936 36.6144 148.823 31.3093 145.14C30.5339 144.601 29.632 143.871 28.7332 143.143L28.7321 143.142C28.1944 142.707 27.6577 142.273 27.15 141.881C25.6835 140.749 24.3513 139.877 23.2303 139.555C22.9666 139.48 22.782 139.341 22.7197 139.293C22.6307 139.225 22.554 139.154 22.4958 139.097C22.3778 138.981 22.2571 138.844 22.1464 138.712C21.9211 138.444 21.6616 138.105 21.416 137.776C21.1189 137.378 20.8594 137.018 20.6588 136.74C20.4966 136.515 20.3729 136.343 20.2985 136.247C19.9658 135.818 19.5444 135.426 19.0273 134.944L19.0251 134.942C18.9297 134.853 18.8311 134.761 18.7291 134.666C18.1256 134.099 17.4078 133.397 16.9147 132.531C16.7274 132.203 16.4274 131.952 15.8649 131.509L15.8322 131.483C15.3364 131.092 14.6167 130.525 14.153 129.646C13.8924 129.153 13.7259 128.793 13.5898 128.499C13.3089 127.892 13.1576 127.566 12.5765 126.918C11.6563 125.893 10.9183 124.522 10.294 123.254C10.0742 122.807 9.86995 122.377 9.6743 121.965C9.28123 121.136 8.92302 120.382 8.5444 119.717C8.15565 119.035 7.84675 118.349 7.57513 117.746C7.49038 117.558 7.40926 117.378 7.33048 117.209C6.98554 116.467 6.64074 115.82 6.12367 115.186C5.72551 114.698 5.53188 114.135 5.42265 113.658C5.31329 113.182 5.26651 112.686 5.23112 112.285L5.22078 112.168C5.18758 111.789 5.16245 111.503 5.11582 111.253C5.07774 111.049 5.04044 110.966 5.03207 110.947L5.03041 110.943C4.4501 110.209 4.3039 109.265 4.22046 108.726L4.21235 108.674L4.20419 108.622C4.15257 108.298 4.11586 108.088 4.06442 107.92C4.03309 107.818 4.00858 107.775 4.00191 107.764C3.37044 107.127 3.0524 106.264 2.88134 105.544C2.70261 104.792 2.64324 104.018 2.64324 103.398C2.64324 102.427 2.24634 101.563 1.67193 100.362L1.64856 100.313C1.11549 99.1991 0.440541 97.7885 0.440541 96.0823C0.440541 94.461 0.333764 92.8315 0.223194 91.1668L0.218805 91.1007C0.11064 89.4726 0 87.8072 0 86.1648C0 84.5765 0.114133 82.9954 0.223751 81.4835L0.22513 81.4645C0.335482 79.9424 0.440541 78.4934 0.440541 77.0819C0.440541 76.4862 0.475352 75.469 0.580017 74.4658C0.632362 73.9641 0.704321 73.4446 0.803859 72.9728C0.897844 72.5273 1.03733 72.0179 1.26767 71.6021C1.41539 71.3354 1.66032 70.7554 1.87206 70.1094C2.09573 69.4271 2.2027 68.9083 2.2027 68.7109C2.2027 66.9574 2.38681 65.2159 2.58512 63.549C2.61714 63.2798 2.64946 63.0131 2.68151 62.7485C2.85076 61.3516 3.01274 60.0146 3.08582 58.6953C3.09998 58.4396 3.11058 58.1833 3.12125 57.9252C3.16924 56.7652 3.21872 55.5687 3.59965 54.2314C3.7012 53.8749 3.85966 53.4488 3.99249 53.0916C4.05542 52.9223 4.11267 52.7683 4.15531 52.6448C4.31925 52.1698 4.40541 51.8042 4.40541 51.478C4.40541 50.6647 4.6599 49.8893 4.92788 49.2579C5.15554 48.7216 5.43644 48.1943 5.66429 47.7666L5.66487 47.7656C5.7061 47.6882 5.7456 47.614 5.78272 47.5437C6.06668 47.0057 6.32542 46.4704 6.60275 45.8965L6.61923 45.8624C6.90015 45.2812 7.19884 44.6643 7.54488 44.0087C8.01819 43.112 8.64254 42.3499 9.25916 41.6809C9.18599 41.0214 9.61552 40.397 10.2758 40.2442C10.4072 40.2138 10.5385 40.2042 10.6664 40.2132C11.2336 39.612 11.7098 39.0533 12.0687 38.4234C12.5829 37.5209 13.3359 36.646 13.9755 35.903C14.1966 35.6462 14.4043 35.4048 14.5837 35.1838C15.3701 34.215 15.8135 33.4432 15.8617 32.6206C15.9056 31.8724 16.182 31.1834 16.4867 30.6039C16.794 30.0193 17.1843 29.448 17.5393 28.9401C17.5986 28.8552 17.6568 28.7722 17.7139 28.6909C18.0154 28.2613 18.2854 27.8764 18.5154 27.4976C18.7904 27.0447 18.942 26.7036 18.9992 26.4457C19.1497 25.7663 19.5596 25.2936 19.9057 24.9823C20.2047 24.7135 20.5591 24.4782 20.8194 24.3053L20.9063 24.2474C21.2172 24.0397 21.4024 23.9045 21.5241 23.7794C21.5688 23.7335 21.5891 23.7047 21.5974 23.6908C21.6281 23.4489 21.708 23.2368 21.7632 23.1046C21.8279 22.9497 21.9066 22.7937 21.9868 22.6476C22.1479 22.3542 22.3507 22.0368 22.5575 21.7405C22.7649 21.4433 22.9916 21.1455 23.2071 20.8934C23.3865 20.6834 23.6655 20.3747 23.9698 20.1839C24.8779 19.6147 25.8397 18.751 26.8559 17.7578C27.1787 17.4423 27.5121 17.1082 27.8489 16.7709C28.5245 16.0939 29.2136 15.4037 29.8558 14.8239C31.929 12.9524 34.2489 11.6038 36.4466 10.3263L36.479 10.3075C38.72 9.00477 40.8394 7.76973 42.7355 6.07924C46.1694 3.01764 49.8757 2.04121 53.5765 1.06624C54.3124 0.872365 55.0481 0.678552 55.7814 0.468413C57.4319 -0.00459898 59.0526 -0.00578214 60.5672 0.0979569C61.2095 0.141956 61.7976 0.19985 62.3664 0.255849ZM12.2384 42.4002C12.9655 41.6497 13.7693 40.7822 14.3637 39.7387C14.7424 39.074 15.2323 38.5052 15.8067 37.8383C16.0659 37.5374 16.3424 37.2163 16.6335 36.8577C17.4822 35.8121 18.4004 34.4823 18.5004 32.7763C18.5127 32.567 18.601 32.266 18.8247 31.8406C19.0458 31.4201 19.3476 30.9714 19.7038 30.4618C19.7556 30.3876 19.809 30.3117 19.8632 30.2344C20.1634 29.807 20.493 29.3377 20.773 28.8766C21.0961 28.3445 21.4168 27.7239 21.5709 27.0585C21.5841 27.0414 21.6132 27.0076 21.6701 26.9565C21.8173 26.8241 22.0069 26.6975 22.3073 26.497L22.3717 26.4539C22.663 26.2593 23.0732 25.9833 23.416 25.6309C23.7609 25.2763 24.1033 24.7795 24.2071 24.1151C24.225 24.0742 24.2555 24.0115 24.302 23.9268C24.4055 23.7384 24.5538 23.5032 24.7229 23.2609C24.8914 23.0194 25.0655 22.7925 25.214 22.6188C25.2884 22.5317 25.3478 22.4681 25.3899 22.4267C25.3982 22.4186 25.405 22.4121 25.4103 22.4072C26.5625 21.6777 27.682 20.6522 28.7006 19.6565C29.0795 19.2862 29.4403 18.9245 29.7889 18.5751C30.4303 17.932 31.0301 17.3307 31.6241 16.7945C33.3933 15.1975 35.3882 14.0075 37.5234 12.7648C37.6196 13.637 37.7409 14.4796 37.8576 15.2906C37.9057 15.6251 37.9532 15.955 37.9977 16.2786C38.1823 17.6204 38.327 18.9217 38.327 20.3261C38.327 22.981 38.0914 24.4733 36.9515 26.5313C36.5072 27.3333 36.5163 28.172 36.5214 28.6368C36.5219 28.68 36.5223 28.72 36.5223 28.7565C36.5228 29.2743 36.4779 29.3599 36.4139 29.4401C35.7554 30.2657 35.1295 31.697 34.878 32.5798C34.3139 34.5601 33.2304 36.7534 31.807 37.8242C31.2231 38.2634 31.1048 39.0943 31.5427 39.68C31.9807 40.2657 32.809 40.3844 33.393 39.9451C35.5139 38.3496 36.8038 35.4699 37.4196 33.3081C37.6107 32.6372 38.1074 31.5608 38.478 31.0963C39.1668 30.2327 39.166 29.2886 39.1656 28.7542C39.165 28.1301 39.1751 27.9758 39.2621 27.8189C39.6079 27.1945 39.8863 26.6052 40.1096 26.0294C40.5497 25.9781 40.9746 25.9092 41.363 25.8462C41.4845 25.8265 41.6029 25.8073 41.7166 25.7895C42.2057 25.7128 42.6523 25.6534 43.1019 25.6347L43.1082 25.6455C43.1488 25.7149 43.1908 25.7924 43.244 25.8917L43.2575 25.9168C43.3046 26.0047 43.3612 26.1103 43.4204 26.2142C43.5456 26.4341 43.7329 26.7392 44.0006 27.0078C44.6255 27.6345 45.344 28.1372 45.9463 28.5586C46.0239 28.6128 46.0995 28.6657 46.1728 28.7174C46.8588 29.2011 47.381 29.602 47.7701 30.0898C48.5029 31.0086 49.3959 32.5544 50.0326 33.7606C51.2318 36.0327 52.6147 37.4179 54.3299 39.136L54.5736 39.3801C54.8316 39.639 55.1699 39.7684 55.5081 39.7684C55.5081 40.3235 55.8483 40.799 56.331 40.9964C55.1111 42.872 53.4267 43.7643 50.8895 45.1083C50.7568 45.1786 50.6218 45.2501 50.4843 45.3231C48.4035 46.4281 46.9767 48.0049 45.7538 49.6152C45.298 50.2152 44.8859 50.7952 44.4829 51.3625C43.7552 52.3866 43.0567 53.3697 42.1852 54.3532C41.8154 54.7705 41.7562 55.3568 41.9908 55.8274C41.9789 55.8424 41.9673 55.8572 41.9559 55.8718C41.6951 56.2065 41.4561 56.5901 41.2489 56.9512C41.0394 57.3162 40.844 57.691 40.6771 58.0139L40.6141 58.1359L40.6136 58.137C40.4696 58.4158 40.3569 58.6343 40.2633 58.7985C39.5429 60.063 39.1296 60.7533 38.1757 61.7101C38.1219 61.7641 38.0678 61.8181 38.0137 61.8721L38.0112 61.8746C37.4193 62.4659 36.8201 63.0644 36.4017 63.7682C35.8974 64.6166 35.6838 65.5435 35.6838 66.747C35.6838 66.8606 35.6845 66.9759 35.6857 67.0927C35.6823 67.1531 35.6832 67.2129 35.6879 67.2718C35.692 67.5596 35.6986 67.8562 35.7054 68.1598C35.7292 69.2198 35.7549 70.3659 35.6805 71.522C35.62 72.463 35.4966 73.26 35.3091 73.8911C34.2813 73.4052 33.0276 73.3325 31.9463 73.3294C31.4505 73.328 30.9366 73.343 30.4442 73.3573L30.1968 73.3644C29.6192 73.3807 29.0719 73.3924 28.5532 73.3782C27.474 73.3486 26.7275 73.2063 26.2585 72.9311C25.9108 72.7271 25.601 72.3907 25.5491 71.5052C25.5004 70.6751 25.1441 70.0044 24.7619 69.4874C24.4082 69.0088 23.9673 68.5792 23.6163 68.2373L23.5668 68.189C23.1715 67.8036 22.8866 67.5182 22.6876 67.2385C22.502 66.9777 22.4676 66.8243 22.4676 66.7225C22.4676 65.5648 22.1715 64.6525 21.8715 63.8755C21.7978 63.6848 21.7272 63.5088 21.6601 63.3417C21.442 62.7982 21.2615 62.3486 21.1389 61.7953C20.9346 60.8727 20.5471 60.1095 20.1502 59.448C19.9734 59.1535 19.7855 58.8645 19.6106 58.5955L19.5541 58.5086C19.3584 58.2074 19.177 57.9251 19.008 57.6345C18.6755 57.0628 18.5007 56.3692 18.2664 55.4292L18.2628 55.4147C18.0488 54.5559 17.7771 53.4656 17.1703 52.5092C16.7679 51.875 16.3921 50.9749 16.2441 50.3067C16.2012 50.1134 16.0867 49.8214 16.0122 49.6334C15.9153 49.3887 15.7922 49.0922 15.6666 48.802C15.5418 48.5136 15.4089 48.2183 15.2927 47.9797C15.2356 47.8625 15.1746 47.7427 15.1156 47.6387C15.0867 47.5878 15.0487 47.5237 15.0042 47.4588L15.0019 47.4555C14.9754 47.4166 14.8713 47.2641 14.7026 47.1288C14.5889 47.0376 14.3471 46.753 14.0146 46.2048C13.7044 45.6935 13.3803 45.0631 13.0749 44.4033C12.7433 43.6871 12.4541 42.9807 12.2384 42.4002ZM38.6721 65.1258C38.5391 65.3497 38.4308 65.6123 38.373 66.0132C39.2367 66.1449 40.3395 66.3431 41.4259 66.6246C42.2813 66.8464 43.1702 67.1308 43.9398 67.4963C44.6701 67.8432 45.4823 68.3497 45.958 69.113C46.1193 69.3719 46.5956 69.9863 47.1569 70.6006C47.43 70.8994 47.7004 71.1731 47.9371 71.3846C48.0552 71.4902 48.1549 71.5713 48.2344 71.6292C48.2955 71.6737 48.329 71.693 48.3374 71.6979L48.3395 71.6991L48.3354 71.6973C49.5461 72.237 50.3146 73.2789 50.8508 74.026L50.9653 74.1856C51.5205 74.9604 51.845 75.4132 52.2437 75.6632C53.2094 76.2686 54.0958 77.071 54.8881 77.8586C55.2875 78.2557 55.6755 78.6618 56.0433 79.0478L56.1131 79.1211C56.4591 79.4844 56.7853 79.8268 57.1035 80.1459C59.2084 82.2572 62.2084 82.7966 65.7765 83.0847C66.2908 83.1262 66.8218 83.1629 67.3608 83.2003L67.362 83.2003C68.6168 83.2872 69.915 83.3771 71.1466 83.5369C72.9318 83.7685 74.7338 84.1615 76.364 84.9791C76.4715 85.033 76.5685 85.0996 76.6541 85.1763V37.559C76.3232 37.559 75.8541 37.5163 75.4131 37.4761L75.3362 37.4691C74.8795 37.4275 74.39 37.3828 73.9103 37.3564C73.4006 37.3283 72.9496 37.3237 72.6002 37.3555C72.382 37.3753 72.2737 37.404 72.2365 37.4138L72.227 37.4163C71.847 37.6995 71.3819 37.8654 71.0155 37.9716C70.5917 38.0944 70.1233 38.185 69.676 38.2521C68.784 38.3858 67.8585 38.4428 67.3048 38.4428C66.5861 38.4428 65.862 38.6007 64.9986 38.8111L64.7946 38.8611C64.022 39.0508 63.1181 39.2727 62.1895 39.3245L62.0712 39.3311C61.5543 39.3597 61.182 39.3804 60.8683 39.42C60.5416 39.4612 60.3723 39.5134 60.2671 39.564C60.1273 39.6313 59.8819 39.7896 59.457 40.7486C57.8166 44.4506 55.2334 45.8131 52.2727 47.3746L52.2713 47.3754C52.0893 47.4713 51.9058 47.5681 51.7211 47.6662C50.1359 48.5079 48.9871 49.733 47.8564 51.2218C47.5038 51.686 47.1382 52.1991 46.7558 52.7358C46.1346 53.6076 45.4691 54.5416 44.7431 55.4294C44.7617 55.4602 44.7793 55.492 44.7956 55.5248C45.1176 56.1708 44.8644 56.9545 44.2307 57.2898C44.2307 57.2898 44.2286 57.2921 44.2241 57.2963C44.2046 57.3143 44.1416 57.3722 44.0384 57.5046C43.8878 57.6978 43.7198 57.96 43.5398 58.2737C43.362 58.5836 43.1898 58.9128 43.0239 59.234L42.9625 59.3528C42.8236 59.6221 42.6815 59.8977 42.5583 60.1139C41.811 61.4256 41.2568 62.3691 40.0447 63.5848L39.991 63.6387C39.281 64.3508 38.9141 64.7187 38.6721 65.1258ZM38.3182 71.6927C38.3826 70.6928 38.3779 69.6377 38.3612 68.6953C39.0873 68.8142 39.9367 68.977 40.7645 69.1915C41.5384 69.3921 42.2497 69.627 42.8085 69.8924C43.4066 70.1765 43.6507 70.4126 43.7165 70.5181C44.0026 70.9773 44.6028 71.7293 45.2083 72.3919C45.5186 72.7315 45.8541 73.074 46.1786 73.364C46.4748 73.6288 46.8609 73.9413 47.2619 74.12C47.741 74.3336 48.143 74.7911 48.7057 75.575C48.7285 75.6068 48.7518 75.6396 48.7757 75.6732L48.8647 75.7991C49.3282 76.4557 49.9692 77.3638 50.8428 77.9114C51.558 78.3598 52.2796 78.9983 53.0274 79.7417C53.3981 80.1102 53.7632 80.4921 54.1323 80.8795L54.2073 80.9582C54.5479 81.3158 54.894 81.6792 55.2344 82.0206C58.0887 84.8836 62.0105 85.4404 65.5645 85.7273C66.146 85.7743 66.7142 85.8136 67.2721 85.8521L67.2742 85.8522C68.4896 85.9362 69.6565 86.0169 70.8075 86.1662C72.4632 86.381 73.9319 86.7235 75.1819 87.3504C75.6808 87.6006 76.262 87.5046 76.6541 87.1533V103.367C76.651 103.238 76.629 103.107 76.5862 102.979C76.3554 102.284 75.6069 101.909 74.9145 102.14C74.0355 102.434 73.1638 102.86 72.3701 103.268C72.1686 103.371 71.9733 103.472 71.783 103.571L71.7817 103.572L71.7807 103.573C71.192 103.878 70.6512 104.159 70.121 104.396C69.3679 104.731 68.6012 104.729 67.4699 104.724H67.4672C67.3365 104.724 67.201 104.723 67.0601 104.723C65.2735 104.723 63.7477 105.221 62.3133 105.688C62.1988 105.725 62.0848 105.763 61.9714 105.799L61.862 105.835L61.7645 105.866C60.3471 106.318 58.4154 106.804 57.1319 106.94C56.3797 107.019 55.6737 107.186 55.0345 107.355C54.8191 107.411 54.6171 107.467 54.4228 107.52C54.0114 107.632 53.6348 107.735 53.239 107.823C53.2227 107.827 53.2065 107.831 53.1903 107.835C53.1749 107.838 53.1595 107.842 53.1442 107.846C53.0542 107.827 52.9607 107.816 52.8649 107.816C52.2158 107.816 51.5114 107.926 50.8718 108.039C50.681 108.073 50.4953 108.107 50.3128 108.14C49.8446 108.226 49.3981 108.307 48.9439 108.369C47.6135 108.549 46.8446 108.446 46.4216 108.107C45.659 107.495 44.91 106.741 44.1379 105.92C43.9004 105.667 43.657 105.403 43.4104 105.136C42.8813 104.563 42.337 103.974 41.8069 103.442C41.0379 102.671 40.1649 102.033 39.4251 101.492C39.1278 101.275 38.8508 101.072 38.612 100.884C37.7235 100.184 36.9942 99.4458 36.451 98.2197C35.916 97.0124 34.9065 96.5325 34.3098 96.2513C33.5995 95.9165 33.4947 95.8388 33.4254 95.7075C33.3973 95.6543 33.3868 95.6138 33.3358 95.2329C33.2898 94.8889 33.2076 94.3235 32.8251 93.7367C32.647 93.4634 32.4494 93.1978 32.2728 92.9622L32.2199 92.8916C32.0567 92.6739 31.9103 92.4788 31.7739 92.2806C31.6886 92.1567 31.6148 92.0421 31.5516 91.9351C32.3183 91.3236 33.0579 90.6732 33.7548 89.9743C35.36 88.3642 36.4324 85.9132 37.0399 84.0174C37.5442 82.4439 37.6364 81.0772 37.6086 79.7742C37.5969 79.2264 37.5634 78.6781 37.531 78.1467L37.5154 77.8888C37.4781 77.2671 37.4459 76.6522 37.4459 76.0017C37.4459 75.9132 37.4373 75.8266 37.4208 75.7429C38.0243 74.5046 38.2338 73.0049 38.3182 71.6927ZM76.6541 140.99V103.429C76.6414 103.972 76.2939 104.474 75.7504 104.655C75.0755 104.881 74.3559 105.227 73.5738 105.628C73.4033 105.715 73.2281 105.806 73.0499 105.899C72.4447 106.214 71.8049 106.546 71.1946 106.818C69.8854 107.402 68.5184 107.388 67.4559 107.377L67.2688 107.375C67.1976 107.375 67.128 107.375 67.0601 107.375C65.7163 107.375 64.598 107.736 63.1247 108.212L63.1228 108.213L62.9115 108.281C62.7985 108.318 62.6834 108.355 62.5659 108.392C61.0776 108.867 58.9507 109.414 57.4086 109.577C56.8585 109.635 56.3067 109.761 55.7064 109.919C55.5417 109.962 55.3676 110.01 55.1877 110.059C54.747 110.179 54.2712 110.309 53.8124 110.411C53.611 110.456 53.4355 110.582 52.9765 111.003L52.9215 111.054C52.535 111.411 51.8769 112.018 50.9214 112.209C50.2056 112.353 49.5094 111.887 49.3662 111.169C49.3542 111.109 49.3465 111.049 49.3428 110.99L49.2972 110.996C48.2692 111.135 46.9507 111.228 45.7715 110.758C45.7867 110.967 45.797 111.167 45.8039 111.351C45.862 111.351 45.9209 111.354 45.9801 111.362C46.6445 111.445 47.1097 111.85 47.3932 112.18C47.6882 112.523 47.9212 112.94 48.1086 113.347C48.4862 114.168 48.7902 115.201 49.0277 116.206C49.4996 118.204 49.7811 120.419 49.7811 121.293V123.503C49.7811 123.503 49.7789 123.509 49.7928 123.54C49.8137 123.587 49.8528 123.655 49.9496 123.794C49.9616 123.811 49.9758 123.831 49.9918 123.853C50.0754 123.972 50.2071 124.158 50.313 124.343C50.4523 124.588 50.601 124.918 50.652 125.327C50.8343 126.79 51.3553 128.904 51.8314 130.515C52.3655 132.323 52.4243 134.658 52.4243 136.317C52.4243 136.873 52.6793 137.415 53.1351 138.227L53.202 138.345C53.3947 138.687 53.6232 139.092 53.801 139.501C54.0051 139.971 54.1865 140.539 54.1865 141.178C54.1865 142.542 54.2894 144.058 54.3985 145.665L54.4037 145.742C54.5133 147.358 54.627 149.058 54.627 150.678C54.627 150.818 54.6054 150.952 54.5654 151.079C54.7612 151.097 54.9528 151.111 55.1409 151.122C55.3 151.131 55.5174 151.133 55.8052 151.137H55.8064C55.899 151.138 55.9994 151.139 56.1069 151.141C56.5244 151.147 57.0191 151.158 57.5099 151.193C57.9923 151.228 58.5216 151.289 58.9969 151.411C59.4019 151.514 60.0527 151.727 60.4893 152.261C60.5151 152.275 60.6428 152.338 61.0002 152.348C61.4808 152.36 62.1147 152.266 62.8524 152.097C63.4526 151.96 64.0541 151.791 64.6356 151.627L64.6368 151.627L64.6382 151.626L64.6395 151.626C64.7631 151.591 64.8859 151.557 65.0075 151.523C65.6282 151.35 66.3566 151.15 66.8927 151.121C67.481 151.09 68.2283 150.597 69.2312 149.55C69.5695 149.196 69.8895 148.833 70.2197 148.459C70.3517 148.309 70.4854 148.157 70.6225 148.004C71.0756 147.496 71.5743 146.958 72.0839 146.55C72.3398 146.344 72.5648 146.053 72.9285 145.572L72.937 145.561C73.2613 145.132 73.7009 144.551 74.3008 144.084C74.3008 144.084 74.3034 144.081 74.3064 144.078C74.3079 144.076 74.31 144.074 74.3127 144.07L74.3165 144.065C74.319 144.062 74.3217 144.058 74.3248 144.053C74.3435 144.024 74.3706 143.972 74.4031 143.882C74.4563 143.736 74.4853 143.617 74.5265 143.447C74.5523 143.341 74.5829 143.215 74.6273 143.05C74.7141 142.728 74.8743 142.185 75.2699 141.735C75.6379 141.316 76.1154 141.073 76.6541 140.99ZM45.4153 113.94C45.3688 113.926 45.3235 113.908 45.2795 113.889C44.9771 114.38 44.5876 114.777 44.2211 115.094C43.8661 115.402 43.4785 115.683 43.148 115.922L43.0932 115.962C42.7297 116.225 42.4376 116.44 42.197 116.657C41.9282 116.9 41.6769 117.186 41.4008 117.526C41.3212 117.624 41.2342 117.733 41.1427 117.848C40.944 118.098 40.7236 118.375 40.5099 118.622C39.844 119.392 38.9698 120.213 37.6234 120.601C37.6129 120.607 37.5623 120.637 37.4709 120.733C37.3383 120.872 37.1949 121.069 37.0124 121.345L36.9842 121.388C36.9574 121.429 36.9289 121.472 36.8992 121.518L36.8951 121.524L36.8943 121.526C36.7532 121.742 36.5834 122.003 36.4197 122.221C36.2153 122.493 35.8793 122.898 35.3938 123.142C34.7409 123.469 33.947 123.204 33.6206 122.549C33.3019 121.91 33.5467 121.135 34.1662 120.794C34.1806 120.78 34.2283 120.732 34.3095 120.624C34.415 120.484 34.5128 120.334 34.6388 120.14C34.6903 120.061 34.7465 119.975 34.8099 119.879C35.0029 119.587 35.2543 119.222 35.5599 118.901C35.8656 118.58 36.3005 118.223 36.8871 118.055C37.527 117.872 37.992 117.488 38.5129 116.885C38.693 116.677 38.8517 116.477 39.0281 116.255C39.1279 116.129 39.2338 115.996 39.3521 115.851C39.6558 115.477 40.0081 115.066 40.4288 114.687C40.792 114.359 41.1995 114.063 41.5458 113.812L41.5647 113.799C41.9243 113.538 42.2272 113.319 42.4921 113.089C43.0316 112.621 43.173 112.314 43.173 112.014C43.173 111.377 43.1305 110.345 42.9277 109.509C42.8251 109.086 42.7069 108.824 42.614 108.695C41.9396 108.635 41.4108 108.067 41.4108 107.375C41.4108 107.225 41.4354 107.082 41.4806 106.948L41.4269 106.89L41.4248 106.888C40.9162 106.337 40.4327 105.813 39.9378 105.317C39.3164 104.694 38.7256 104.264 38.066 103.784C37.7265 103.536 37.3688 103.276 36.9794 102.969C35.8884 102.11 34.8129 101.051 34.0355 99.2964C33.9299 99.058 33.7634 98.9231 33.1857 98.6508L33.1507 98.6345L33.1191 98.6199L33.0583 98.5921C32.5479 98.3588 31.607 97.9288 31.0893 96.948C30.8223 96.4421 30.7587 95.9285 30.7256 95.6605L30.7222 95.6335L30.7161 95.5858C30.6795 95.3122 30.6538 95.2505 30.6128 95.1875C30.4879 94.9959 30.3389 94.794 30.1598 94.555L30.1058 94.483C29.9473 94.2717 29.7677 94.0324 29.5987 93.7869C29.5379 93.6985 29.4758 93.6057 29.4138 93.5086C27.8515 94.5778 26.2409 95.5341 24.6978 96.4504C24.2478 96.7175 23.8035 96.9814 23.3678 97.2435C23.0462 97.4371 22.6987 97.6781 22.2969 97.9567C22.0383 98.1361 21.757 98.3311 21.4458 98.5391C20.7487 99.0049 19.8708 99.5553 19.0616 99.7872C18.581 99.9249 18.2066 100.236 17.7236 100.83C17.6124 100.967 17.4844 101.136 17.3419 101.324C16.9491 101.842 16.4468 102.504 15.8858 103.036C15.1795 103.705 14.5274 104.382 13.857 105.078C13.4754 105.475 13.0879 105.877 12.6811 106.288C11.5957 107.384 10.4309 108.474 9.10337 109.361C8.49605 109.767 7.6755 109.603 7.27061 108.994C6.86573 108.384 7.02984 107.561 7.63717 107.155C8.74079 106.417 9.75686 105.478 10.8061 104.419C11.1563 104.066 11.5184 103.69 11.8895 103.305C12.5918 102.576 13.3265 101.814 14.0709 101.108C14.4686 100.732 14.749 100.36 15.0819 99.919C15.257 99.6871 15.4466 99.4359 15.6753 99.1545C16.2742 98.4182 17.0744 97.5994 18.3354 97.238C18.6949 97.135 19.2538 96.8181 19.9803 96.3327C20.1971 96.1878 20.4355 96.0229 20.679 95.8546L20.6803 95.8537C21.1429 95.5338 21.6235 95.2015 22.0079 94.9701C22.464 94.6957 22.9201 94.4244 23.3746 94.154C25.3166 92.9989 27.2294 91.8612 28.9871 90.5663C29.0957 90.4486 29.2259 90.3501 29.3731 90.2775C30.2591 89.6036 31.1023 88.8854 31.8857 88.0996C33.0426 86.9392 33.9571 84.9735 34.5235 83.2061C34.9106 81.9981 34.9897 80.9449 34.9659 79.8308C34.9555 79.3401 34.9257 78.8505 34.8931 78.3162L34.8769 78.0478C34.857 77.7155 34.8374 77.369 34.8234 77.008L34.8057 76.9925C34.6166 76.8239 34.4872 76.6131 34.4189 76.3867C34.3488 76.3653 34.2795 76.3377 34.2117 76.3037C33.773 76.0837 33.0412 75.9837 31.9389 75.9806C31.4881 75.9794 31.0211 75.9929 30.5258 76.0073L30.2711 76.0146C29.6921 76.0309 29.08 76.0449 28.4809 76.0285C27.3246 75.9968 26.0021 75.8523 24.9237 75.2194C24.5607 75.0064 24.242 74.7487 23.9713 74.4467C23.7326 74.5963 23.4593 74.7968 23.1654 75.0308C22.8479 75.2837 22.5312 75.5555 22.2337 75.8136L22.103 75.9272C21.862 76.1367 21.6234 76.3441 21.4331 76.4968C21.1203 76.7479 20.808 76.9934 20.4969 77.238C19.3865 78.1112 18.2907 78.9728 17.2345 80.0322C16.7184 80.5499 15.8816 80.5499 15.3655 80.0322C14.8493 79.5145 14.8493 78.6752 15.3655 78.1575C16.5462 76.9732 17.8044 75.9847 18.9306 75.1C19.2246 74.869 19.5096 74.645 19.7819 74.4266C19.9277 74.3096 20.1175 74.1446 20.3617 73.9324L20.5044 73.8085C20.8052 73.5476 21.1577 73.2445 21.5219 72.9544C21.8827 72.6671 22.2805 72.372 22.675 72.1342C22.7563 72.0852 22.8443 72.0344 22.9378 71.9842C22.926 71.8785 22.9168 71.7707 22.9104 71.6609C22.9026 71.5279 22.8452 71.3458 22.6386 71.0664C22.4204 70.7712 22.1227 70.4785 21.7242 70.0899L21.7048 70.071C21.3461 69.7212 20.8913 69.2778 20.5362 68.7789C20.1613 68.2521 19.8243 67.5659 19.8243 66.7225C19.8243 66.0456 19.6607 65.4909 19.4067 64.8331C19.3592 64.7101 19.306 64.5782 19.2494 64.438C19.0189 63.8667 18.7333 63.1588 18.5586 62.3704C18.4419 61.8433 18.2124 61.3599 17.8856 60.8153C17.7348 60.5641 17.5732 60.3155 17.394 60.0398L17.3394 59.9559C17.1434 59.6542 16.93 59.3233 16.7248 58.9703C16.195 58.0595 15.9396 57.0297 15.736 56.2087L15.7021 56.0722C15.4728 55.152 15.2845 54.4752 14.9403 53.9326C14.3916 53.0678 13.8966 51.9031 13.6729 50.9224L13.6647 50.8989L13.6553 50.8725C13.6322 50.8085 13.5985 50.7203 13.5557 50.6121C13.4705 50.3969 13.3582 50.1263 13.2419 49.8577C13.1249 49.5873 13.0095 49.332 12.9177 49.1434C12.8971 49.1013 12.8793 49.0655 12.8641 49.0359C12.4421 48.6395 12.0669 48.0947 11.7564 47.5827C11.3782 46.9592 11.0081 46.234 10.6774 45.5198C10.5379 45.2184 10.4023 44.9119 10.2734 44.6089C10.1286 44.8166 9.99738 45.0286 9.88095 45.2492C9.55965 45.8579 9.27979 46.4354 8.99772 47.019L8.97336 47.0694C8.70179 47.6313 8.42508 48.2039 8.11878 48.7842C8.07363 48.8697 8.02871 48.9542 7.98425 49.0378L7.98314 49.0399C7.75472 49.4694 7.5377 49.8775 7.35989 50.2964C7.14602 50.8003 7.04865 51.1893 7.04865 51.478C7.04865 52.2504 6.84717 52.9498 6.65313 53.5121C6.56055 53.7803 6.47984 53.9945 6.40776 54.1859C6.3044 54.4602 6.21874 54.6875 6.14119 54.9598C5.85374 55.9689 5.81761 56.8007 5.76875 57.9255C5.7564 58.2098 5.74324 58.5129 5.72499 58.8423C5.64667 60.2563 5.47239 61.693 5.3031 63.0886L5.30287 63.0905C5.27144 63.3496 5.24018 63.6073 5.20974 63.8631C5.01247 65.5213 4.84595 67.1276 4.84595 68.7109C4.84595 69.3747 4.60747 70.2529 4.38307 70.9375C4.14674 71.6584 3.841 72.4153 3.57828 72.8896C3.54447 72.9507 3.46929 73.145 3.38985 73.5216C3.31595 73.8719 3.25573 74.2929 3.20891 74.7417C3.11524 75.6396 3.08378 76.5635 3.08378 77.0819C3.08378 78.5903 2.97279 80.1209 2.86486 81.6092L2.86003 81.6758C2.74938 83.202 2.64324 84.6882 2.64324 86.1648C2.64324 87.7184 2.7489 89.3091 2.8591 90.968L2.86059 90.9905C2.97029 92.6421 3.08378 94.3586 3.08378 96.0823C3.08378 97.1262 3.49024 98.0344 4.0551 99.2153L4.1131 99.3364C4.63222 100.419 5.28649 101.784 5.28649 103.398C5.28649 103.869 5.33339 104.428 5.45254 104.93C5.57869 105.46 5.74832 105.767 5.87837 105.897C6.27268 106.293 6.47415 106.759 6.59143 107.143C6.70385 107.51 6.76545 107.897 6.8116 108.187L6.81431 108.204C6.92832 108.919 6.9976 109.165 7.10168 109.296C7.48336 109.774 7.63476 110.342 7.71383 110.765C7.78601 111.151 7.82267 111.574 7.85311 111.926L7.86405 112.051C7.9003 112.462 7.93525 112.788 7.99858 113.064C8.06203 113.341 8.13207 113.461 8.16943 113.507C8.89072 114.391 9.34469 115.268 9.72588 116.088C9.8312 116.314 9.92841 116.53 10.0227 116.739C10.2817 117.314 10.5184 117.838 10.8394 118.402C11.2674 119.153 11.6988 120.061 12.1172 120.942C12.3025 121.332 12.4855 121.717 12.6642 122.08C13.2835 123.339 13.8866 124.415 14.5412 125.144C15.399 126.1 15.7509 126.856 16.1039 127.615C16.2253 127.875 16.3468 128.136 16.4891 128.406C16.6645 128.738 16.9558 128.996 17.4987 129.425L17.5796 129.488C18.0566 129.863 18.7481 130.406 19.2097 131.216C19.4844 131.698 19.9295 132.161 20.5353 132.73C20.6168 132.806 20.7023 132.886 20.7906 132.968C21.3021 133.442 21.9081 134.004 22.385 134.619C22.4622 134.719 22.6308 134.952 22.8326 135.23L22.8334 135.232L22.8344 135.233L22.8377 135.238L22.8403 135.241C23.0574 135.541 23.3119 135.892 23.5326 136.188C23.7704 136.507 23.9931 136.796 24.1678 137.004C24.1977 137.039 24.2242 137.07 24.2473 137.097C25.8082 137.617 27.3826 138.715 28.7621 139.779C29.3936 140.267 29.9783 140.742 30.529 141.189C31.3515 141.857 32.0989 142.463 32.8138 142.96C38.0997 146.63 44.526 150.334 50.7355 150.68C51.155 150.703 51.5758 150.741 51.9881 150.785C51.9852 150.75 51.9838 150.714 51.9838 150.678C51.9838 149.163 51.8772 147.553 51.7666 145.922L51.758 145.797C51.6515 144.227 51.5432 142.633 51.5432 141.178C51.5432 141.041 51.5044 140.851 51.378 140.561C51.2584 140.285 51.1001 140.004 50.8949 139.639L50.8324 139.528L50.8307 139.525C50.4054 138.768 49.7811 137.657 49.7811 136.317C49.7811 134.633 49.7084 132.661 49.2971 131.268C48.809 129.616 48.2435 127.354 48.0321 125.68C48.0293 125.676 48.0233 125.667 48.0116 125.649C47.9825 125.604 47.9185 125.506 47.7837 125.313C47.5588 124.991 47.1378 124.377 47.1378 123.503V121.293C47.1378 120.704 46.9028 118.711 46.4556 116.817C46.2336 115.877 45.9775 115.043 45.7085 114.458C45.5874 114.195 45.4855 114.03 45.4153 113.94ZM57.757 38.3632C58.1165 37.8558 58.5501 37.4498 59.1235 37.1738C59.5913 36.9486 60.0761 36.8478 60.5385 36.7895C60.9493 36.7377 61.4159 36.7119 61.898 36.6854L62.0429 36.6773C62.7165 36.6398 63.3903 36.4752 64.2166 36.2734L64.3746 36.2348C65.2258 36.0274 66.2322 35.7916 67.3048 35.7916C67.7257 35.7916 68.5206 35.7446 69.2853 35.63C69.6664 35.5728 70.0104 35.5032 70.282 35.4245C70.5017 35.3609 70.6057 35.3103 70.6362 35.2955C70.6484 35.2896 70.6487 35.2894 70.6399 35.2965C71.1792 34.8637 71.8982 34.7572 72.3615 34.7151C72.901 34.666 73.5012 34.6786 74.0555 34.7092C74.5843 34.7383 75.1159 34.7869 75.564 34.8277L75.643 34.8349C76.1395 34.8802 76.4698 34.9078 76.6541 34.9078V17.7792C76.3837 17.5365 76.2135 17.1838 76.2135 16.7912C76.2135 14.6344 75.325 13.0866 74.0395 11.5197C73.6232 11.0124 73.2057 10.5487 72.765 10.0591C72.4866 9.75003 72.1991 9.43063 71.8967 9.0835C71.1532 8.22983 70.3968 7.28921 69.7795 6.2057C69.7765 6.2009 69.7586 6.17296 69.7179 6.11991C69.6732 6.06177 69.6137 5.98991 69.5399 5.90609C69.3918 5.73813 69.208 5.54712 69.0157 5.35912C68.8238 5.17158 68.6344 4.99767 68.4785 4.86358C68.3651 4.76598 68.2974 4.71395 68.27 4.69283C68.2527 4.67955 68.2513 4.67849 68.2644 4.686C67.823 4.43301 67.4577 4.18851 67.1509 3.9815L67.1069 3.95181C66.811 3.75199 66.5942 3.60564 66.3751 3.48161C65.983 3.25955 65.5871 3.10981 64.8748 3.0928C63.9167 3.06992 62.8914 2.97111 61.9374 2.87917C61.3882 2.82624 60.8626 2.77559 60.3871 2.74302C58.9858 2.64704 57.7229 2.66934 56.5075 3.01763C55.6728 3.25684 54.8719 3.46994 54.0996 3.67542C50.4349 4.65048 47.4155 5.45386 44.4916 8.06078C43.0427 9.3525 41.4895 10.3957 39.9487 11.335C40.0212 11.4795 40.0683 11.6398 40.0838 11.8106C40.1792 12.8633 40.3208 13.8475 40.4666 14.8609L40.4668 14.8625L40.4671 14.8643L40.4674 14.8663C40.517 15.2114 40.5672 15.5604 40.6162 15.9162C40.8062 17.2974 40.9703 18.7398 40.9703 20.3261C40.9703 21.4017 40.9329 22.3505 40.8141 23.2493L40.8979 23.2357C41.0306 23.2143 41.1668 23.1923 41.3084 23.1701C41.9357 23.0717 42.6314 22.9773 43.3932 22.9773C44.5917 22.9773 45.1777 23.9438 45.3889 24.3054C45.4568 24.4217 45.5198 24.5387 45.5718 24.6356L45.5828 24.6561C45.6332 24.7502 45.674 24.8262 45.7154 24.899C45.809 25.0633 45.8566 25.12 45.8697 25.1331C46.3187 25.5834 46.8366 25.9471 47.4611 26.3855L47.6929 26.5485C48.3789 27.0321 49.1857 27.6206 49.8341 28.4336C50.7339 29.5617 51.724 31.2988 52.3686 32.5201C53.3422 34.3646 54.4243 35.4808 56.0897 37.1516C56.134 37.1413 56.1792 37.1332 56.2253 37.1274C56.9408 37.0377 57.5941 37.5396 57.6971 38.2522L57.7256 38.3053L57.757 38.3632Z" fill="#837E7E"/>
</svg>
