<svg width="738" height="729" viewBox="0 0 738 729" fill="none" xmlns="http://www.w3.org/2000/svg">
<path fill-rule="evenodd" clip-rule="evenodd" d="M687.385 121.88C699.885 128.755 710.51 140.63 719.26 157.505C741.76 203.13 744.26 276.255 724.26 322.505C736.76 388.755 715.51 454.38 673.01 483.755C671.76 502.505 664.26 518.755 651.135 531.88C638.01 545.005 620.51 551.88 602.385 551.88C590.51 558.13 578.01 562.505 564.26 565.63C568.01 579.38 574.26 600.005 584.26 611.88L585.28 613.07C614.416 647.056 621.099 654.852 618.01 695.63C616.76 715.005 599.26 728.13 575.51 728.13H572.385C548.635 727.505 524.885 715.63 524.885 695.005C524.885 694.773 524.889 694.521 524.894 694.249C525.014 687.204 525.363 666.853 456.76 633.755C386.76 600.005 374.885 529.38 373.635 516.255C369.885 503.755 368.635 489.38 369.885 473.755C361.251 475.482 353.147 476.149 346.061 476.731L346.061 476.731L345.196 476.803C344.882 476.829 344.57 476.854 344.26 476.88C323.635 491.255 296.135 495.63 271.135 488.755C249.26 482.505 232.385 467.505 223.635 447.505C201.76 430.005 194.26 405.005 191.76 385.63C180.51 388.13 164.26 389.38 142.385 386.88C103.01 397.505 58.6349 382.505 29.2599 348.13C0.509899 315.005 -7.6151 273.13 7.3849 234.38C-5.7401 193.13 8.6349 160.005 23.6349 138.13C43.0099 110.005 75.5099 86.8801 101.135 80.6301C111.135 57.5051 138.635 38.1301 178.01 25.6301C209.885 16.2551 249.26 11.8801 274.26 21.8801C299.223 -0.0383248 344.351 -0.0117115 371.512 0.0043058C372.232 0.00473077 372.94 0.00514827 373.635 0.00514827H376.76H385.51C386.513 0.00514827 387.538 0.00390569 388.581 0.00263944C410.949 -0.024493 442.277 -0.0624952 466.76 11.8801C518.635 3.75515 581.135 21.8801 606.76 51.8801C629.26 51.8801 649.885 60.0051 665.51 75.6301C678.635 88.7551 686.76 103.755 687.385 121.88ZM643.635 474.38C642.385 469.38 645.51 463.755 651.135 460.63C682.385 443.13 699.885 398.13 699.26 347.505C679.885 358.13 657.385 358.13 636.76 358.13C628.01 358.13 618.635 358.13 609.885 358.755C580.51 361.88 564.26 395.005 564.26 395.005C562.417 401.147 556.953 404.271 550.834 404.377C550.792 404.475 550.749 404.572 550.706 404.67C550.674 404.74 550.642 404.81 550.61 404.88C549.271 407.767 547.015 410.66 543.491 412.733C542.385 413.384 541.138 414.067 539.849 414.624C538.83 415.063 536.43 416.041 533.403 416.074C531.693 416.092 529.427 415.815 527.053 414.676C525.908 414.126 524.895 413.451 524.012 412.698C523.935 412.76 523.858 412.823 523.78 412.887C523.719 412.937 523.658 412.987 523.597 413.039C521.491 414.793 519.429 416.869 517.768 418.785C516.193 420.603 515.461 421.72 515.307 421.956C515.28 421.997 515.271 422.011 515.277 421.998C514.857 422.838 514.362 423.614 513.804 424.324C515.619 426.623 516.702 429.526 516.702 432.683C516.702 433.611 516.682 434.531 516.641 435.444L516.74 435.599L516.801 435.693C516.9 435.847 517.001 436.002 517.104 436.158C520.277 440.978 524.248 445.519 527.612 448.883C529.184 450.455 530.768 451.292 534.315 453.166L534.951 453.502L535.328 453.702C535.684 453.89 536.058 454.089 536.451 454.299C537.118 454.655 537.82 455.037 538.549 455.451C541.753 452.578 546.132 450.918 550.51 451.255C558.635 451.88 564.885 459.38 564.26 468.13C563.635 471.88 561.76 505.005 603.01 520.63C613.01 520.63 623.635 516.255 631.135 508.755C639.885 500.005 644.26 487.505 643.635 474.38ZM607.385 328.13C568.975 331.668 546.912 363.404 539.544 376.744L539.475 376.813L539.439 376.849C539.301 376.987 539.156 377.13 539.002 377.278C538.051 378.196 537.011 379.1 536.083 379.842C535.212 380.539 534.703 380.883 534.597 380.955C534.578 380.968 534.572 380.972 534.579 380.967C533.423 381.647 532.403 382.416 531.508 383.243C526.215 382.189 521.33 383.554 518.22 384.818C513.69 386.66 509.57 389.583 506.315 392.294C503.605 394.552 501.073 397.019 498.892 399.392C497.729 396.994 496.391 394.827 495.064 392.938C491.315 387.602 486.638 383.032 482.439 379.673C480.78 378.345 477.466 375.501 474.603 372.426C473.167 370.884 472.088 369.543 471.41 368.511C471.366 368.444 471.326 368.381 471.289 368.323C471.245 368.253 471.205 368.188 471.17 368.129L471.141 368.081C471.127 368.058 471.115 368.036 471.102 368.015C471.085 367.985 471.069 367.956 471.054 367.93C470.504 365.159 469.125 362.733 467.213 360.881C465.896 356.231 462.337 352.154 457.385 350.63C456.76 350.63 419.26 336.88 409.885 304.38C449.63 303.411 469.829 279.888 477.769 259.464C483.485 258.06 487.769 253.015 488.024 246.929C488.051 246.891 488.082 246.847 488.118 246.797C488.139 246.768 488.162 246.737 488.187 246.705C488.969 245.671 490.226 244.484 492.773 242.228L493.102 241.937L493.134 241.909C495.258 240.031 498.406 237.249 500.981 233.965C501.2 233.686 501.419 233.398 501.636 233.103C502.897 235.555 504.208 238.089 505.604 240.726C509.718 248.497 515.194 254.454 523.898 256.656C527.463 257.558 530.9 257.634 533.496 257.615C534.637 257.607 535.842 257.574 536.95 257.544L537.495 257.529C538.805 257.494 540.081 257.465 541.424 257.465C545.028 257.465 548.302 256.053 550.724 253.751C552.066 253.732 553.993 253.636 555.51 253.13C578.01 244.38 591.135 233.755 598.01 221.255C601.76 222.505 604.26 225.005 606.76 228.13C615.312 239.198 616.171 257.96 615.854 269.421C609.794 271.503 605.903 277.683 606.912 284.239C607.963 291.073 610.385 297.617 612.24 302.631C612.529 303.413 612.805 304.158 613.059 304.861C615.175 310.705 616.31 314.733 616.31 318.55V327.73C613.409 327.822 610.449 327.95 607.385 328.13ZM643.31 327.491C669.816 327.332 686.44 325.528 699.26 306.88C699.26 306.88 699.885 306.88 699.885 306.255C714.26 269.38 712.385 206.255 694.26 170.005C688.01 156.88 679.26 148.13 671.76 146.88C663.635 145.63 658.635 137.505 659.26 130.005C659.885 117.505 656.135 105.005 646.76 95.6301C637.385 86.8801 624.885 81.2551 611.135 80.6301C604.885 93.7551 592.385 124.38 598.635 151.255C601.76 164.38 604.26 177.505 604.885 190.005C615.51 193.755 624.885 200.005 631.76 209.38C653.01 236.255 647.385 276.88 646.76 281.255C645.447 286.506 641.99 290.838 637.46 292.964C637.775 293.823 638.104 294.722 638.447 295.67C640.628 301.696 643.31 309.607 643.31 318.55V327.491ZM534.802 487.449C533.005 486.44 531.413 485.003 530.191 483.17C528.891 481.221 527.298 480.02 523.734 478.116C523.323 477.897 522.854 477.655 522.336 477.389C518.878 475.607 513.255 472.71 508.52 467.975C508.272 467.727 508.021 467.474 507.767 467.215C505.286 472.325 502.6 477.037 500.148 481.339L500.148 481.34L500.147 481.34L500.147 481.341L500.146 481.342C499.494 482.487 498.858 483.603 498.247 484.689C494.842 490.743 487.465 493.157 481.218 490.504C480.546 490.591 479.883 490.63 479.26 490.63C473.635 490.63 469.26 487.505 466.135 483.13C465.51 481.88 450.51 460.63 404.885 469.38C400.51 490.005 403.01 506.88 412.385 518.755C424.885 535.005 449.885 542.505 487.385 542.505C520.51 542.505 545.51 540.63 564.885 535.005C546.951 520.658 538.166 502.754 534.802 487.449ZM484.96 426.498C484.969 426.618 484.98 426.739 484.992 426.86C485.479 431.731 486.944 436.418 488.856 440.72C487.79 445.807 485.77 450.777 483.1 456.115C469.517 444.102 440.739 428.493 389.26 440.63C375.253 443.432 362.753 444.726 351.76 445.865H351.76C350.49 445.996 349.24 446.126 348.01 446.255C314.885 406.88 338.635 378.755 341.76 375.63C343.539 373.851 344.762 371.767 345.455 369.567C347.858 367.463 350.575 364.902 352.704 362.192C355.325 358.856 358.357 355.642 361.934 351.856L362.009 351.777C365.419 348.169 369.329 344.031 372.893 339.478C374.46 337.475 376.373 335.796 379.329 333.201C379.978 332.631 380.678 332.017 381.435 331.346C382.671 330.25 384.094 328.97 385.562 327.495C402.136 360.085 436.633 375.185 444.541 378.647C445.427 379.035 445.979 379.276 446.135 379.38C446.311 379.468 446.5 379.544 446.701 379.609C447.408 381.054 448.171 382.31 448.843 383.333C450.655 386.093 452.828 388.662 454.843 390.825C458.879 395.16 463.257 398.905 465.572 400.756C468.254 402.902 471.008 405.665 472.971 408.459C475.073 411.451 475.369 413.178 475.369 413.572C475.369 419.669 479.411 424.821 484.96 426.498ZM319.26 353.755C321.432 351.583 324.256 350.157 327.264 349.584C329.227 347.905 330.471 346.788 331.474 345.511C334.893 341.159 338.688 337.144 342.024 333.615L342.024 333.614L342.025 333.613L342.31 333.311C345.864 329.551 348.939 326.275 351.63 322.837C354.92 318.634 359.12 314.98 362.088 312.398L362.089 312.398L362.089 312.397L362.093 312.394L362.11 312.379C362.622 311.934 363.097 311.52 363.524 311.142C367.052 308.015 368.567 306.275 369.297 304.815C370.173 303.064 371.377 301.587 372.799 300.42C367.479 299.448 362.243 298.477 357.385 297.505C355.943 297.258 354.519 297.011 353.113 296.766L353.112 296.766L353.112 296.766L353.111 296.766L353.111 296.766L353.11 296.766C333.182 293.304 316.567 290.418 296.135 296.255C248.01 310.005 231.135 345.005 225.51 360.63L225.476 360.967C224.749 368.141 220.977 405.348 248.635 425.63C251.135 426.88 253.635 429.38 254.26 432.505C260.51 449.38 273.01 455.63 283.01 458.755C294.26 461.88 307.385 461.255 318.01 457.505C284.885 411.88 303.01 370.005 319.26 353.755ZM544.26 223.755C540.983 225.12 538.184 227.559 536.331 230.551L536.175 230.555L536.17 230.555L536.165 230.555L536.16 230.555L536.154 230.555L536.151 230.555C535.038 230.585 534.145 230.609 533.299 230.616C532.327 230.623 531.664 230.602 531.176 230.564L531.1 230.558C531.061 230.554 531.023 230.551 530.988 230.547C530.69 230.169 530.173 229.427 529.466 228.093C528.006 225.335 526.552 222.499 525.072 219.611L525.071 219.61C520.063 209.84 514.753 199.48 507.864 189.543C507.75 188.577 507.611 187.615 507.442 186.666C507.352 186.16 507.249 185.625 507.127 185.066C511.244 180.166 512.283 172.804 509.26 166.255C498.635 150.005 468.635 121.88 425.51 121.88C426.313 111.44 425.568 102.032 424.933 96.1415C427.937 85.0644 430.651 73.4904 432.065 61.836C434.19 59.4504 435.482 56.3054 435.482 52.8588L435.482 52.6607C435.483 50.7952 435.484 47.941 434.847 44.9801C434.092 41.4704 432.651 38.5531 430.826 35.815C429.876 34.3897 428.701 33.2034 427.381 32.2717C438.981 33.6281 450.151 36.1055 458.635 40.6301C461.76 41.8801 465.51 43.1301 469.26 41.8801C513.635 33.1301 563.635 50.6301 582.385 68.1301C573.635 85.0051 559.26 123.13 567.385 158.755C576.76 200.63 578.01 211.255 544.26 223.755ZM413.732 31.1403C404.231 30.6301 395.034 30.6301 387.385 30.6301H378.635H375.51C358.635 30.0051 318.01 30.0051 299.885 42.5051C328.635 90.6301 301.76 125.005 283.635 148.13C282.074 150.316 280.356 152.658 278.639 155L278.635 155.005C276.916 157.349 275.197 159.693 273.635 161.88C260.927 180.398 261.929 193.853 265.737 202.491C267.952 204.315 269.592 206.844 270.288 209.79C270.543 210.095 270.795 210.384 271.041 210.657C271.289 210.913 271.585 211.2 271.933 211.516C273.938 213.337 276.504 215.064 278.331 216.138C283.718 219.307 286.932 224.724 288.456 227.433C289.404 229.118 290.236 230.789 290.892 232.13L291.078 232.511L291.234 232.83L291.367 233.103L291.373 233.117C291.827 234.048 292.142 234.694 292.441 235.26C293.565 237.382 294.484 239.227 295.326 240.918L295.327 240.919C296.343 242.959 297.247 244.774 298.264 246.581C298.999 244.986 300.047 243.219 301.531 241.57C304.301 238.492 307.628 236.708 308.967 235.991C309.05 235.946 309.125 235.906 309.192 235.87C309.382 235.767 309.532 235.686 309.658 235.617C311.365 233.696 313.259 232.051 314.694 230.844C315.492 230.173 316.326 229.492 317.08 228.876L317.406 228.61C318.279 227.897 319.063 227.252 319.804 226.618C321.343 225.301 322.302 224.357 322.875 223.661C322.931 223.592 322.979 223.532 323.019 223.48C323.508 221.79 324.304 220.262 325.333 218.944C319.306 181.208 346.93 164.39 371.888 149.194C372.472 148.839 373.054 148.484 373.635 148.13C374.677 147.505 375.718 146.811 376.76 146.116C378.843 144.727 380.927 143.338 383.01 142.505C387.002 139.939 389.725 136.17 391.551 131.879C389.548 128.794 388.805 124.906 389.821 121.069C391.372 115.21 392.996 109.535 394.594 103.999C394.2 99.7047 393.635 96.8801 393.635 96.8801C392.601 89.6431 395.415 82.4061 401.37 79.4125C404.166 67.9959 406.093 56.9138 406.093 45.6922C406.093 45.2931 406.111 44.898 406.145 44.5076C405.722 39.7465 407.848 34.9089 412.105 32.0708C412.633 31.7188 413.177 31.4089 413.732 31.1403ZM470.127 226.433C471.762 224.767 473.37 223.345 474.615 222.243L474.872 222.015C477.443 219.738 478.811 218.482 479.736 217.303C479.984 216.986 480.118 216.776 480.185 216.657C480.295 214.845 480.452 213.005 480.614 211.107L480.615 211.096L480.615 211.091C480.935 207.345 481.274 203.372 481.316 198.942C481.346 195.785 481.186 193.231 480.859 191.39C480.744 190.742 480.633 190.326 480.56 190.091C477.763 186.465 477.081 181.797 478.42 177.673C469.62 167.498 448.264 148.738 414.885 154.38C411.135 160.005 406.135 165.63 399.26 169.38C398.218 170.005 397.177 170.7 396.135 171.394C394.052 172.783 391.968 174.172 389.885 175.005C363.01 191.255 353.635 198.13 356.76 215.005C357.777 222.123 354.657 228.828 348.748 231.754C347.582 235.603 345.511 238.645 343.723 240.817C341.656 243.329 339.298 245.472 337.36 247.131C336.444 247.916 334.915 249.169 333.701 250.165L333.69 250.174C332.984 250.754 332.386 251.244 332.078 251.503C331.361 252.106 330.817 252.586 330.399 252.985C330.195 253.178 330.047 253.328 329.942 253.44C329.896 253.489 329.863 253.526 329.84 253.551C329.818 253.576 329.807 253.59 329.804 253.593L329.804 253.593C328.174 255.63 326.378 256.981 325.097 257.829C324.156 258.452 323.191 258.992 322.539 259.347C322.271 260.255 321.857 261.429 321.212 262.685C335.685 262.712 349.277 265.289 362.445 267.786C363.051 267.901 363.656 268.016 364.26 268.13C365.911 268.445 367.572 268.769 369.245 269.096L369.25 269.097C380.877 271.368 393.102 273.755 406.76 273.755C444.97 273.755 450.972 243.37 451.731 239.527L451.76 239.38C452.385 230.63 459.885 225.63 468.635 226.255C469.145 226.292 469.643 226.351 470.127 226.433ZM264.885 241.88C265.111 241.88 265.338 241.873 265.567 241.86C265.91 242.519 266.263 243.228 266.641 243.999C266.742 244.207 266.851 244.43 266.965 244.664L266.971 244.676C267.46 245.682 268.045 246.884 268.579 247.893C269.088 248.854 269.695 250.066 270.377 251.428L270.379 251.431L270.379 251.431C272.182 255.032 274.511 259.681 276.94 263.522C278.22 265.544 279.699 267.654 281.432 269.719C249.94 280.265 229.559 298.802 216.76 316.255C206.76 302.505 191.76 293.755 179.26 286.88C170.51 282.505 162.385 277.505 156.76 271.255C147.398 261.893 151.943 245.579 155.798 236.118C161.747 232.458 165.203 227.238 167.37 223.285C168.466 221.285 169.413 219.258 170.152 217.678L170.152 217.678L170.152 217.677L170.23 217.511C171.051 215.754 171.626 214.539 172.206 213.494C172.712 212.584 173.313 211.581 174.09 210.284L174.091 210.282L174.464 209.659C175.363 208.157 176.429 206.361 177.434 204.49C179.2 201.206 181.893 195.754 182.243 189.815C182.346 188.058 182.742 186.923 183.684 185.066C183.834 184.77 184.048 184.374 184.307 183.895C184.518 183.503 184.76 183.055 185.022 182.56C186.098 183.082 187.422 183.772 189.055 184.68C189.473 184.912 189.926 185.168 190.411 185.442L190.42 185.447L190.421 185.447L190.424 185.449C194.661 187.844 201.337 191.618 208.288 192.882C211.24 193.418 213.86 194.59 218.184 196.524L218.185 196.524L218.188 196.526C218.792 196.796 219.428 197.08 220.103 197.38C223.284 198.792 227.395 200.558 232.221 201.61C235.562 219.193 246.238 232.132 255.51 238.755C258.635 241.255 261.76 241.88 264.885 241.88ZM194.275 157.091C195.157 153.44 194.78 149.5 193.01 146.255C191.76 143.755 169.885 105.005 131.135 93.7551C136.76 78.7551 158.01 64.3801 189.26 55.0052C229.26 42.5052 261.135 45.6301 268.01 51.2551C291.76 85.6301 277.385 105.005 258.635 129.38C255.901 133.481 253.167 136.918 250.19 140.659C249.084 142.049 247.945 143.481 246.76 145.005C239.909 155.144 235.642 164.742 233.338 173.681C232.641 173.394 231.885 173.07 231.061 172.704C230.567 172.484 230.033 172.242 229.463 171.983C225.424 170.149 219.568 167.49 213.118 166.317C210.863 165.907 208.173 164.413 202.232 161.113L202.166 161.076L201.905 160.931C199.924 159.83 197.314 158.379 194.275 157.091ZM165.498 160.926L165.649 161.159C164.558 162.44 163.69 163.948 163.125 165.642C162.616 167.172 162.139 168.059 161.277 169.662L161.277 169.662C160.838 170.48 160.298 171.484 159.604 172.854C157.703 176.601 155.729 181.386 155.303 188.014C155.278 188.107 155.218 188.322 155.086 188.675C154.804 189.428 154.341 190.425 153.651 191.708C152.967 192.982 152.183 194.312 151.295 195.796C151.185 195.98 151.071 196.169 150.955 196.363C150.203 197.618 149.344 199.051 148.604 200.382C147.805 201.82 147.081 203.297 146.461 204.605C139.753 202.879 133.756 205.691 130.51 211.255C127.127 217.226 123.553 225.034 121.081 233.731C120.326 235.677 119.771 237.795 119.516 240.086L119.512 240.121C115.957 257.361 117.499 276.994 133.01 292.505C141.76 301.255 152.385 307.505 162.385 312.505C183.01 324.38 194.885 331.88 194.885 351.88C191.135 354.38 179.26 360.63 145.51 356.255C143.01 356.255 141.76 356.255 139.26 356.88C110.51 365.63 78.0099 353.755 54.8849 328.13C32.3849 302.505 26.7599 270.005 39.8849 241.255C41.1349 237.505 41.1349 233.755 39.8849 229.38C28.0099 198.13 39.2599 172.505 50.5099 155.63C60.5099 140.63 74.2599 129.38 86.1349 121.255C89.8849 123.755 93.6349 124.38 98.6349 123.755C135.299 114.444 160.583 153.361 165.405 160.783L165.498 160.926ZM270.057 209.493C270.031 209.452 270.02 209.432 270.021 209.432C270.022 209.433 270.035 209.453 270.057 209.493ZM323.185 223.246C323.189 223.24 323.191 223.236 323.19 223.236C323.19 223.236 323.188 223.239 323.185 223.245C323.181 223.25 323.177 223.258 323.172 223.267C323.178 223.258 323.182 223.251 323.185 223.246ZM480.243 216.537C480.244 216.537 480.24 216.55 480.227 216.577C480.236 216.551 480.242 216.537 480.243 216.537ZM470.931 367.694C470.924 367.679 470.92 367.671 470.921 367.671C470.921 367.671 470.924 367.679 470.931 367.694ZM528.705 409.719C528.703 409.721 528.661 409.737 528.58 409.757C528.666 409.726 528.706 409.716 528.705 409.719Z" fill="#383535"/>
</svg>
