<svg width="592" height="605" viewBox="0 0 592 605" fill="none" xmlns="http://www.w3.org/2000/svg">
<mask id="path-1-outside-1_0_1" maskUnits="userSpaceOnUse" x="174" y="164.903" width="263" height="366" fill="black">
<rect fill="white" x="174" y="164.903" width="263" height="366"/>
<path fill-rule="evenodd" clip-rule="evenodd" d="M305.755 173.907C306.05 173.904 306.344 173.903 306.638 173.903V173.92C365.769 175.055 455.212 233.253 419.263 310.545C398.872 354.388 392.341 370.286 380.206 399.822L380.206 399.823L380.204 399.828C374.483 413.754 367.516 430.712 357.263 455.061L347.889 521H304.889L263.638 520.999L254.263 455.061C244.01 430.709 237.042 413.75 231.321 399.822C219.186 370.286 212.655 354.388 192.263 310.545C156.314 233.253 245.758 175.055 304.889 173.92V173.903C305.177 173.903 305.465 173.904 305.755 173.907Z"/>
</mask>
<path fill-rule="evenodd" clip-rule="evenodd" d="M305.755 173.907C306.05 173.904 306.344 173.903 306.638 173.903V173.92C365.769 175.055 455.212 233.253 419.263 310.545C398.872 354.388 392.341 370.286 380.206 399.822L380.206 399.823L380.204 399.828C374.483 413.754 367.516 430.712 357.263 455.061L347.889 521H304.889L263.638 520.999L254.263 455.061C244.01 430.709 237.042 413.75 231.321 399.822C219.186 370.286 212.655 354.388 192.263 310.545C156.314 233.253 245.758 175.055 304.889 173.92V173.903C305.177 173.903 305.465 173.904 305.755 173.907Z" fill="white" fill-opacity="0.88"/>
<path d="M306.638 173.903H315.638V164.903H306.638V173.903ZM305.755 173.907L305.669 182.907L305.756 182.908L305.843 182.907L305.755 173.907ZM306.638 173.92H297.638V182.749L306.465 182.918L306.638 173.92ZM419.263 310.545L427.424 314.341L427.424 314.341L419.263 310.545ZM380.206 399.822L371.882 396.402L371.853 396.472L371.825 396.543L380.206 399.822ZM380.206 399.823L388.522 403.264L388.556 403.183L388.587 403.102L380.206 399.823ZM380.205 399.826L371.888 396.385L371.884 396.396L371.88 396.406L380.205 399.826ZM357.263 455.061L348.969 451.569L348.517 452.642L348.353 453.795L357.263 455.061ZM347.889 521V530H355.7L356.799 522.266L347.889 521ZM304.889 521L304.889 530H304.889V521ZM263.638 520.999L254.728 522.266L255.827 529.999L263.638 529.999L263.638 520.999ZM254.263 455.061L263.174 453.794L263.01 452.642L262.558 451.569L254.263 455.061ZM231.321 399.822L239.645 396.402L239.645 396.402L231.321 399.822ZM192.263 310.545L200.424 306.75L200.424 306.75L192.263 310.545ZM304.889 173.92L305.062 182.918L313.889 182.749V173.92H304.889ZM304.889 173.903V164.903H295.889V173.903H304.889ZM306.638 164.903C306.315 164.903 305.991 164.904 305.667 164.908L305.843 182.907C306.109 182.904 306.374 182.903 306.638 182.903V164.903ZM315.638 173.92V173.903H297.638V173.92H315.638ZM306.465 182.918C333.673 183.44 368.671 197.314 392.359 220.153C404.095 231.468 412.695 244.638 416.437 259.017C420.142 273.249 419.247 289.239 411.103 306.75L427.424 314.341C437.254 293.205 438.66 272.936 433.857 254.483C429.091 236.175 418.375 220.232 404.852 207.195C378.023 181.327 338.733 165.534 306.811 164.922L306.465 182.918ZM411.103 306.75C390.637 350.752 384.05 366.782 371.882 396.402L388.531 403.242C400.631 373.789 407.107 358.024 427.424 314.341L411.103 306.75ZM371.825 396.543L371.825 396.543L388.587 403.102L388.588 403.102L371.825 396.543ZM371.89 396.381L371.888 396.385L388.521 403.268L388.522 403.264L371.89 396.381ZM371.88 396.406C366.161 410.327 359.206 427.256 348.969 451.569L365.558 458.554C375.827 434.167 382.806 417.179 388.529 403.247L371.88 396.406ZM348.353 453.795L338.978 519.733L356.799 522.266L366.174 456.328L348.353 453.795ZM347.889 512H304.889V530H347.889V512ZM263.638 529.999L304.889 530L304.889 512L263.638 511.999L263.638 529.999ZM245.353 456.328L254.728 522.266L272.548 519.733L263.174 453.794L245.353 456.328ZM222.996 403.242C228.72 417.176 235.699 434.165 245.969 458.554L262.558 451.569C252.32 427.254 245.365 410.324 239.645 396.402L222.996 403.242ZM184.103 314.341C204.42 358.024 210.896 373.789 222.996 403.242L239.645 396.402C227.477 366.782 220.89 350.752 200.424 306.75L184.103 314.341ZM304.716 164.921C272.794 165.534 233.504 181.327 206.674 207.194C193.152 220.232 182.435 236.175 177.67 254.482C172.867 272.936 174.273 293.205 184.103 314.341L200.424 306.75C192.28 289.239 191.385 273.249 195.09 259.017C198.832 244.638 207.432 231.468 219.168 220.153C242.856 197.314 277.853 183.44 305.062 182.918L304.716 164.921ZM313.889 173.92V173.903H295.889V173.92H313.889ZM304.889 182.903C305.148 182.903 305.408 182.904 305.669 182.907L305.841 164.908C305.523 164.905 305.206 164.903 304.889 164.903V182.903Z" fill="white" fill-opacity="0.88" mask="url(#path-1-outside-1_0_1)"/>
<path d="M306.638 173.903H315.638V164.903H306.638V173.903ZM305.755 173.907L305.669 182.907L305.756 182.908L305.843 182.907L305.755 173.907ZM306.638 173.92H297.638V182.749L306.465 182.918L306.638 173.92ZM419.263 310.545L427.424 314.341L427.424 314.341L419.263 310.545ZM380.206 399.822L371.882 396.402L371.853 396.472L371.825 396.543L380.206 399.822ZM380.206 399.823L388.522 403.264L388.556 403.183L388.587 403.102L380.206 399.823ZM380.205 399.826L371.888 396.385L371.884 396.396L371.88 396.406L380.205 399.826ZM357.263 455.061L348.969 451.569L348.517 452.642L348.353 453.795L357.263 455.061ZM347.889 521V530H355.7L356.799 522.266L347.889 521ZM304.889 521L304.889 530H304.889V521ZM263.638 520.999L254.728 522.266L255.827 529.999L263.638 529.999L263.638 520.999ZM254.263 455.061L263.174 453.794L263.01 452.642L262.558 451.569L254.263 455.061ZM231.321 399.822L239.645 396.402L239.645 396.402L231.321 399.822ZM192.263 310.545L200.424 306.75L200.424 306.75L192.263 310.545ZM304.889 173.92L305.062 182.918L313.889 182.749V173.92H304.889ZM304.889 173.903V164.903H295.889V173.903H304.889ZM306.638 164.903C306.315 164.903 305.991 164.904 305.667 164.908L305.843 182.907C306.109 182.904 306.374 182.903 306.638 182.903V164.903ZM315.638 173.92V173.903H297.638V173.92H315.638ZM306.465 182.918C333.673 183.44 368.671 197.314 392.359 220.153C404.095 231.468 412.695 244.638 416.437 259.017C420.142 273.249 419.247 289.239 411.103 306.75L427.424 314.341C437.254 293.205 438.66 272.936 433.857 254.483C429.091 236.175 418.375 220.232 404.852 207.195C378.023 181.327 338.733 165.534 306.811 164.922L306.465 182.918ZM411.103 306.75C390.637 350.752 384.05 366.782 371.882 396.402L388.531 403.242C400.631 373.789 407.107 358.024 427.424 314.341L411.103 306.75ZM371.825 396.543L371.825 396.543L388.587 403.102L388.588 403.102L371.825 396.543ZM371.89 396.381L371.888 396.385L388.521 403.268L388.522 403.264L371.89 396.381ZM371.88 396.406C366.161 410.327 359.206 427.256 348.969 451.569L365.558 458.554C375.827 434.167 382.806 417.179 388.529 403.247L371.88 396.406ZM348.353 453.795L338.978 519.733L356.799 522.266L366.174 456.328L348.353 453.795ZM347.889 512H304.889V530H347.889V512ZM263.638 529.999L304.889 530L304.889 512L263.638 511.999L263.638 529.999ZM245.353 456.328L254.728 522.266L272.548 519.733L263.174 453.794L245.353 456.328ZM222.996 403.242C228.72 417.176 235.699 434.165 245.969 458.554L262.558 451.569C252.32 427.254 245.365 410.324 239.645 396.402L222.996 403.242ZM184.103 314.341C204.42 358.024 210.896 373.789 222.996 403.242L239.645 396.402C227.477 366.782 220.89 350.752 200.424 306.75L184.103 314.341ZM304.716 164.921C272.794 165.534 233.504 181.327 206.674 207.194C193.152 220.232 182.435 236.175 177.67 254.482C172.867 272.936 174.273 293.205 184.103 314.341L200.424 306.75C192.28 289.239 191.385 273.249 195.09 259.017C198.832 244.638 207.432 231.468 219.168 220.153C242.856 197.314 277.853 183.44 305.062 182.918L304.716 164.921ZM313.889 173.92V173.903H295.889V173.92H313.889ZM304.889 182.903C305.148 182.903 305.408 182.904 305.669 182.907L305.841 164.908C305.523 164.905 305.206 164.903 304.889 164.903V182.903Z" fill="white" fill-opacity="0.88" mask="url(#path-1-outside-1_0_1)"/>
<line y1="-4.5" x2="105.532" y2="-4.5" transform="matrix(0.966527 -0.256565 0.157448 0.987527 490 323.56)" stroke="white" stroke-opacity="0.88" stroke-width="9"/>
<line y1="-4.5" x2="105.065" y2="-4.5" transform="matrix(0.951564 0.307449 -0.190507 0.981686 0 306.806)" stroke="white" stroke-opacity="0.88" stroke-width="9"/>
<line y1="-4.5" x2="121.144" y2="-4.5" transform="matrix(0.514949 0.857221 -0.707052 0.707162 122 61.6451)" stroke="white" stroke-opacity="0.88" stroke-width="9"/>
<line y1="-4.5" x2="108.033" y2="-4.5" transform="matrix(0.684974 0.728568 -0.538367 0.842711 40 173.903)" stroke="white" stroke-opacity="0.88" stroke-width="9"/>
<line y1="-4.5" x2="112.403" y2="-4.5" transform="matrix(0.75621 -0.654329 0.461147 0.887324 484 247.452)" stroke="white" stroke-opacity="0.88" stroke-width="9"/>
<line y1="-4.5" x2="120.441" y2="-4.5" transform="matrix(0.514949 -0.857221 0.707052 0.707162 428 164.89)" stroke="white" stroke-opacity="0.88" stroke-width="9"/>
<line y1="-4.5" x2="121.335" y2="-4.5" transform="matrix(0.0329665 -0.999456 0.998496 0.0548341 306 122.27)" stroke="white" stroke-opacity="0.88" stroke-width="9"/>
<path fill-rule="evenodd" clip-rule="evenodd" d="M306 530H256L265.434 542.037L287.132 599.444L306 605L324.868 599.444L346.566 542.037L356 530H306Z" fill="white"/>
<line x1="264.512" y1="539" x2="347.516" y2="540.012" stroke="white" stroke-width="2"/>
</svg>
